<?xml version="1.0" standalone="no"?><!DOCTYPE svg PUBLIC "-//W3C//DTD SVG 1.1//EN" "http://www.w3.org/Graphics/SVG/1.1/DTD/svg11.dtd"><svg class="icon" width="200px" height="200.00px" viewBox="0 0 1024 1024" version="1.1" xmlns="http://www.w3.org/2000/svg"><path fill="currentColor" d="M762.66666667 353.6c0-138.13333333-112.42666667-250.56-250.66666667-250.56S261.33333333 215.46666667 261.33333333 353.6c0 82.98666667 40.74666667 156.48 103.14666667 202.13333333-156.8 48.42666667-269.01333333 172.16-279.04 325.33333334-0.64 9.70666667 2.77333333 19.30666667 9.49333333 26.45333333 6.72 7.14666667 16 11.2 25.81333334 11.2 18.66666667 0 34.02666667-14.50666667 35.2-33.06666667 10.45333333-160.42666667 163.73333333-281.49333333 356.48-281.49333333h0.10666666C650.56 603.84 762.66666667 491.62666667 762.66666667 353.6zM512 533.54666667c-99.30666667 0-180.05333333-80.64-180.05333333-179.84S412.69333333 173.86666667 512 173.86666667c99.30666667 0 180.05333333 80.74666667 180.05333333 179.84 0 99.09333333-80.74666667 179.84-180.05333333 179.84zM757.54666667 600.42666667c-16.74666667-10.02666667-38.4-4.69333333-48.53333334 12.05333333-10.02666667 16.74666667-4.69333333 38.4 12.05333334 48.53333333 90.56 54.50666667 146.88 140.58666667 146.88 224.64 0 19.52 15.78666667 35.30666667 35.30666666 35.30666667s35.30666667-15.78666667 35.30666667-35.30666667c0.10666667-108.69333333-69.33333333-218.02666667-181.01333333-285.22666666z"  /></svg>