<?xml version="1.0" standalone="no"?><!DOCTYPE svg PUBLIC "-//W3C//DTD SVG 1.1//EN" "http://www.w3.org/Graphics/SVG/1.1/DTD/svg11.dtd"><svg class="icon" width="200px" height="200.00px" viewBox="0 0 1024 1024" version="1.1" xmlns="http://www.w3.org/2000/svg"><path d="M826.807701 315.83519l-0.10703 0.010703h0.21406z" fill="currentColor" /><path d="M797.417229 252.494763H533.21337c-21.181261-63.91839-81.321488-110.069779-152.325271-110.069778h-168.572444c-88.663754 0-160.545185 71.881431-160.545184 160.545185v465.944938c0 88.663754 71.881431 160.545185 160.545184 160.545184h585.101574c88.663754 0 160.545185-71.881431 160.545185-160.545184v-355.87516c0-88.663754-71.881431-160.545185-160.545185-160.545185z m85.624099 516.420345c0 47.210987-38.413111 85.624099-85.624099 85.624098H212.315655c-47.210987 0-85.624099-38.413111-85.624098-85.624098V302.97017c0-47.210987 38.413111-85.624099 85.624098-85.624099h168.572444a85.45285 85.45285 0 0 1 81.214458 58.706023l17.017789 51.363756h318.296883c47.210987 0 85.624099 38.413111 85.624099 85.624098v355.87516z" fill="currentColor" /><path d="M487.083387 711.375713a37.481949 37.481949 0 0 1-52.979911 0l-98.382089-98.382089a37.481949 37.481949 0 0 1 0-52.979911 37.481949 37.481949 0 0 1 52.979911 0l98.382089 98.382089a37.481949 37.481949 0 0 1 0 52.979911z" fill="currentColor" /><path d="M434.103476 711.375713a37.481949 37.481949 0 0 1 0-52.979911l211.908941-211.90894a37.481949 37.481949 0 0 1 52.979911 0 37.481949 37.481949 0 0 1 0 52.979911L487.083387 711.375713a37.481949 37.481949 0 0 1-52.979911 0z" fill="currentColor" /></svg>