<?xml version="1.0" standalone="no"?><!DOCTYPE svg PUBLIC "-//W3C//DTD SVG 1.1//EN" "http://www.w3.org/Graphics/SVG/1.1/DTD/svg11.dtd"><svg class="icon" width="200px" height="200.00px" viewBox="0 0 1024 1024" version="1.1" xmlns="http://www.w3.org/2000/svg"><path fill="currentColor" d="M805.433786 235.872985H541.229927c-21.181261-63.91839-81.321488-110.069779-152.325272-110.069778h-168.572444c-88.663754 0-160.545185 71.881431-160.545184 160.545184v465.944938c0 88.663754 71.881431 160.545185 160.545184 160.545185h585.101575c88.663754 0 160.545185-71.881431 160.545184-160.545185v-355.875159c0-88.663754-71.881431-160.545185-160.545184-160.545185z m85.624098 516.420344c0 47.210987-38.413111 85.624099-85.624098 85.624099H220.332211c-47.210987 0-85.624099-38.413111-85.624098-85.624099V286.348391c0-47.210987 38.413111-85.624099 85.624098-85.624098h168.572444a85.45285 85.45285 0 0 1 81.214458 58.706022l17.017789 51.363757h318.296884c47.210987 0 85.624099 38.413111 85.624098 85.624098v355.875159z"  /><path fill="currentColor" d="M645.316721 434.670736a37.44984 37.44984 0 0 1 0 52.969208L433.407781 699.548885a37.44984 37.44984 0 1 1-52.969208-52.969208l211.90894-211.908941a37.44984 37.44984 0 0 1 52.969208 0z"  /><path fill="currentColor" d="M645.316721 699.548885a37.44984 37.44984 0 0 1-52.969208 0L380.438573 487.650647a37.44984 37.44984 0 1 1 52.969208-52.969208l211.90894 211.908941a37.439137 37.439137 0 0 1 0 52.958505z"  /></svg>