<?xml version="1.0" standalone="no"?><!DOCTYPE svg PUBLIC "-//W3C//DTD SVG 1.1//EN" "http://www.w3.org/Graphics/SVG/1.1/DTD/svg11.dtd"><svg class="icon" width="200px" height="200.00px" viewBox="0 0 1024 1024" version="1.1" xmlns="http://www.w3.org/2000/svg"><path fill="currentColor" d="M710.176976 155.247194c-75.46694 0-142.885214 34.452997-187.38834 88.513911-44.481719-54.060915-111.899994-88.513912-187.366933-88.513911-134.001714 0-242.615883 108.614169-242.615883 242.594477 0 72.90892 32.216067 138.261513 83.162405 182.721826l347.195017 358.989736 352.032778-363.988043c47.703326-44.299768 77.575433-107.490353 77.575433-177.723519 0-133.980308-108.624872-242.594477-242.594477-242.594477z m114.029893 365.422246l-1.466313 1.380689-299.577314 309.734473-295.542279-305.581705-2.386772-2.065681a167.673391 167.673391 0 0 1-57.507285-126.306248c0-92.463323 75.231474-167.673391 167.694797-167.673391 50.293455 0 97.493739 22.305078 129.527855 61.210527l57.839078 70.233167 57.839079-70.233167a167.255973 167.255973 0 0 1 129.549261-61.210527c92.463323 0 167.673391 75.210068 167.673391 167.673391 0 47.103957-19.051362 90.729435-53.643498 122.838472z"  /></svg>