<?xml version="1.0" standalone="no"?><!DOCTYPE svg PUBLIC "-//W3C//DTD SVG 1.1//EN" "http://www.w3.org/Graphics/SVG/1.1/DTD/svg11.dtd"><svg class="icon" width="200px" height="200.00px" viewBox="0 0 1024 1024" version="1.1" xmlns="http://www.w3.org/2000/svg"><path fill="currentColor" d="M1001.0112 346.4192c0-150.2208-121.78432-271.99488-271.99488-271.99488-87.6544 0-165.56032 41.50272-215.296 105.87136C463.96416 115.9168 386.05824 74.42432 298.41408 74.42432 148.19328 74.42432 26.4192 196.20864 26.4192 346.4192a271.0016 271.0016 0 0 0 71.46496 183.73632l-0.02048 0.01024 3.65568 3.79904c1.72032 1.80224 3.40992 3.62496 5.18144 5.36576l388.6592 403.23072s7.05536 10.0864 16.64 11.25376v0.21504c0.29696 0 0.5632-0.09216 0.86016-0.11264 0.27648 0.02048 0.5632 0.11264 0.84992 0.11264v-0.21504c9.5744-1.15712 16.64-11.25376 16.64-11.25376l397.02528-410.05056-0.07168-0.03072c45.68064-48.64 73.70752-114.06336 73.70752-186.0608zM872.28416 486.37952L512.93184 857.50784 150.72256 481.72032a199.75168 199.75168 0 0 1-52.6336-135.30112c0-110.45888 89.86624-200.31488 200.31488-200.31488 62.47424 0 120.2688 28.43648 158.58688 78.01856l56.71936 73.39008 56.70912-73.39008c38.30784-49.58208 96.11264-78.01856 158.57664-78.01856 110.45888 0 200.31488 89.86624 200.31488 200.31488 0 51.05664-19.28192 99.71712-54.28224 137.0112l-2.74432 2.94912z"  /></svg>