<?xml version="1.0" standalone="no"?><!DOCTYPE svg PUBLIC "-//W3C//DTD SVG 1.1//EN" "http://www.w3.org/Graphics/SVG/1.1/DTD/svg11.dtd"><svg class="icon" width="200px" height="200.00px" viewBox="0 0 1024 1024" version="1.1" xmlns="http://www.w3.org/2000/svg"><path fill="currentColor" d="M187.485091 472.58375767c70.516364-44.125091 160.279273-52.130909 237.986909-19.2a34.862545 34.862545 0 0 0 35.118545-4.608l215.016728-168.12218199a34.955636 34.955636 0 0 0 12.544-35.23490901 122.786909 122.786909 0 0 1 11.636363-85.829818l166.539637 166.562909a122.600727 122.600727 0 0 1-85.829818 11.636364 34.909091 34.909091 0 0 0-35.211637 12.544l-172.613818 220.76509c-7.377455 9.472-9.402182 21.992727-5.399273 33.163637a258.816 258.816 0 0 1-24.506182 223.604363l-177.640727-177.617454 0-0.046546-0.046545 0-177.594182-177.64072699z m-45.405091 450.024727l198.353455-198.376727 181.59709 181.666909a34.909091 34.909091 0 0 0 51.2-1.954909c71.842909-83.735273 96.32581801-198.795636 65.815273-304.384l148.526546-189.952a191.325091 191.325091 0 0 0 156.392727-55.202909 34.909091 34.909091 0 0 0 0-49.361455L720.919273 81.99757567a34.909091 34.909091 0 0 0-49.384728 0 191.185455 191.185455 0 0 0-55.202909 156.392727l-183.156363 143.173819c-109.242182-38.120727-233.425455-15.290182-321.815273 60.50909a35.141818 35.141818 0 0 0-12.125091 25.181091l0 1.349819c0 9.262545 3.630545 18.129455 10.19345501 24.66909l181.643636 181.620364-198.37672701 198.376727a34.816 34.816 0 0 0 0 49.338182 34.909091 34.909091 0 0 0 49.384727 0z"  /></svg>