<?xml version="1.0" standalone="no"?><!DOCTYPE svg PUBLIC "-//W3C//DTD SVG 1.1//EN" "http://www.w3.org/Graphics/SVG/1.1/DTD/svg11.dtd"><svg class="icon" width="200px" height="200.00px" viewBox="0 0 1024 1024" version="1.1" xmlns="http://www.w3.org/2000/svg"><path fill="currentColor" d="M504.700546 725.064866a37.481949 37.481949 0 0 1-52.979911 0l-98.38209-98.382089a37.481949 37.481949 0 0 1 0-52.979911 37.481949 37.481949 0 0 1 52.979911 0l98.38209 98.382089a37.481949 37.481949 0 0 1 0 52.979911z"  /><path fill="currentColor" d="M451.720635 725.064866a37.481949 37.481949 0 0 1 0-52.979911l211.90894-211.908941a37.481949 37.481949 0 0 1 52.979911 0 37.481949 37.481949 0 0 1 0 52.979911L504.700546 725.064866a37.481949 37.481949 0 0 1-52.979911 0z"  /><path fill="currentColor" d="M519.160315 168.069402c-218.716057 0-396.011456 177.295399-396.011455 396.011456s177.295399 396.011456 396.011455 396.011455 396.011456-177.295399 396.011456-396.011455-177.306102-396.011456-396.011456-396.011456z m0 717.101825c-177.04923 0-321.090369-144.04114-321.090369-321.090369s144.04114-321.090369 321.090369-321.090369 321.090369 144.04114 321.09037 321.090369-144.04114 321.090369-321.09037 321.090369zM971.416101 278.727847a37.481949 37.481949 0 0 1-52.979911 0L782.208249 142.499906a37.481949 37.481949 0 0 1 0-52.979911 37.481949 37.481949 0 0 1 52.979911 0l136.227941 136.227941a37.481949 37.481949 0 0 1 0 52.979911zM66.915233 278.727847a37.481949 37.481949 0 0 0 52.979911 0L256.123085 142.499906a37.481949 37.481949 0 0 0 0-52.979911 37.481949 37.481949 0 0 0-52.979911 0L66.915233 225.747936a37.481949 37.481949 0 0 0 0 52.979911z"  /></svg>