<?xml version="1.0" standalone="no"?><!DOCTYPE svg PUBLIC "-//W3C//DTD SVG 1.1//EN" "http://www.w3.org/Graphics/SVG/1.1/DTD/svg11.dtd"><svg class="icon" width="200px" height="200.00px" viewBox="0 0 1024 1024" version="1.1" xmlns="http://www.w3.org/2000/svg"><path fill="currentColor" d="M757.05617 359.482075l-5.351506-133.787654s-16.054518-117.711729-128.436148-117.71173-142.713966 76.697786-142.713966 121.286536c0 0 16.054518 126.659448-94.550411 162.321884 0 0-128.436148-19.629325-128.436148 67.79288v383.531744s-7.128206 73.12298 89.198905 73.12298h428.120492s98.125217-17.831219 123.084642-130.212848l33.885737-246.169283s32.109037-180.174509-174.801597-180.174509z m100.908 167.898154l-0.267575 1.466312-33.46832 243.3865c-12.019483 49.212451-46.493885 64.849552-58.534774 68.884588h-418.926605a75.509752 75.509752 0 0 1-14.277819-1.145223v-372.978573c5.137446-1.20944 13.089784-2.365366 24.167402-2.365365 10.574576 0 18.398478 1.091707 18.484103 1.091707l17.039195 2.408178 16.846542-5.22307c129.998788-41.934402 152.742689-169.471497 146.556347-236.654306 1.027489-15.091247 10.595982-43.357903 67.68585-43.357903 41.185191 0 51.567113 38.648577 53.739825 50.207831l8.048665 201.312959h71.999164c28.748291 0 66.936639 4.559483 85.55988 26.211677 21.052825 24.488492 15.412338 66.358676 15.34812 66.754688zM172.404122 878.578172a37.460543 37.460543 0 0 1-37.460543 37.460543 37.44984 37.44984 0 0 1-37.460543-37.460543v-387.984197a37.460543 37.460543 0 1 1 74.921086 0v387.984197z"  /></svg>