<?xml version="1.0" standalone="no"?><!DOCTYPE svg PUBLIC "-//W3C//DTD SVG 1.1//EN" "http://www.w3.org/Graphics/SVG/1.1/DTD/svg11.dtd"><svg class="icon" width="200px" height="200.00px" viewBox="0 0 1024 1024" version="1.1" xmlns="http://www.w3.org/2000/svg"><path fill="currentColor" d="M409.6 701.44a35.84 35.84 0 1 1-71.68 0v-133.12a35.84 35.84 0 1 1 71.68 0v133.12zM552.96 701.44a35.84 35.84 0 1 1-71.68 0v-133.12a35.84 35.84 0 1 1 71.68 0v133.12zM686.08 701.44a35.84 35.84 0 1 1-71.68 0v-133.12a35.84 35.84 0 1 1 71.68 0v133.12z"  /><path fill="currentColor" d="M947.2 348.16H764.33408L606.09536 123.2384a35.85024 35.85024 0 0 0-58.624 41.24672L676.70016 348.16H355.14368l129.21856-183.67488a35.84 35.84 0 0 0-58.624-41.24672L267.49952 348.16H76.8C56.99584 348.16 40.96 364.19584 40.96 384S56.99584 419.84 76.8 419.84h47.4624L184.32 834.18112S197.12 911.36 307.2 911.36h410.88c110.08 0 122.56256-77.17888 122.56256-77.17888L900.43392 419.84H947.2a35.84 35.84 0 1 0 0-71.68z m-119.23456 71.95648L770.23232 820.1216c-3.79904 9.65632-19.3024 19.5584-52.15232 19.5584H307.2c-42.11712 0-51.63008-16.13824-52.14208-17.18272l-58.32704-402.3808L512.06144 419.84l315.904 0.27648z"  /></svg>