<?xml version="1.0" standalone="no"?><!DOCTYPE svg PUBLIC "-//W3C//DTD SVG 1.1//EN" "http://www.w3.org/Graphics/SVG/1.1/DTD/svg11.dtd"><svg class="icon" width="200px" height="200.00px" viewBox="0 0 1024 1024" version="1.1" xmlns="http://www.w3.org/2000/svg"><path fill="currentColor" d="M663.586763 84.072162H189.090119c-59.112737 0-107.030123 47.928089-107.030124 107.030123v652.883751c0 59.102034 47.917386 107.030123 107.030124 107.030123H663.586763c59.102034 0 107.030123-47.928089 107.030124-107.030123v-652.883751c0-59.102034-47.928089-107.030123-107.030124-107.030123z m32.109037 759.913874c0 17.702782-14.406255 32.109037-32.109037 32.109037H189.090119c-17.702782 0-32.109037-14.406255-32.109037-32.109037v-652.883751c0-17.702782 14.406255-32.109037 32.109037-32.109037H663.586763c17.702782 0 32.109037 14.406255 32.109037 32.109037v652.883751z"  /><path fill="currentColor" d="M834.83496 330.241445c-76.847628 0-139.13916 62.291532-139.13916 139.13916v342.496394c0 76.847628 62.291532 139.13916 139.13916 139.13916s139.13916-62.291532 139.13916-139.13916v-342.496394c0-76.836925-62.291532-139.13916-139.13916-139.13916z m64.218074 481.635554c0 35.416268-28.801806 64.218074-64.218074 64.218074s-64.218074-28.801806-64.218073-64.218074v-342.496394c0-35.416268 28.801806-64.218074 64.218073-64.218074s64.218074 28.801806 64.218074 64.218074v342.496394zM586.888977 424.781153a37.460543 37.460543 0 0 1-37.460543 37.460543h-246.169283a37.460543 37.460543 0 1 1 0-74.921086h246.169283c20.67822 0 37.460543 16.782323 37.460543 37.460543zM586.888977 581.762234a37.460543 37.460543 0 0 1-37.460543 37.460543h-246.169283a37.460543 37.460543 0 1 1 0-74.921086h246.169283c20.67822 0 37.460543 16.782323 37.460543 37.460543z"  /><path fill="currentColor" d="M874.082907 913.555616a37.460543 37.460543 0 0 1-37.460544 37.460543H512.032109a37.460543 37.460543 0 1 1 0-74.921086h324.590254a37.460543 37.460543 0 0 1 37.460544 37.460543z"  /></svg>