<?xml version="1.0" standalone="no"?><!DOCTYPE svg PUBLIC "-//W3C//DTD SVG 1.1//EN" "http://www.w3.org/Graphics/SVG/1.1/DTD/svg11.dtd"><svg class="icon" width="200px" height="200.00px" viewBox="0 0 1024 1024" version="1.1" xmlns="http://www.w3.org/2000/svg"><path fill="currentColor" d="M931.46112 701.44h-17.92V124.50816h17.92a35.84 35.84 0 0 0 0-71.68H102.01088a35.84 35.84 0 0 0 0 71.68h17.93024V701.44h-17.92a35.84 35.84 0 1 0 0 71.68h829.44a35.84 35.84 0 1 0 0-71.68z m-739.84-576.93184h650.24V701.44h-650.24V124.50816z"  /><path fill="currentColor" d="M719.23712 285.25568a35.82976 35.82976 0 0 0-50.67776 0L526.61248 427.2128l-61.94176-61.952a34.68288 34.68288 0 0 0-5.62176-7.58784 35.71712 35.71712 0 0 0-26.3168-10.41408 35.6864 35.6864 0 0 0-26.33728 10.40384c-2.31424 2.31424-4.096 4.9152-5.64224 7.61856l-86.528 86.51776a35.87072 35.87072 0 0 0 0 50.688 35.86048 35.86048 0 0 0 50.688 0l67.79904-67.79904 67.79904 67.7888a35.6864 35.6864 0 0 0 26.10176 10.43456 35.6352 35.6352 0 0 0 26.09152-10.43456l166.54336-166.54336a35.84 35.84 0 0 0-0.01024-50.67776zM552.58112 873.13408a35.84 35.84 0 0 1-71.69024 0v-133.12a35.84 35.84 0 0 1 35.85024-35.84 35.84 35.84 0 0 1 35.84 35.84v133.12zM247.84896 968.0896a35.82976 35.82976 0 1 1-50.67776-50.67776l202.74176-202.74176a35.82976 35.82976 0 1 1 50.67776 50.67776L247.84896 968.0896zM785.62304 968.0896a35.82976 35.82976 0 1 0 50.67776-50.67776L633.55904 714.67008a35.82976 35.82976 0 1 0-50.67776 50.67776L785.62304 968.0896z"  /></svg>