<?xml version="1.0" standalone="no"?><!DOCTYPE svg PUBLIC "-//W3C//DTD SVG 1.1//EN" "http://www.w3.org/Graphics/SVG/1.1/DTD/svg11.dtd"><svg class="icon" width="200px" height="200.00px" viewBox="0 0 1024 1024" version="1.1" xmlns="http://www.w3.org/2000/svg"><path fill="currentColor" d="M406.17984 674.12992a35.84 35.84 0 1 1-71.66976 0v-286.72a35.82976 35.82976 0 1 1 71.66976 0v286.72z"  /><path fill="currentColor" d="M981.36064 623.36v-71.68H426.67008v71.68h406.35392c-25.8048 32.39936-41.30816 73.33888-41.30816 117.97504s15.5136 85.56544 41.30816 117.97504h-569.1392c-65.05472 0-117.97504-52.92032-117.97504-117.97504s52.92032-117.97504 117.97504-117.97504h50.13504v-71.68h-50.13504c-104.74496 0-189.65504 84.91008-189.65504 189.65504 0 104.74496 84.91008 189.65504 189.65504 189.65504h717.47584v-71.68c-65.05472 0-117.97504-52.92032-117.97504-117.97504s52.92032-117.97504 117.97504-117.97504zM791.71584 115.2h-717.47584v71.68c65.05472 0 117.97504 52.92032 117.97504 117.97504s-52.92032 117.97504-117.97504 117.97504v71.68h239.77984v-71.68h-91.45344c25.8048-32.38912 41.3184-73.33888 41.3184-117.97504s-15.52384-85.57568-41.3184-117.97504h569.14944c65.05472 0 117.97504 52.92032 117.97504 117.97504s-52.92032 117.97504-117.97504 117.97504H426.67008v71.68h365.04576c104.74496 0 189.65504-84.91008 189.65504-189.65504s-84.91008-189.65504-189.65504-189.65504z"  /></svg>