<?xml version="1.0" standalone="no"?><!DOCTYPE svg PUBLIC "-//W3C//DTD SVG 1.1//EN" "http://www.w3.org/Graphics/SVG/1.1/DTD/svg11.dtd"><svg class="icon" width="200px" height="200.00px" viewBox="0 0 1024 1024" version="1.1" xmlns="http://www.w3.org/2000/svg"><path fill="currentColor" d="M857.09824 73.3696H177.84832c-56.54528 0-102.4 45.85472-102.4 102.4v679.24992c0 56.54528 45.85472 102.4 102.4 102.4h679.24992c56.54528 0 102.4-45.85472 102.4-102.4V175.7696c0-56.54528-45.84448-102.4-102.4-102.4z m30.72 781.64992c0 16.93696-13.78304 30.72-30.72 30.72H177.84832c-16.93696 0-30.72-13.78304-30.72-30.72V175.7696c0-16.93696 13.78304-30.72 30.72-30.72h679.24992c16.93696 0 30.72 13.78304 30.72 30.72v679.24992z"  /><path fill="currentColor" d="M815.28832 331.13088a35.84 35.84 0 0 1-35.84 35.84h-174.08a35.84 35.84 0 1 1 0-71.68h174.08a35.84 35.84 0 0 1 35.84 35.84zM815.28832 628.65408a35.84 35.84 0 0 1-35.84 35.84h-174.08a35.84 35.84 0 1 1 0-71.68h174.08a35.84 35.84 0 0 1 35.84 35.84zM815.28832 778.26048a35.84 35.84 0 0 1-35.84 35.84h-174.08a35.84 35.84 0 1 1 0-71.68h174.08a35.84 35.84 0 0 1 35.84 35.84zM465.41824 331.13088a35.84 35.84 0 0 1-35.84 35.84h-174.08a35.84 35.84 0 1 1 0-71.68h174.08a35.84 35.84 0 0 1 35.84 35.84z"  /><path fill="currentColor" d="M342.53824 454.01088a35.84 35.84 0 0 1-35.84-35.84v-174.08a35.84 35.84 0 1 1 71.68 0v174.08a35.84 35.84 0 0 1-35.84 35.84z"  /><path fill="currentColor" d="M451.15392 594.8416a35.84 35.84 0 0 1 0 50.67776L284.61056 812.06272a35.84 35.84 0 0 1-50.67776-50.67776L400.46592 594.8416a35.86048 35.86048 0 0 1 50.688 0z"  /><path fill="currentColor" d="M451.15392 812.06272a35.84 35.84 0 0 1-50.67776 0L233.9328 645.51936a35.84 35.84 0 0 1 50.67776-50.67776l166.54336 166.54336a35.84 35.84 0 0 1 0 50.67776z"  /></svg>