<?xml version="1.0" standalone="no"?><!DOCTYPE svg PUBLIC "-//W3C//DTD SVG 1.1//EN" "http://www.w3.org/Graphics/SVG/1.1/DTD/svg11.dtd"><svg class="icon" width="200px" height="200.00px" viewBox="0 0 1024 1024" version="1.1" xmlns="http://www.w3.org/2000/svg"><path fill="currentColor" d="M223.3344 502.54848l19.98848-31.76448a330.42432 330.42432 0 0 0-19.98848 31.76448zM788.43904 473.57952l15.616 24.80128a333.16864 333.16864 0 0 0-15.616-24.80128z"  /><path fill="currentColor" d="M844.01152 157.00992H192.41984c-56.55552 0-102.4 45.85472-102.4 102.4v576.84992c0 56.54528 45.84448 102.4 102.4 102.4h651.59168c56.54528 0 102.4-45.85472 102.4-102.4V259.40992c0-56.54528-45.85472-102.4-102.4-102.4z m30.72 679.24992c0 16.93696-13.78304 30.72-30.72 30.72H192.41984c-16.93696 0-30.72-13.78304-30.72-30.72V259.40992c0-16.93696 13.78304-30.72 30.72-30.72h651.59168c16.93696 0 30.72 13.78304 30.72 30.72v576.84992z"  /><path fill="currentColor" d="M825.41568 415.51872a35.84 35.84 0 0 1-35.84 35.84h-542.72a35.84 35.84 0 0 1-35.84-35.84c0-19.80416 16.03584-35.84 35.84-35.84h542.72a35.84 35.84 0 0 1 35.84 35.84zM324.93568 252.50816a35.84 35.84 0 1 1-71.68 0v-133.12a35.84 35.84 0 1 1 71.68 0v133.12zM783.17568 252.50816a35.84 35.84 0 1 1-71.68 0v-133.12a35.84 35.84 0 1 1 71.68 0v133.12z"  /></svg>