<?xml version="1.0" standalone="no"?><!DOCTYPE svg PUBLIC "-//W3C//DTD SVG 1.1//EN" "http://www.w3.org/Graphics/SVG/1.1/DTD/svg11.dtd"><svg class="icon" width="200px" height="200.00px" viewBox="0 0 1024 1024" version="1.1" xmlns="http://www.w3.org/2000/svg"><path fill="currentColor" d="M842.027385 262.266614H720.740849v-39.247946c0-59.102034-47.938792-107.030123-107.030123-107.030124H424.609904c-59.091331 0-107.030123 47.928089-107.030123 107.030124v39.247946H196.293246c-59.112737 0-107.030123 47.928089-107.030123 107.030123v431.695298c0 59.102034 47.917386 107.030123 107.030123 107.030124h645.734139c59.112737 0 107.030123-47.928089 107.030123-107.030124V369.296737c0-59.112737-47.917386-107.030123-107.030123-107.030123z m32.109037 538.725421c0 17.702782-14.406255 32.109037-32.109037 32.109037H196.293246c-17.702782 0-32.109037-14.406255-32.109037-32.109037V369.296737c0-17.702782 14.406255-32.109037 32.109037-32.109037h196.207622V223.018668c0-17.702782 14.406255-32.109037 32.109036-32.109037H613.710726c17.702782 0 32.109037 14.406255 32.109037 32.109037v114.169032h196.207622c17.702782 0 32.109037 14.406255 32.109037 32.109037v431.695298z"  /><path fill="currentColor" d="M519.171018 421.495328c-85.399335 0-154.615716 69.227084-154.615716 154.605013 0 85.399335 69.227084 154.615716 154.615716 154.615716s154.605013-69.227084 154.605013-154.615716c0-85.377929-69.227084-154.605013-154.605013-154.605013z m0 234.299642c-43.935866 0-79.69463-35.758764-79.694629-79.694629s35.758764-79.683927 79.694629-79.683927 79.683927 35.748061 79.683927 79.683927-35.748061 79.69463-79.683927 79.694629z"  /></svg>