<?xml version="1.0" standalone="no"?><!DOCTYPE svg PUBLIC "-//W3C//DTD SVG 1.1//EN" "http://www.w3.org/Graphics/SVG/1.1/DTD/svg11.dtd"><svg class="icon" width="200px" height="200.00px" viewBox="0 0 1024 1024" version="1.1" xmlns="http://www.w3.org/2000/svg"><path fill="currentColor" d="M958.52544 246.35392a35.584 35.584 0 0 0-5.72416-17.75616 36.864 36.864 0 0 0-4.58752-5.62176l-166.54336-166.53312a35.84 35.84 0 1 0-50.67776 50.688l101.9392 101.92896a323.14368 323.14368 0 0 0-48.14848-3.7376c-177.9712 0-322.27328 144.37376-322.54976 322.56h-0.18432c-0.16384 81.75616-39.76192 154.29632-100.61824 199.99744l-0.63488-0.21504a249.5488 249.5488 0 0 1-150.87616 50.57536c-36.47488 0-55.48032-0.38912-86.784-14.44864l-15.616 69.4272a321.69984 321.69984 0 0 0 102.4 16.70144 320.7168 320.7168 0 0 0 145.14176-34.56h1.35168c104.88832-53.00224 176.91648-161.50528 177.3056-286.95552h0.19456c0-138.55744 112.5376-251.2896 250.88-251.2896 18.15552 0 35.87072 1.97632 52.9408 5.6832l-106.73152 106.72128a35.84 35.84 0 0 0 50.67776 50.688l166.54336-166.53312a35.57376 35.57376 0 0 0 10.32192-23.5008c0.03072-0.62464 0.18432-1.2288 0.18432-1.85344-0.01024-0.6656-0.17408-1.31072-0.2048-1.96608z"  /><path fill="currentColor" d="M146.40128 798.94528a35.84 35.84 0 0 1-37.39648 34.21184c-19.78368-0.88064-35.13344-20.11136-34.2528-39.8848s17.664-32.60416 37.4272-31.72352a35.85024 35.85024 0 0 1 34.22208 37.39648zM429.04576 291.64544c0.14336-0.18432 0.19456-0.49152 0.4608-0.48128-59.0848-66.32448-123.79136-86.3744-219.58656-86.3744-35.80928 0-70.21568 5.92896-102.4 16.6912-18.9952 5.5808-42.40384 20.91008-35.26656 44.11392 6.13376 19.9168 22.48704 34.28352 41.97376 30.76096 1.66912-0.29696 3.328-0.84992 4.98688-1.35168l0.02048 0.13312c0.3072-0.14336 0.59392-0.24576 0.89088-0.37888 2.89792-0.95232 5.75488-2.08896 8.47872-3.60448 26.73664-10.9056 48.59904-14.68416 81.31584-14.68416 56.59648 0 118.85568 24.99584 160.88064 56.7296l0.03072-0.01024a35.76832 35.76832 0 0 0 29.36832 15.39072 35.84 35.84 0 0 0 35.84-35.84c0-7.91552-2.64192-15.17568-6.99392-21.0944zM958.58688 787.43552a35.7376 35.7376 0 0 0-5.77536-18.3808 36.38272 36.38272 0 0 0-4.58752-5.62176l-166.54336-166.53312a35.84 35.84 0 1 0-50.67776 50.688l118.46656 118.46656c-9.46176 1.09568-19.06688 1.72032-28.8256 1.72032-79.99488 0-151.30624-37.6832-197.28384-96.17408l-0.09216 0.09216a35.59424 35.59424 0 0 0-26.79808-12.26752 35.84 35.84 0 0 0-35.84 35.84c0 10.9056 4.97664 20.56192 12.66688 27.136 58.89024 73.45152 145.54112 117.05344 247.33696 117.05344l0.90112-0.03072-90.54208 90.54208a35.84 35.84 0 0 0 50.67776 50.688l166.54336-166.53312c6.67648-6.67648 10.07616-15.36 10.38336-24.1152 0.01024-0.4096 0.12288-0.8192 0.12288-1.2288 0-0.44032-0.12288-0.89088-0.13312-1.34144z"  /></svg>