<?xml version="1.0" standalone="no"?><!DOCTYPE svg PUBLIC "-//W3C//DTD SVG 1.1//EN" "http://www.w3.org/Graphics/SVG/1.1/DTD/svg11.dtd"><svg class="icon" width="200px" height="200.00px" viewBox="0 0 1024 1024" version="1.1" xmlns="http://www.w3.org/2000/svg"><path fill="currentColor" d="M506.905366 58.620398c-257.139871 0-465.581036 208.451868-465.581035 465.591739 0 257.129168 208.441165 465.581036 465.581035 465.581036s465.581036-208.451868 465.581036-465.581036c0-257.150574-208.430462-465.591739-465.581036-465.591739z m0 856.251688c-215.398123 0-390.659949-175.251124-390.659949-390.659949 0-215.419529 175.261827-390.659949 390.659949-390.659949 215.419529 0 390.659949 175.240421 390.65995 390.659949 0 215.408826-175.240421 390.659949-390.65995 390.659949z"  /><path fill="currentColor" d="M646.044526 618.666221a37.460543 37.460543 0 1 1-74.921086 0v-192.654222c0-20.699626 16.760917-37.460543 37.460543-37.460543s37.460543 16.760917 37.460543 37.460543v192.654222zM560.120743 495.849154l-98.382089-98.382089a37.460543 37.460543 0 1 0-52.969208 52.979911l71.902837 71.892134-71.902837 71.892134a37.460543 37.460543 0 0 0 52.969208 52.979911l98.382089-98.38209c7.32086-7.32086 10.970588-16.900056 10.970588-26.489955s-3.649727-19.179798-10.970588-26.489956z"  /></svg>