<?xml version="1.0" standalone="no"?><!DOCTYPE svg PUBLIC "-//W3C//DTD SVG 1.1//EN" "http://www.w3.org/Graphics/SVG/1.1/DTD/svg11.dtd"><svg class="icon" width="200px" height="200.00px" viewBox="0 0 1024 1024" version="1.1" xmlns="http://www.w3.org/2000/svg"><path fill="currentColor" d="M510.2233 57.582206c-257.129168 0-465.581036 208.451868-465.581036 465.581036 0 257.139871 208.451868 465.581036 465.581036 465.581035s465.581036-208.441165 465.581036-465.581035c0-257.129168-208.451868-465.581036-465.581036-465.581036z m0 856.240985c-215.408826 0-390.659949-175.240421-390.659949-390.659949 0-215.398123 175.251124-390.659949 390.659949-390.65995s390.659949 175.251124 390.659949 390.65995c0 215.419529-175.251124 390.659949-390.659949 390.659949z"  /><path fill="currentColor" d="M713.580534 485.702699h-165.896691v-165.896691a37.460543 37.460543 0 1 0-74.921086 0v165.896691h-165.896691a37.460543 37.460543 0 1 0 0 74.921086h165.896691v165.896691c0 20.699626 16.760917 37.460543 37.460543 37.460543s37.460543-16.760917 37.460543-37.460543v-165.896691h165.896691a37.460543 37.460543 0 1 0 0-74.921086z"  /></svg>