<?xml version="1.0" standalone="no"?><!DOCTYPE svg PUBLIC "-//W3C//DTD SVG 1.1//EN" "http://www.w3.org/Graphics/SVG/1.1/DTD/svg11.dtd"><svg class="icon" width="200px" height="200.00px" viewBox="0 0 1024 1024" version="1.1" xmlns="http://www.w3.org/2000/svg"><path fill="currentColor" d="M513.798106 46.408261c-257.129168 0-465.581036 208.451868-465.581036 465.581036s208.451868 465.581036 465.581036 465.581036 465.581036-208.451868 465.581036-465.581036-208.451868-465.581036-465.581036-465.581036z m0 856.251688c-215.408826 0-390.659949-175.251124-390.659949-390.659949s175.251124-390.659949 390.659949-390.659949 390.659949 175.251124 390.659949 390.659949-175.251124 390.659949-390.659949 390.659949z"  /><path fill="currentColor" d="M755.985869 341.715074a37.44984 37.44984 0 0 0-52.969208 0l-261.110689 261.099985-117.305015-117.294311a37.460543 37.460543 0 1 0-52.969208 52.97991l143.794971 143.794971a37.460543 37.460543 0 0 0 52.979911 0l287.579238-287.589941a37.471246 37.471246 0 0 0 0-52.990614z"  /></svg>