<?xml version="1.0" standalone="no"?><!DOCTYPE svg PUBLIC "-//W3C//DTD SVG 1.1//EN" "http://www.w3.org/Graphics/SVG/1.1/DTD/svg11.dtd"><svg class="icon" width="200px" height="200.00px" viewBox="0 0 1024 1024" version="1.1" xmlns="http://www.w3.org/2000/svg"><path fill="currentColor" d="M513.123816 48.195664c-257.129168 0-465.581036 208.451868-465.581035 465.581036s208.451868 465.570333 465.581035 465.570333 465.581036-208.441165 465.581036-465.570333-208.441165-465.581036-465.581036-465.581036z m0 856.240985c-215.408826 0-390.659949-175.240421-390.659949-390.649246s175.251124-390.659949 390.659949-390.659949 390.659949 175.251124 390.65995 390.659949-175.251124 390.649246-390.65995 390.649246z"  /><path fill="currentColor" d="M664.496519 362.4147a37.481949 37.481949 0 0 1 0 52.979911l-249.754792 249.744089a37.460543 37.460543 0 0 1-52.979911-52.969208l249.754792-249.754792a37.460543 37.460543 0 0 1 52.979911 0z"  /><path fill="currentColor" d="M664.496519 665.149403a37.460543 37.460543 0 0 1-52.979911 0l-249.754792-249.744089a37.460543 37.460543 0 1 1 52.979911-52.979911l249.754792 249.754792a37.460543 37.460543 0 0 1 0 52.969208z"  /></svg>