<?xml version="1.0" standalone="no"?><!DOCTYPE svg PUBLIC "-//W3C//DTD SVG 1.1//EN" "http://www.w3.org/Graphics/SVG/1.1/DTD/svg11.dtd"><svg class="icon" width="200px" height="200.00px" viewBox="0 0 1024 1024" version="1.1" xmlns="http://www.w3.org/2000/svg"><path fill="currentColor" d="M513.787403 55.976754c-257.129168 0-465.581036 208.451868-465.581036 465.591739 0 257.129168 208.451868 465.581036 465.581036 465.581036s465.581036-208.451868 465.581036-465.581036c0-257.139871-208.451868-465.591739-465.581036-465.591739z m0 856.251688c-215.408826 0-390.659949-175.251124-390.659949-390.659949 0-215.419529 175.251124-390.659949 390.659949-390.659949s390.659949 175.240421 390.659949 390.659949c0 215.408826-175.251124 390.659949-390.659949 390.659949z"  /><path fill="currentColor" d="M430.143362 358.850597l-136.238644 136.238644a37.460543 37.460543 0 0 0 0 52.969207l136.238644 136.238644a37.44984 37.44984 0 1 0 52.969208-52.969208l-72.266739-72.288145h296.345005a37.460543 37.460543 0 1 0 0-74.921086h-296.345005l72.266739-72.266739a37.471246 37.471246 0 0 0-52.969208-53.001317z"  /></svg>