<?xml version="1.0" standalone="no"?><!DOCTYPE svg PUBLIC "-//W3C//DTD SVG 1.1//EN" "http://www.w3.org/Graphics/SVG/1.1/DTD/svg11.dtd"><svg class="icon" width="200px" height="200.00px" viewBox="0 0 1024 1024" version="1.1" xmlns="http://www.w3.org/2000/svg"><path fill="currentColor" d="M513.798106 48.195664c-257.129168 0-465.581036 208.451868-465.581036 465.581036s208.451868 465.581036 465.581036 465.581036 465.581036-208.451868 465.581036-465.581036-208.451868-465.581036-465.581036-465.581036z m0 856.240985c-215.408826 0-390.659949-175.251124-390.659949-390.659949s175.251124-390.659949 390.659949-390.659949 390.659949 175.251124 390.659949 390.659949-175.251124 390.659949-390.659949 390.659949z"  /><path fill="currentColor" d="M520.958421 353.85229c-1.487719-0.278278-2.996843-0.32109-4.505968-0.42812-0.88835-0.064218-1.765997-0.256872-2.654347-0.256873-0.920459 0-1.819512 0.203357-2.739971 0.256873-1.487719 0.117733-2.964734 0.149842-4.420344 0.42812-0.449527 0.096327-0.877647 0.288981-1.327174 0.396012a37.075235 37.075235 0 0 0-12.126513 5.094633 37.032423 37.032423 0 0 0-5.875953 4.79495l-174.073793 174.073792a37.44984 37.44984 0 1 0 52.969208 52.969208l147.583837-147.583837 147.583837 147.583837a37.44984 37.44984 0 1 0 52.969208-52.969208l-174.073792-174.073792a37.182265 37.182265 0 0 0-18.633945-10.071535c-0.224763-0.064218-0.449527-0.181951-0.67429-0.21406z"  /></svg>