<?xml version="1.0" standalone="no"?><!DOCTYPE svg PUBLIC "-//W3C//DTD SVG 1.1//EN" "http://www.w3.org/Graphics/SVG/1.1/DTD/svg11.dtd"><svg class="icon" width="200px" height="200.00px" viewBox="0 0 1024 1024" version="1.1" xmlns="http://www.w3.org/2000/svg"><path fill="currentColor" d="M513.798106 48.195664c-257.129168 0-465.581036 208.451868-465.581036 465.581036s208.451868 465.581036 465.581036 465.581036 465.581036-208.451868 465.581036-465.581036-208.451868-465.581036-465.581036-465.581036z m0 856.240985c-215.408826 0-390.659949-175.251124-390.659949-390.659949s175.251124-390.659949 390.659949-390.659949 390.659949 175.251124 390.659949 390.659949-175.251124 390.659949-390.659949 390.659949z"  /><path fill="currentColor" d="M659.005874 520.937015c0.278278-1.487719 0.32109-2.996843 0.428121-4.505968 0.064218-0.88835 0.256872-1.765997 0.256872-2.654347 0-0.920459-0.203357-1.819512-0.256872-2.739971-0.117733-1.477016-0.149842-2.954031-0.428121-4.420344-0.096327-0.449527-0.288981-0.877647-0.396011-1.337877a37.075235 37.075235 0 0 0-5.094634-12.126513 37.524761 37.524761 0 0 0-4.79495-5.875953L474.65719 313.223655a37.44984 37.44984 0 1 0-52.969208 52.979911l147.583837 147.583837-147.59454 147.573134a37.44984 37.44984 0 1 0 52.969208 52.969208l174.073792-174.073792a37.182265 37.182265 0 0 0 10.071535-18.633945c0.064218-0.235466 0.171248-0.46023 0.21406-0.684993z"  /></svg>