<?xml version="1.0" standalone="no"?><!DOCTYPE svg PUBLIC "-//W3C//DTD SVG 1.1//EN" "http://www.w3.org/Graphics/SVG/1.1/DTD/svg11.dtd"><svg class="icon" width="200px" height="200.00px" viewBox="0 0 1024 1024" version="1.1" xmlns="http://www.w3.org/2000/svg"><path fill="currentColor" d="M513.6896 66.56C267.69408 66.56 68.25984 265.99424 68.25984 511.98976c0 246.02624 199.43424 445.45024 445.42976 445.45024 246.016 0 445.46048-199.424 445.46048-445.45024C959.15008 265.99424 759.7056 66.56 513.6896 66.56z m0 819.2c-206.08 0-373.76-167.65952-373.76-373.77024 0-206.08 167.68-373.74976 373.76-373.74976 206.10048 0 373.78048 167.66976 373.78048 373.74976 0 206.11072-167.68 373.77024-373.78048 373.77024z"  /><path fill="currentColor" d="M513.69984 746.50624m-76.8 0a76.8 76.8 0 1 0 153.6 0 76.8 76.8 0 1 0-153.6 0Z"  /><path fill="currentColor" d="M549.53984 574.45376a35.84 35.84 0 0 1-35.84 35.84 35.82976 35.82976 0 0 1-35.84-35.84V236.52352a35.84 35.84 0 1 1 71.68 0v337.93024z"  /></svg>