<?xml version="1.0" standalone="no"?><!DOCTYPE svg PUBLIC "-//W3C//DTD SVG 1.1//EN" "http://www.w3.org/Graphics/SVG/1.1/DTD/svg11.dtd"><svg class="icon" width="200px" height="200.00px" viewBox="0 0 1024 1024" version="1.1" xmlns="http://www.w3.org/2000/svg"><path fill="currentColor" d="M520.926312 57.121977c-257.139871 0-465.581036 208.451868-465.581035 465.581035 0 257.139871 208.441165 465.581036 465.581035 465.581036s465.581036-208.441165 465.581036-465.581036-208.441165-465.581036-465.581036-465.581035z m0 856.240985c-215.398123 0-390.659949-175.240421-390.659949-390.65995 0-215.408826 175.261827-390.649246 390.659949-390.649246 215.419529 0 390.659949 175.240421 390.65995 390.649246 0 215.419529-175.240421 390.659949-390.65995 390.65995z"  /><path fill="currentColor" d="M396.760666 619.030123c0 20.699626 16.760917 37.460543 37.460544 37.460543s37.460543-16.760917 37.460543-37.460543v-192.654222c0-20.699626-16.760917-37.460543-37.460543-37.460543a37.44984 37.44984 0 0 0-37.460544 37.460543v192.654222zM482.695152 496.213057l98.371386-98.392792a37.460543 37.460543 0 1 1 52.969208 52.979911l-71.892133 71.892133 71.892133 71.892134a37.471246 37.471246 0 0 1-52.969208 52.990614l-98.371386-98.392792c-7.32086-7.32086-10.970588-16.889353-10.970587-26.489956s3.649727-19.158392 10.970587-26.479252z"  /></svg>