<?xml version="1.0" standalone="no"?><!DOCTYPE svg PUBLIC "-//W3C//DTD SVG 1.1//EN" "http://www.w3.org/Graphics/SVG/1.1/DTD/svg11.dtd"><svg class="icon" width="200px" height="200.00px" viewBox="0 0 1024 1024" version="1.1" xmlns="http://www.w3.org/2000/svg"><path fill="currentColor" d="M513.798106 48.195664c-257.129168 0-465.581036 208.451868-465.581036 465.581036s208.451868 465.581036 465.581036 465.581036 465.581036-208.451868 465.581036-465.581036-208.451868-465.581036-465.581036-465.581036z m0 856.240985c-215.408826 0-390.659949-175.251124-390.659949-390.659949s175.251124-390.659949 390.659949-390.659949 390.659949 175.251124 390.659949 390.659949-175.251124 390.659949-390.659949 390.659949z"  /><path fill="currentColor" d="M385.54391 506.616385c-0.278278 1.487719-0.32109 2.996843-0.428121 4.505968-0.064218 0.88835-0.256872 1.765997-0.256872 2.654347 0 0.920459 0.203357 1.830215 0.256872 2.750674 0.117733 1.477016 0.149842 2.954031 0.428121 4.409641 0.096327 0.449527 0.288981 0.877647 0.396011 1.337877 0.984677 4.238393 2.611535 8.359053 5.094634 12.126513 1.369986 2.065681 2.964734 4.045739 4.794949 5.875954l174.073793 174.063089a37.44984 37.44984 0 1 0 52.969208-52.969208l-147.583837-147.583837 147.583837-147.583837a37.44984 37.44984 0 1 0-52.969208-52.969208L395.829504 487.308151a37.182265 37.182265 0 0 0-10.071534 18.633944c-0.064218 0.224763-0.181951 0.438824-0.21406 0.67429z"  /></svg>