<?xml version="1.0" standalone="no"?><!DOCTYPE svg PUBLIC "-//W3C//DTD SVG 1.1//EN" "http://www.w3.org/Graphics/SVG/1.1/DTD/svg11.dtd"><svg class="icon" width="200px" height="200.00px" viewBox="0 0 1024 1024" version="1.1" xmlns="http://www.w3.org/2000/svg"><path fill="currentColor" d="M621.737985 565.996697l-83.24803-83.24803a37.278592 37.278592 0 0 0-19.32964-10.285594c-1.648264-0.32109-3.33934-0.385308-4.998307-0.481636-0.727805-0.042812-1.444907-0.21406-2.162008-0.21406-0.631478 0-1.252252 0.160545-1.88373 0.181951-8.947718 0.46023-17.767 3.960115-24.606225 10.799339l-83.24803 83.24803a37.460543 37.460543 0 0 0 52.969208 52.969208l19.308234-19.308234v288.339152c0 20.699626 16.760917 37.460543 37.460543 37.460543s37.460543-16.760917 37.460543-37.460543v-288.339152l19.308234 19.308234a37.44984 37.44984 0 1 0 52.969208-52.969208z"  /><path fill="currentColor" d="M875.431486 389.964254v-28.320171c0-139.396032-117.187282-252.398436-261.763572-252.398436-92.110124 0-173.057006 45.915923-219.700734 115.271442-116.512992 3.317934-210.335598 88.235634-215.901164 194.580764-79.790957 15.77624-140.145243 88.4711-140.145243 175.91471 0 98.949349 77.265046 179.168426 172.586073 179.168427h102.36361v-74.921087h-102.36361c-53.857558 0-97.664987-46.761461-97.664987-104.24734 0-50.197128 33.543241-93.276752 79.748145-102.406421l57.239709-11.313084 3.050359-58.277902c3.510588-67.11859 66.412191-121.414972 143.206305-123.587684l38.530844-1.10241 21.523758-31.980601c34.602839-51.460083 93.490813-82.167026 157.537638-82.167025 103.027197 0 186.842486 79.609006 186.842486 177.47735v74.064845l40.68215 20.902983c43.143843 22.165938 69.954888 65.930556 69.954888 114.201142 0 70.821832-57.614315 128.436148-128.436148 128.436147h-71.603152v74.921087h71.603152c112.306708 0 203.357234-91.050526 203.357234-203.357234-0.010703-78.891904-45.006167-147.13431-110.647741-180.859502z"  /></svg>