<?xml version="1.0" standalone="no"?><!DOCTYPE svg PUBLIC "-//W3C//DTD SVG 1.1//EN" "http://www.w3.org/Graphics/SVG/1.1/DTD/svg11.dtd"><svg class="icon" width="200px" height="200.00px" viewBox="0 0 1024 1024" version="1.1" xmlns="http://www.w3.org/2000/svg"><path fill="currentColor" d="M994.074378 388.63708c-6.946255-26.061835-29.529611-45.156009-55.57004-48.634488l-248.352698-43.422121-111.161486-225.758639c-10.414031-24.317244-36.465163-39.943642-62.526998-39.943641-26.051132 0-50.357673 15.626398-62.516295 39.943641L342.796078 296.580471l-248.341994 45.166712c-27.795723 3.467776-48.634488 22.572653-57.314631 48.623785-6.935552 24.306541 0 53.836152 19.104877 72.941029l178.890147 166.731526-46.900599 243.140331c-5.201664 26.051132 6.946255 53.846855 27.795723 69.462549 20.838765 15.637101 50.368376 17.370989 72.930325 5.22307l227.513933-112.906076 225.790748 112.906076c10.424734 5.201664 22.572653 8.680143 32.997387 8.680143 15.626398 0 29.518908-5.201664 39.932939-13.903213 20.838765-15.615695 32.997387-41.688233 27.795723-69.462549l-45.156009-243.140331 178.879445-168.465414c19.094174-19.104877 26.051132-46.889897 17.360286-72.941029z m-277.379268 214.895081l50.732279 273.162281-250.8465-125.428602-252.740932 125.428602 52.701632-273.172984-202.897004-189.111524 279.691117-50.860715L516.463156 113.451931l123.287999 250.38627 279.573385 48.880657-202.62943 190.813303z"  /></svg>