<?xml version="1.0" standalone="no"?><!DOCTYPE svg PUBLIC "-//W3C//DTD SVG 1.1//EN" "http://www.w3.org/Graphics/SVG/1.1/DTD/svg11.dtd"><svg class="icon" width="200px" height="200.00px" viewBox="0 0 1024 1024" version="1.1" xmlns="http://www.w3.org/2000/svg"><path fill="currentColor" d="M809.86112 121.16992h-73.66656v-11.93984a51.2 51.2 0 0 0-51.2-51.2h-336.20992a51.2 51.2 0 0 0-51.2 51.2v11.93984h-73.6768c-56.55552 0-102.4 45.85472-102.4 102.4v638.30016c0 56.54528 45.84448 102.4 102.4 102.4h585.96352c56.54528 0 102.4-45.85472 102.4-102.4V223.56992c-0.01024-56.55552-45.85472-102.4-102.41024-102.4z m-440.59648 8.54016h295.24992v63.13984h-295.24992v-63.13984z m471.31648 732.16c0 16.93696-13.78304 30.72-30.72 30.72h-585.96352c-16.93696 0-30.72-13.78304-30.72-30.72V223.56992c0-16.93696 13.78304-30.72 30.72-30.72h73.6768v20.48a51.2 51.2 0 0 0 51.2 51.2h336.20992a51.2 51.2 0 0 0 51.2-51.2v-20.48h73.66656c16.93696 0 30.72 13.78304 30.72 30.72v638.30016z"  /><path fill="currentColor" d="M690.66752 456.6528a35.86048 35.86048 0 0 0-50.688 0l-177.38752 177.39776-68.78208-68.78208a35.84 35.84 0 0 0-50.688 50.67776l94.12608 94.12608a35.84 35.84 0 0 0 50.688 0l202.73152-202.74176a35.84 35.84 0 0 0 0-50.67776z"  /></svg>