<?xml version="1.0" standalone="no"?><!DOCTYPE svg PUBLIC "-//W3C//DTD SVG 1.1//EN" "http://www.w3.org/Graphics/SVG/1.1/DTD/svg11.dtd"><svg class="icon" width="200px" height="200.00px" viewBox="0 0 1024 1024" version="1.1" xmlns="http://www.w3.org/2000/svg"><path fill="currentColor" d="M952.771453 392.672116l0.010703-226.754019a53.515062 53.515062 0 0 0-53.515061-53.515062h-770.916571a53.515062 53.515062 0 0 0-53.515062 53.515062v226.914564c65.352593 1.744591 117.840166 55.152622 117.840166 120.933336s-52.476869 119.199448-117.840166 120.933336v226.914564a53.515062 53.515062 0 0 0 53.515062 53.515062h770.916571a53.515062 53.515062 0 0 0 53.515061-53.515062v-226.754019h-0.010703c-66.872421 0-121.083178-54.22146-121.083178-121.093881s54.210757-121.093881 121.083178-121.093881z m-74.921086 302.242364l0.010703 145.304096h-728.104522v-146.502833c69.794343-29.957731 117.840166-98.938646 117.840166-179.939043 0-80.989694-48.056525-149.992015-117.840166-179.939043v-146.502832h728.104522v145.304095c-71.02519 29.486799-121.093881 99.580827-121.093881 181.13778-0.010703 81.567657 50.068692 151.661684 121.083178 181.13778z"  /><path fill="currentColor" d="M456.708238 639.537095a37.460543 37.460543 0 1 1-74.921086 0v-251.52079a37.460543 37.460543 0 0 1 74.921086 0v251.52079z"  /></svg>