<?xml version="1.0" standalone="no"?><!DOCTYPE svg PUBLIC "-//W3C//DTD SVG 1.1//EN" "http://www.w3.org/Graphics/SVG/1.1/DTD/svg11.dtd"><svg class="icon" width="200px" height="200.00px" viewBox="0 0 1024 1024" version="1.1" xmlns="http://www.w3.org/2000/svg"><path fill="currentColor" d="M875.80672 333.5168l-141.5168 63.22176-93.37856-116.10112a145.27488 145.27488 0 0 0 18.30912-70.7584c0-80.55808-65.32096-145.87904-145.88928-145.87904s-145.87904 68.99712-145.87904 149.56544c0 25.14944 6.36928 52.67456 17.57184 73.15456l-95.31392 113.70496-141.5168-65.06496C31.34464 287.1808 31.34464 395.58144 31.34464 395.58144s94.3616 428.67712 113.8176 503.69536c19.456 75.02848 97.25952 63.2832 97.25952 63.2832H781.59872s77.80352 11.28448 97.24928-63.744S992.6656 394.57792 992.6656 394.57792s-0.01024-109.24032-116.85888-61.06112z m-66.3552 547.31776c-1.78176 6.87104-2.7648 10.6496-17.05984 10.6496l-1.34144-0.02048-6.05184-1.19808-3.40992 0.6144H235.19232l-2.77504 0.64512c-0.4096 0.02048-0.88064 0.03072-1.42336 0.03072-13.78304 0-14.67392-3.4304-16.4352-10.26048-16.7936-64.75776-92.35456-406.60992-109.66016-485.07904 3.79904 0.95232 8.67328 2.46784 14.77632 4.92544l189.82912 87.27552 161.91488-193.15712-23.49056-42.93632c-4.37248-7.97696-8.77568-23.06048-8.77568-38.74816 0-42.21952 33.97632-77.88544 74.19904-77.88544 40.91904 0 74.20928 33.28 74.20928 74.19904a73.30816 73.30816 0 0 1-9.29792 35.96288l-23.3984 42.1376 158.22848 196.74112 190.93504-85.27872a112.05632 112.05632 0 0 1 15.3088-5.12c-16.92672 76.7488-93.0304 421.48864-109.88544 486.5024z"  /><path fill="currentColor" d="M512 496.64c-84.82816 0-153.6 68.77184-153.6 153.6s68.77184 153.6 153.6 153.6 153.6-68.77184 153.6-153.6-68.77184-153.6-153.6-153.6z m0 235.52c-45.16864 0-81.92-36.75136-81.92-81.92s36.75136-81.92 81.92-81.92 81.92 36.75136 81.92 81.92-36.75136 81.92-81.92 81.92z"  /></svg>