<?xml version="1.0" standalone="no"?><!DOCTYPE svg PUBLIC "-//W3C//DTD SVG 1.1//EN" "http://www.w3.org/Graphics/SVG/1.1/DTD/svg11.dtd"><svg class="icon" width="200px" height="200.00px" viewBox="0 0 1024 1024" version="1.1" xmlns="http://www.w3.org/2000/svg"><path fill="currentColor" d="M507.09504 66.56c-246.00576 0-445.44 199.43424-445.44 445.44s199.43424 445.44 445.44 445.44 445.44-199.43424 445.44-445.44-199.43424-445.44-445.44-445.44z m0 819.2c-206.09024 0-373.76-167.66976-373.76-373.76s167.66976-373.76 373.76-373.76 373.76 167.66976 373.76 373.76-167.68 373.76-373.76 373.76z"  /><path fill="currentColor" d="M363.7248 327.9872a90.7264 90.7264 0 1 0 0 181.44256 90.7264 90.7264 0 0 0 0-181.44256z m0 130.2528a39.55712 39.55712 0 0 1-39.51616-39.51616 39.55712 39.55712 0 0 1 39.51616-39.5264 39.55712 39.55712 0 0 1 39.51616 39.5264 39.55712 39.55712 0 0 1-39.51616 39.51616zM660.69504 327.9872a90.7264 90.7264 0 1 0 0 181.44256 90.7264 90.7264 0 0 0 0-181.44256z m0 130.2528a39.56736 39.56736 0 0 1-39.51616-39.51616 39.56736 39.56736 0 0 1 39.51616-39.5264 39.55712 39.55712 0 0 1 39.51616 39.5264 39.54688 39.54688 0 0 1-39.51616 39.51616zM711.89504 717.09696c0 19.79392-16.04608 36.05504-35.84 36.05504a35.5328 35.5328 0 0 1-24.39168-9.60512l-0.0512 0.11264-0.12288-0.17408a35.67616 35.67616 0 0 1-8.82688-13.2096c-31.56992-43.008-84.11136-69.9392-138.97728-69.9392-57.11872 0-105.22624 30.93504-135.81312 77.19936-0.02048 0.02048-0.03072-0.21504-0.0512-0.19456-0.04096 0.08192-0.08192-0.06144-0.12288-0.06144h-0.02048c-6.46144 10.24-17.27488 15.85152-29.55264 15.85152a35.7376 35.7376 0 0 1-35.84-35.71712c0-8.7552 3.2768-16.62976 8.50944-22.86592l-0.11264-0.07168c43.71456-63.11936 112.71168-106.25024 193.00352-106.25024C586.61888 588.22656 662.272 624.64 705.536 696.32h-0.02048c4.00384 0 6.37952 13.21984 6.37952 20.77696z"  /></svg>