<?xml version="1.0" standalone="no"?><!DOCTYPE svg PUBLIC "-//W3C//DTD SVG 1.1//EN" "http://www.w3.org/Graphics/SVG/1.1/DTD/svg11.dtd"><svg class="icon" width="200px" height="200.00px" viewBox="0 0 1024 1024" version="1.1" xmlns="http://www.w3.org/2000/svg"><path fill="currentColor" d="M828.177687 80.679307H193.135857c-59.102034 0-107.030123 47.938792-107.030123 107.030123v645.755545c0 59.112737 47.928089 107.030123 107.030123 107.030123h635.04183c59.102034 0 107.030123-47.917386 107.030123-107.030123V187.70943c0-59.091331-47.928089-107.030123-107.030123-107.030123z m32.109037 752.785668c0 17.702782-14.406255 32.109037-32.109037 32.109037H193.135857c-17.702782 0-32.109037-14.406255-32.109037-32.109037V187.70943c0-17.702782 14.406255-32.109037 32.109037-32.109037h635.04183c17.702782 0 32.109037 14.406255 32.109037 32.109037v645.755545z"  /><path fill="currentColor" d="M361.708301 687.197609a37.460543 37.460543 0 0 1-74.921086 0v-192.654222a37.460543 37.460543 0 1 1 74.921086 0v192.654222zM548.122667 687.197609a37.460543 37.460543 0 0 1-74.921087 0v-353.199407a37.460543 37.460543 0 1 1 74.921087 0v353.199407zM734.537032 687.197609a37.460543 37.460543 0 0 1-74.921086 0v-246.169284a37.460543 37.460543 0 1 1 74.921086 0v246.169284z"  /></svg>