<?xml version="1.0" standalone="no"?><!DOCTYPE svg PUBLIC "-//W3C//DTD SVG 1.1//EN" "http://www.w3.org/Graphics/SVG/1.1/DTD/svg11.dtd"><svg class="icon" width="200px" height="200.00px" viewBox="0 0 1024 1024" version="1.1" xmlns="http://www.w3.org/2000/svg"><path fill="currentColor" d="M183.770721 220.417836v534.10172c0 118.225474 95.834772 214.060246 214.060247 214.060246h235.466271c118.225474 0 214.060246-95.834772 214.060246-214.060246V220.417836h-663.586764z m588.665678 534.10172c0 76.719192-62.419968 139.13916-139.13916 139.13916h-235.466271c-76.719192 0-139.13916-62.419968-139.13916-139.13916V295.338922h513.744591v459.180634z"  /><path fill="currentColor" d="M943.684596 257.878379a37.460543 37.460543 0 0 1-37.460543 37.460543h-781.319899a37.460543 37.460543 0 1 1 0-74.921086h781.319899a37.460543 37.460543 0 0 1 37.460543 37.460543z"  /><path fill="currentColor" d="M478.10356 717.583461a37.460543 37.460543 0 1 1-74.921086 0v-246.169284a37.460543 37.460543 0 1 1 74.921086 0v246.169284zM627.945732 717.583461a37.460543 37.460543 0 1 1-74.921086 0v-246.169284a37.460543 37.460543 0 1 1 74.921086 0v246.169284z"  /><path fill="currentColor" d="M502.185338 70.051216c-99.013567 0-179.275456 89.123984-179.275457 199.076029 0 8.904906 0.706399 17.617158 1.733888 26.211677h355.083137c1.027489-8.605222 1.733888-17.306771 1.733888-26.211677 0-109.952045-80.261889-199.076029-179.275456-199.076029z m-95.984615 150.36662c15.936785-44.321174 52.958505-75.445534 95.984615-75.445534s80.047829 31.12436 95.984614 75.445534H406.200723z"  /></svg>