<?xml version="1.0" standalone="no"?><!DOCTYPE svg PUBLIC "-//W3C//DTD SVG 1.1//EN" "http://www.w3.org/Graphics/SVG/1.1/DTD/svg11.dtd"><svg class="icon" width="200px" height="200.00px" viewBox="0 0 1024 1024" version="1.1" xmlns="http://www.w3.org/2000/svg"><path fill="currentColor" d="M516.47488 73.30816c-246.00576 0-445.44 199.43424-445.44 445.44s199.43424 445.44 445.44 445.44 445.44-199.43424 445.44-445.44-199.424-445.44-445.44-445.44z m0 819.2c-206.09024 0-373.76-167.66976-373.76-373.76s167.66976-373.76 373.76-373.76 373.76 167.66976 373.76 373.76-167.66976 373.76-373.76 373.76z"  /><path fill="currentColor" d="M627.59936 296.69376c-28.4672-25.15968-64.1024-37.76512-106.88512-37.76512-21.17632 0-41.27744 3.29728-60.33408 9.8816a151.88992 151.88992 0 0 0-51.85536 30.68928c-15.52384 13.88544-26.80832 29.63456-33.87392 47.26784-7.04512 17.64352-11.04896 43.37664-11.99104 77.24032v0.01024a26.8288 26.8288 0 0 0 53.63712-0.01024l-0.01024-0.17408c0.0512-77.4656 34.36544-116.224 102.98368-116.224 31.04768 0 54.56896 8.23296 70.57408 24.68864 15.99488 16.46592 23.99232 35.39968 23.99232 56.80128s-4.83328 37.28384-14.46912 47.616a3967.5392 3967.5392 0 0 1-47.616 49.73568c-22.1184 22.82496-36.21888 40.09984-42.33216 51.83488-6.12352 11.76576-11.28448 25.51808-15.53408 41.28768-3.85024 14.3872-5.85728 33.41312-6.1952 56.61696-0.08192 0.8192-0.24576 1.60768-0.24576 2.4576 0 0.53248 0.13312 1.05472 0.16384 1.5872-0.01024 0.84992-0.0512 1.60768-0.0512 2.46784h0.29696a27.96544 27.96544 0 0 0 27.63776 23.99232 28.06784 28.06784 0 0 0 28.0576-28.04736c0-2.3552-0.37888-4.59776-0.9216-6.78912 0.22528-17.47968 1.91488-31.98976 5.24288-43.13088 3.9936-13.4144 9.8816-24.9344 17.63328-34.56 7.77216-9.63584 23.52128-25.856 47.26784-48.68096 23.74656-22.81472 39.28064-41.87136 46.57152-57.14944s10.93632-32.33792 10.93632-51.13856c0-41.8304-14.2336-75.34592-42.68032-100.5056z"  /><path fill="currentColor" d="M515.49184 739.08224m-39.4752 0a39.4752 39.4752 0 1 0 78.9504 0 39.4752 39.4752 0 1 0-78.9504 0Z"  /></svg>