<?xml version="1.0" standalone="no"?><!DOCTYPE svg PUBLIC "-//W3C//DTD SVG 1.1//EN" "http://www.w3.org/Graphics/SVG/1.1/DTD/svg11.dtd"><svg class="icon" width="200px" height="200.00px" viewBox="0 0 1024 1024" version="1.1" xmlns="http://www.w3.org/2000/svg"><path fill="currentColor" d="M914.722244 901.182934a37.460543 37.460543 0 0 1-37.460543 37.460543h-738.507849a37.460543 37.460543 0 1 1 0-74.921086h738.507849c20.67822 0 37.460543 16.782323 37.460543 37.460543zM762.375567 483.422957a37.460543 37.460543 0 0 0-52.979911 0l-185.793591 185.814997v-539.292682a37.460543 37.460543 0 1 0-74.921086 0v539.292682l-185.793591-185.814997a37.460543 37.460543 0 0 0-52.979911 52.990614l249.754793 249.744089a37.267889 37.267889 0 0 0 25.194891 10.852855c0.438824 0.010703 0.856241 0.128436 1.295064 0.128436 0.470933 0 0.941865-0.128436 1.412798-0.139139a37.214374 37.214374 0 0 0 25.077158-10.842152l249.754792-249.744089a37.481949 37.481949 0 0 0-0.021406-52.990614z"  /></svg>