<?xml version="1.0" standalone="no"?><!DOCTYPE svg PUBLIC "-//W3C//DTD SVG 1.1//EN" "http://www.w3.org/Graphics/SVG/1.1/DTD/svg11.dtd"><svg class="icon" width="200px" height="200.00px" viewBox="0 0 1024 1024" version="1.1" xmlns="http://www.w3.org/2000/svg"><path fill="currentColor" d="M829.494157 487.800489C816.051174 295.103455 655.591613 142.928026 459.480319 142.928026c-204.909171 0-371.030625 166.121454-371.030625 371.030625S254.571148 884.999979 459.480319 884.999979h289.077659c114.243953 0 206.82501-92.59176 206.82501-206.82501 0-85.517068-51.888204-158.875515-125.888831-190.37448z m-80.946882 322.278404H459.480319c-163.26375 0-296.109539-132.835086-296.109539-296.109539S296.216569 217.849113 459.480319 217.849113c154.829776 0 284.528879 120.858415 295.285406 275.15304l3.178795 45.766081 42.223384 17.970357a131.775488 131.775488 0 0 1 80.293998 121.425675c0 72.737672-59.176955 131.914627-131.914627 131.914627z"  /><path fill="currentColor" d="M549.214374 528.23647a37.460543 37.460543 0 1 1 52.979911 52.969208l-98.382089 98.382089a37.460543 37.460543 0 0 1-52.979911-52.969208l98.382089-98.382089z"  /><path fill="currentColor" d="M503.812196 626.618559a37.460543 37.460543 0 1 1-52.979911 52.969208l-98.38209-98.382089a37.44984 37.44984 0 1 1 52.969208-52.969208l98.392793 98.382089z"  /><path fill="currentColor" d="M514.793486 653.108514a37.460543 37.460543 0 1 1-74.921086 0v-299.684344a37.460543 37.460543 0 1 1 74.921086 0v299.684344z"  /></svg>