<?xml version="1.0" standalone="no"?><!DOCTYPE svg PUBLIC "-//W3C//DTD SVG 1.1//EN" "http://www.w3.org/Graphics/SVG/1.1/DTD/svg11.dtd"><svg class="icon" width="200px" height="200.00px" viewBox="0 0 1024 1024" version="1.1" xmlns="http://www.w3.org/2000/svg"><path fill="currentColor" d="M804.556139 132.364153h-58.866568v0.085624a37.407028 37.407028 0 0 0-36.572193 37.374919 37.407028 37.407028 0 0 0 36.572193 37.364216v0.096327h58.866568c47.210987 0 85.624099 38.402408 85.624098 85.624099v524.811506c0 47.210987-38.413111 85.624099-85.624098 85.624098h-577.962665c-47.210987 0-85.624099-38.413111-85.624099-85.624098v-524.811506c0-47.22169 38.413111-85.624099 85.624099-85.624099h58.866567v-0.631477a37.396325 37.396325 0 0 0 31.209984-36.829066 37.374919 37.374919 0 0 0-31.209984-36.829065v-0.631478h-58.866567c-88.663754 0-160.545185 71.870728-160.545185 160.545185v524.811506c0 88.663754 71.881431 160.545185 160.545185 160.545184h577.962665c88.663754 0 160.545185-71.881431 160.545184-160.545184v-524.811506c0-88.674457-71.881431-160.545185-160.545184-160.545185z"  /><path fill="currentColor" d="M640.446851 439.219516l-98.382089 98.392792a37.44984 37.44984 0 0 1-40.25403 8.316241c-0.10703-0.042812-0.224763-0.053515-0.331793-0.10703-0.631478-0.246169-1.20944-0.663587-1.830215-0.963271a37.246483 37.246483 0 0 1-10.55317-7.256643l-98.38209-98.392792a37.460543 37.460543 0 0 1 52.969208-52.969208l34.442294 34.442294v-337.498087a37.460543 37.460543 0 1 1 74.921086 0v337.498087l34.442294-34.442294a37.44984 37.44984 0 1 1 52.958505 52.979911z"  /></svg>