<?xml version="1.0" standalone="no"?><!DOCTYPE svg PUBLIC "-//W3C//DTD SVG 1.1//EN" "http://www.w3.org/Graphics/SVG/1.1/DTD/svg11.dtd"><svg class="icon" width="200px" height="200.00px" viewBox="0 0 1024 1024" version="1.1" xmlns="http://www.w3.org/2000/svg"><path fill="currentColor" d="M802.84672 78.92992H235.8784L54.96832 292.25984v557.24032c0 56.53504 45.84448 102.4 102.4 102.4h723.97824c56.54528 0 102.4-45.86496 102.4-102.4V292.25984L802.84672 78.92992z m109.21984 770.57024c0 16.93696-13.78304 30.72-30.72 30.72H157.36832c-16.93696 0-30.72-13.78304-30.72-30.72v-530.944l142.42816-167.95648h500.57216l142.41792 167.95648v530.944z"  /><path fill="currentColor" d="M983.74656 314.368H631.6544c0 48.00512-39.03488 87.04-87.04 87.04s-87.04-39.03488-87.04-87.04H54.96832v71.68h348.16c26.20416 51.59936 79.64672 87.04 141.47584 87.04 61.83936 0 115.28192-35.44064 141.47584-87.04h297.65632v-71.68zM983.74656 616.5504H631.6544c0 48.00512-39.03488 87.04-87.04 87.04s-87.04-39.03488-87.04-87.04H54.96832v71.68h348.16c26.20416 51.59936 79.64672 87.04 141.47584 87.04 61.83936 0 115.28192-35.44064 141.47584-87.04h297.65632v-71.68z"  /></svg>