<?xml version="1.0" standalone="no"?><!DOCTYPE svg PUBLIC "-//W3C//DTD SVG 1.1//EN" "http://www.w3.org/Graphics/SVG/1.1/DTD/svg11.dtd"><svg class="icon" width="200px" height="200.00px" viewBox="0 0 1024 1024" version="1.1" xmlns="http://www.w3.org/2000/svg"><path fill="currentColor" d="M143.36 317.44V177.48992C143.36 160.55296 157.14304 143.36 174.08 143.36h143.36V71.68H174.08C117.52448 71.68 71.68 120.9344 71.68 177.48992V317.44h71.68zM890.88 716.8v146.76992C890.88 880.50688 877.09696 890.88 860.16 890.88H716.8v71.68h143.36c56.54528 0 102.4-42.4448 102.4-98.99008V716.8h-71.68zM716.8 143.36h143.36c16.93696 0 30.72 17.19296 30.72 34.12992V317.44h71.68V177.48992C962.56 120.9344 916.70528 71.68 860.16 71.68H716.8v71.68zM317.44 890.88H174.08c-16.93696 0-30.72-10.37312-30.72-27.31008V716.8H71.68v146.76992C71.68 920.1152 117.52448 962.56 174.08 962.56h143.36v-71.68z"  /></svg>