<?xml version="1.0" standalone="no"?><!DOCTYPE svg PUBLIC "-//W3C//DTD SVG 1.1//EN" "http://www.w3.org/Graphics/SVG/1.1/DTD/svg11.dtd"><svg class="icon" width="200px" height="200.00px" viewBox="0 0 1024 1024" version="1.1" xmlns="http://www.w3.org/2000/svg"><path fill="currentColor" d="M213.504 298.496c-23.552 0-42.496-18.944-42.496-42.496 0-23.552 18.944-42.496 42.496-42.496h597.504c23.552 0 42.496 18.944 42.496 42.496 0 23.552-18.944 42.496-42.496 42.496H213.504z m6.144 299.008c-9.728 6.144-22.528 2.56-28.672-7.168-2.048-3.072-3.072-7.168-3.072-10.752V444.416c0-11.776 9.216-20.992 20.992-20.992 3.584 0 7.68 1.024 10.752 3.072l112.64 67.584c9.728 6.144 13.312 18.944 7.168 28.672-1.536 3.072-4.096 5.632-7.168 7.168l-112.64 67.584z m266.752-43.008c-23.552 0-42.496-18.944-42.496-42.496s18.944-42.496 42.496-42.496h324.096c23.552 0 42.496 18.944 42.496 42.496s-18.944 42.496-42.496 42.496H486.4z m-272.896 256c-23.552 0-42.496-18.944-42.496-42.496 0-23.552 18.944-42.496 42.496-42.496h597.504c23.552 0 42.496 18.944 42.496 42.496 0 23.552-18.944 42.496-42.496 42.496H213.504z"  /></svg>