<?xml version="1.0" standalone="no"?><!DOCTYPE svg PUBLIC "-//W3C//DTD SVG 1.1//EN" "http://www.w3.org/Graphics/SVG/1.1/DTD/svg11.dtd"><svg class="icon" width="200px" height="200.00px" viewBox="0 0 1024 1024" version="1.1" xmlns="http://www.w3.org/2000/svg"><path fill="currentColor" d="M515.16416 349.9008c-89.97888 0-162.9184 72.93952-162.9184 162.9184s72.93952 162.9184 162.9184 162.9184 162.9184-72.93952 162.9184-162.9184-72.93952-162.9184-162.9184-162.9184z m0 254.1568c-50.30912 0-91.2384-40.91904-91.2384-91.2384s40.92928-91.2384 91.2384-91.2384c50.31936 0 91.2384 40.91904 91.2384 91.2384s-40.91904 91.2384-91.2384 91.2384z"  /><path fill="currentColor" d="M1001.48224 484.0448l-4.74112-5.72416C840.11008 289.9968 679.58784 195.86048 515.16416 195.86048c-166.08256 0-328.18176 96.06144-486.30784 288.18432a45.28128 45.28128 0 0 0 0 57.55904l4.74112 5.72416c156.63104 188.3136 317.14304 282.44992 481.56672 282.44992 166.0928 0 328.20224-96.06144 486.31808-288.18432a45.2608 45.2608 0 0 0 0-57.5488zM515.16416 758.09792c-138.15808 0-278.39488-82.52416-416.93184-245.27872 138.56768-162.77504 278.76352-245.27872 416.93184-245.27872 138.17856 0 278.40512 82.52416 416.94208 245.27872-138.56768 162.78528-278.76352 245.27872-416.94208 245.27872z"  /></svg>