<?xml version="1.0" standalone="no"?><!DOCTYPE svg PUBLIC "-//W3C//DTD SVG 1.1//EN" "http://www.w3.org/Graphics/SVG/1.1/DTD/svg11.dtd"><svg class="icon" width="200px" height="200.00px" viewBox="0 0 1024 1024" version="1.1" xmlns="http://www.w3.org/2000/svg"><path fill="currentColor" d="M955.019086 403.557079c0-140.712503-114.062002-254.785208-254.785208-254.785208-75.445534 0-143.195602 32.804733-189.83933 84.9177C463.75082 181.587307 396.000753 148.771871 320.555219 148.771871c-140.712503 0-254.785208 114.062002-254.785208 254.785208a253.736313 253.736313 0 0 0 64.121746 168.925644v0.085624c0.246169 0.278278 0.535151 0.545854 0.78132 0.824132 9.996614 11.163242 20.967201 21.406025 32.761921 30.653427l264.000502 264.000502c45.327257 45.316554 117.733135 46.429667 161.679704 2.472395l279.926584-276.14842c-0.331793 0.288981-0.706399 0.545854-1.048895 0.834835 53.322407-46.68654 87.026193-115.207225 87.026193-191.648139zM816.436482 541.047975L536.509898 817.196396c-8.8835 8.8835-18.976441 10.670903-25.944102 10.670903-11.195351 0-21.909066-4.54878-30.150385-12.790099L213.236114 547.8872l-3.542697-2.782783a182.764638 182.764638 0 0 1-22.187344-20.581893l-1.551937-1.755294a179.510923 179.510923 0 0 1-45.263039-119.220854c0-99.184815 80.679307-179.864122 179.864122-179.864122 51.064072 0 99.901917 21.855551 134.02312 59.968978l55.816209 62.345047 55.816209-62.345047a180.131697 180.131697 0 0 1 134.023121-59.968978c99.184815 0 179.864122 80.679307 179.864121 179.864122 0 51.781174-63.661517 137.501599-63.661517 137.501599z"  /><path fill="currentColor" d="M670.950436 525.78548a37.460543 37.460543 0 0 1-37.460543 37.460543h-246.169283a37.460543 37.460543 0 1 1 0-74.921086h246.169283a37.460543 37.460543 0 0 1 37.460543 37.460543z"  /><path fill="currentColor" d="M510.405251 686.330665a37.460543 37.460543 0 0 1-37.460543-37.460544v-246.169283a37.460543 37.460543 0 1 1 74.921086 0v246.169283a37.460543 37.460543 0 0 1-37.460543 37.460544z"  /></svg>