<?xml version="1.0" standalone="no"?><!DOCTYPE svg PUBLIC "-//W3C//DTD SVG 1.1//EN" "http://www.w3.org/Graphics/SVG/1.1/DTD/svg11.dtd"><svg class="icon" width="200px" height="200.00px" viewBox="0 0 1024 1024" version="1.1" xmlns="http://www.w3.org/2000/svg"><path fill="currentColor" d="M875.228129 375.975417c0-198.637206-161.02682-359.664026-359.664026-359.664026s-359.664026 161.02682-359.664026 359.664026c0 185.986245 141.162029 338.985806 322.203483 357.72678v49.447917h-85.624098a37.460543 37.460543 0 1 0 0 74.921086h85.624098v112.146163a37.460543 37.460543 0 1 0 74.921086 0v-112.146163h85.624099a37.460543 37.460543 0 1 0 0-74.921086h-85.624099v-49.447917c181.041453-18.740975 322.203483-171.740536 322.203483-357.72678z m-644.396262 0c0-157.002488 127.729749-284.74294 284.742939-284.74294 157.002488 0 284.74294 127.740452 284.74294 284.74294s-127.740452 284.74294-284.74294 284.742939c-157.013191 0-284.74294-127.740452-284.742939-284.742939z"  /></svg>