<?xml version="1.0" standalone="no"?><!DOCTYPE svg PUBLIC "-//W3C//DTD SVG 1.1//EN" "http://www.w3.org/Graphics/SVG/1.1/DTD/svg11.dtd"><svg class="icon" width="200px" height="200.00px" viewBox="0 0 1024 1024" version="1.1" xmlns="http://www.w3.org/2000/svg"><path fill="currentColor" d="M897.918515 513.7767H614.053222c0.374605 3.531994 0.56726 7.085394 0.56726 10.703012 0 56.436984-45.733972 102.181659-102.160252 102.181659a102.170956 102.170956 0 0 1-101.614399-112.884671h-283.843887a53.515062 53.515062 0 0 0-53.515061 53.515062v318.414616a53.515062 53.515062 0 0 0 53.515061 53.515061h770.905868a53.515062 53.515062 0 0 0 53.515062-53.515061v-318.414616a53.515062 53.515062 0 0 0-53.504359-53.515062z m-21.406025 350.523653H148.407969v-275.602567H347.41978c25.751448 66.01618 90.012334 112.884671 165.04045 112.884671 75.00671 0 139.267596-46.868491 165.040449-112.884671h199.011811v275.602567zM220.803144 513.487719v-345.172147h583.314171v345.172147h74.921086v-366.578172a53.515062 53.515062 0 0 0-53.515061-53.515062h-626.126221a53.515062 53.515062 0 0 0-53.515061 53.515062v366.578172h74.921086z"  /><path fill="currentColor" d="M662.302402 314.636453a37.460543 37.460543 0 0 1-37.460543 37.460543h-224.763259a37.460543 37.460543 0 0 1 0-74.921086h224.763259c20.67822 0 37.460543 16.793026 37.460543 37.460543z"  /></svg>