<?xml version="1.0" standalone="no"?><!DOCTYPE svg PUBLIC "-//W3C//DTD SVG 1.1//EN" "http://www.w3.org/Graphics/SVG/1.1/DTD/svg11.dtd"><svg class="icon" width="200px" height="200.00px" viewBox="0 0 1024 1024" version="1.1" xmlns="http://www.w3.org/2000/svg"><path fill="currentColor" d="M459.58144 409.37472l-250.17344-250.17344h200.192a35.84 35.84 0 1 0 0-71.68H122.90048l-0.0512 0.01024a32.91136 32.91136 0 0 0-8.27392 1.09568c-1.04448 0.256-2.048 0.5632-3.05152 0.90112-2.95936 0.99328-5.8368 2.2528-8.50944 4.0448a0.91136 0.91136 0 0 0-0.17408 0.08192c-0.90112 0.62464-1.66912 1.40288-2.51904 2.07872-0.768 0.63488-1.56672 1.24928-2.31424 1.92512-0.1536 0.14336-0.31744 0.23552-0.47104 0.37888-0.12288 0.12288-0.19456 0.256-0.3072 0.37888-0.69632 0.768-1.32096 1.59744-1.98656 2.39616-0.68608 0.84992-1.46432 1.61792-2.07872 2.51904l-0.09216 0.18432c-1.78176 2.6624-3.03104 5.51936-4.02432 8.45824a41.08288 41.08288 0 0 0-0.93184 3.14368c-0.18432 0.75776-0.36864 1.51552-0.512 2.29376-0.33792 1.9456-0.57344 3.93216-0.57344 5.96992v286.73024a35.84 35.84 0 0 0 71.68 0v-200.21248l250.17344 250.18368a35.86048 35.86048 0 0 0 50.69824-50.70848zM591.62624 624.76288l250.17344 250.18368h-200.192a35.84 35.84 0 1 0 0 71.68h286.69952l0.06144-0.01024a32.91136 32.91136 0 0 0 8.26368-1.09568c1.03424-0.256 2.048-0.5632 3.05152-0.90112 2.95936-0.99328 5.8368-2.2528 8.50944-4.0448l0.17408-0.08192c0.90112-0.62464 1.66912-1.40288 2.51904-2.07872 0.77824-0.63488 1.56672-1.24928 2.32448-1.92512 0.14336-0.14336 0.31744-0.23552 0.4608-0.37888 0.12288-0.12288 0.2048-0.256 0.31744-0.37888 0.69632-0.768 1.32096-1.59744 1.97632-2.39616 0.68608-0.84992 1.46432-1.61792 2.07872-2.51904l0.09216-0.18432c1.77152-2.6624 3.03104-5.51936 4.02432-8.45824 0.34816-1.03424 0.6656-2.07872 0.93184-3.14368 0.18432-0.75776 0.37888-1.51552 0.50176-2.29376 0.33792-1.9456 0.58368-3.93216 0.58368-5.96992v-286.72a35.84 35.84 0 1 0-71.68 0v200.20224l-250.17344-250.18368a35.84 35.84 0 1 0-50.69824 50.69824z"  /></svg>