<?xml version="1.0" standalone="no"?><!DOCTYPE svg PUBLIC "-//W3C//DTD SVG 1.1//EN" "http://www.w3.org/Graphics/SVG/1.1/DTD/svg11.dtd"><svg class="icon" width="200px" height="200.00px" viewBox="0 0 1024 1024" version="1.1" xmlns="http://www.w3.org/2000/svg"><path fill="currentColor" d="M892.59008 289.28S858.46016 163.84 709.98016 163.84H542.72 315.74016C167.24992 163.84 133.12 289.28 133.12 289.28L73.39008 713.37984c0 146.82112 105.80992 163.84 105.80992 163.84C366.92992 931.84 399.36 737.28 399.36 737.28h226.99008s32.43008 194.56 220.16 139.93984c0 0 105.80992-17.01888 105.80992-163.84L892.59008 289.28z m-57.46688 517.18144l-4.38272 0.69632-4.2496 1.23904c-15.55456 4.51584-29.82912 6.81984-42.45504 6.81984h-0.01024c-68.47488-0.02048-85.37088-81.05984-87.07072-90.29632l-10.00448-59.89376-60.60032 0.57344H338.6368l-9.984 59.904c-1.60768 8.67328-18.49344 89.72288-86.96832 89.72288-12.62592 0-26.92096-1.05472-42.46528-5.57056L192.58368 808.96h-1.32096c-12.41088-10.24-44.73856-20.6336-46.14144-89.64096l58.10176-413.15328C209.74592 288.45056 235.79648 235.52 315.72992 235.52h394.24c79.94368 0 105.984 52.30592 112.51712 70.02112l58.09152 412.5184c-1.6384 79.104-45.01504 88.32-45.45536 88.40192z"  /><path fill="currentColor" d="M663.90016 358.4c-54.6816 0-99.00032 44.31872-99.00032 98.99008s44.31872 98.99008 99.00032 98.99008c54.66112 0 98.97984-44.32896 98.97984-98.99008S718.56128 358.4 663.90016 358.4z m0 146.76992c-26.35776 0-47.80032-21.44256-47.80032-47.79008S637.5424 409.6 663.90016 409.6c26.33728 0 47.77984 21.44256 47.77984 47.79008s-21.44256 47.77984-47.77984 47.77984zM481.28 465.92a25.6 25.6 0 0 1-25.6 25.6h-153.6a25.6 25.6 0 1 1 0-51.2h153.6a25.6 25.6 0 0 1 25.6 25.6z"  /><path fill="currentColor" d="M409.6 537.6a25.6 25.6 0 1 1-51.2 0v-153.6a25.6 25.6 0 1 1 51.2 0v153.6z"  /></svg>