<?xml version="1.0" standalone="no"?><!DOCTYPE svg PUBLIC "-//W3C//DTD SVG 1.1//EN" "http://www.w3.org/Graphics/SVG/1.1/DTD/svg11.dtd"><svg class="icon" width="200px" height="200.00px" viewBox="0 0 1024 1024" version="1.1" xmlns="http://www.w3.org/2000/svg"><path fill="currentColor" d="M184.32 875.52V196.18816c0-16.93696 13.78304-30.72 30.72-30.72h389.12c16.93696 0 30.72 13.78304 30.72 30.72V875.52h71.68V196.18816c0-56.54528-45.85472-102.4-102.4-102.4H215.04c-56.55552 0-102.4 45.85472-102.4 102.4V875.52h71.68zM768 911.36a35.84 35.84 0 0 1-35.84 35.84h-645.12a35.84 35.84 0 1 1 0-71.68h645.12A35.84 35.84 0 0 1 768 911.36zM948.89984 244.67456a35.84 35.84 0 0 0-35.84 35.84v450.18112a38.44096 38.44096 0 0 1-38.4 38.4 38.37952 38.37952 0 0 1-38.26688-37.12h0.72704V390.20544c0-72.09984-58.44992-130.54976-130.56-130.54976v71.66976c29.71648 0 54.30272 22.15936 58.25536 50.80064h-0.23552v348.55936c0 60.80512 49.27488 110.08 110.08 110.08s110.08-49.27488 110.08-110.08V280.50432a35.84 35.84 0 0 0-35.84-35.82976z"  /><path fill="currentColor" d="M563.2 718.97088a35.84 35.84 0 0 1-35.84 35.84h-235.52a35.84 35.84 0 1 1 0-71.68h235.52a35.84 35.84 0 0 1 35.84 35.84z"  /></svg>