<?xml version="1.0" standalone="no"?><!DOCTYPE svg PUBLIC "-//W3C//DTD SVG 1.1//EN" "http://www.w3.org/Graphics/SVG/1.1/DTD/svg11.dtd"><svg class="icon" width="200px" height="200.00px" viewBox="0 0 1024 1024" version="1.1" xmlns="http://www.w3.org/2000/svg"><path fill="currentColor" d="M514.611535 30.867488c-242.883458 0-439.786776 196.892615-439.786776 439.786775V819.700901h2.172712c12.019483 75.049522 76.89044 132.449777 155.322114 132.449777 86.983381 0 157.494826-70.511445 157.494826-157.494826v-98.970755c0-86.972678-70.511445-157.494826-157.494826-157.494826-30.321634 0-58.545477 8.712252-82.57374 23.568033v-91.114744c0-201.195225 163.681167-364.86569 364.86569-364.865689s364.86569 163.670464 364.86569 364.865689v91.114744a156.456634 156.456634 0 0 0-82.57374-23.568033c-86.983381 0-157.494826 70.522148-157.494826 157.494826v98.970755c0 86.983381 70.511445 157.494826 157.494826 157.494826 78.431674 0 143.302632-57.400255 155.322114-132.449777h2.172712V470.654263c0-242.883458-196.903318-439.786776-439.786776-439.786775z m-282.29195 582.254572c45.530614 0 82.57374 37.043126 82.57374 82.57374v98.970755c0 45.530614-37.043126 82.57374-82.57374 82.57374s-82.57374-37.043126-82.57374-82.57374v-98.970755c0-45.530614 37.043126-82.57374 82.57374-82.57374z m564.5839 264.118235c-45.530614 0-82.57374-37.043126-82.57374-82.57374v-98.970755c0-45.530614 37.043126-82.57374 82.57374-82.57374s82.57374 37.043126 82.57374 82.57374v98.970755c0 45.530614-37.043126 82.57374-82.57374 82.57374z"  /><path fill="currentColor" d="M723.962456 426.375901h0.128436v0.010704c0 20.688923 16.77162 37.44984 37.460543 37.44984s37.460543-16.760917 37.460543-37.44984v-0.010704c-2.804189-128.136463-105.628029-231.559671-233.539728-235.284319v0.267575c-0.899053-0.064218-1.765997-0.267575-2.686457-0.267575a37.460543 37.460543 0 1 0 0 74.921086c0.920459 0 1.787403-0.21406 2.686457-0.267575v0.449526c86.351903 3.692539 155.707423 73.58321 158.490206 160.181282z"  /></svg>