<?xml version="1.0" standalone="no"?><!DOCTYPE svg PUBLIC "-//W3C//DTD SVG 1.1//EN" "http://www.w3.org/Graphics/SVG/1.1/DTD/svg11.dtd"><svg class="icon" width="200px" height="200.00px" viewBox="0 0 1024 1024" version="1.1" xmlns="http://www.w3.org/2000/svg"><path fill="currentColor" d="M106.20928 480.0512l-17.84832-21.38112a262.0928 262.0928 0 0 0 17.84832 21.38112zM918.4768 449.80224l-32.21504 38.6048a261.45792 261.45792 0 0 0 32.21504-38.6048z"  /><path fill="currentColor" d="M729.99936 114.98496c-84.56192 0-160 35.77856-209.47968 91.7504-49.4592-55.97184-124.90752-91.7504-209.4592-91.7504-149.02272 0-269.824 111.04256-269.824 248.0128 0 69.21216 30.86336 131.75808 80.5888 176.75264a274.42176 274.42176 0 0 1-11.55072-10.72128s378.7776 416.88064 378.4192 416.41984c7.18848 8.87808 18.90304 14.67392 31.20128 14.67392 13.47584 0 32.88064-18.49344 32.88064-18.49344l368.01536-403.27168c48.82432-44.86144 79.02208-106.87488 79.02208-175.36 0.01024-136.97024-120.79104-248.0128-269.81376-248.0128zM872.30464 485.5808l-2.32448 2.14016-351.05792 384.6656-349.66528-385.04448 0.65536-0.73728c-36.7616-33.25952-56.99584-77.1584-56.99584-123.5968 0-97.21856 88.8832-176.3328 198.144-176.3328 61.05088 0 117.82144 24.60672 155.76064 67.5328l53.69856 60.76416 53.7088-60.75392c37.9392-42.91584 94.72-67.54304 155.77088-67.54304 109.25056 0 198.144 79.11424 198.144 176.3328 0 45.95712-19.83488 89.47712-55.83872 122.5728z"  /><path fill="currentColor" d="M772.31104 425.84064h-133.12c-0.512 0-0.98304 0.14336-1.4848 0.16384-1.71008 0.04096-3.3792 0.21504-5.03808 0.50176-0.36864 0.07168-0.72704 0.12288-1.08544 0.2048a35.66592 35.66592 0 0 0-27.0336 23.6032l-17.87904 53.31968-114.0224-178.93376a35.57376 35.57376 0 0 0-25.64096-16.11776 25.81504 25.81504 0 0 0-1.76128-0.21504 36.51584 36.51584 0 0 0-3.96288-0.09216 38.5536 38.5536 0 0 0-4.096 0.28672 70.31808 70.31808 0 0 0-1.55648 0.26624c-12.50304 2.23232-23.45984 10.87488-27.78112 23.73632l-34.12992 101.77536H266.21952a35.84 35.84 0 1 0 0 71.68h133.12c0.48128 0 0.9216-0.12288 1.40288-0.14336 1.34144-0.0512 2.65216-0.21504 3.97312-0.39936 0.9728-0.1536 1.93536-0.28672 2.87744-0.512 1.4336-0.32768 2.79552-0.78848 4.17792-1.30048 0.74752-0.26624 1.49504-0.52224 2.22208-0.83968a36.6592 36.6592 0 0 0 4.44416-2.41664c0.44032-0.27648 0.90112-0.52224 1.3312-0.8192 1.60768-1.10592 3.10272-2.3552 4.51584-3.72736 0.18432-0.18432 0.37888-0.33792 0.55296-0.53248a35.2256 35.2256 0 0 0 4.0448-4.88448c0.08192-0.12288 0.18432-0.23552 0.256-0.36864 1.1776-1.75104 2.18112-3.62496 3.04128-5.60128 0.09216-0.19456 0.18432-0.37888 0.256-0.57344 0.33792-0.79872 0.77824-1.51552 1.06496-2.34496l18.65728-55.67488 109.80352 172.288a35.69664 35.69664 0 0 0 22.86592 23.68512 35.86048 35.86048 0 0 0 45.37344-22.58944l34.12992-101.77536h107.99104a35.84 35.84 0 1 0-0.01024-71.64928z"  /></svg>