<?xml version="1.0" standalone="no"?><!DOCTYPE svg PUBLIC "-//W3C//DTD SVG 1.1//EN" "http://www.w3.org/Graphics/SVG/1.1/DTD/svg11.dtd"><svg class="icon" width="200px" height="200.00px" viewBox="0 0 1024 1024" version="1.1" xmlns="http://www.w3.org/2000/svg"><path fill="currentColor" d="M987.136 399.23712l-93.06112-63.06816v-1.72032h-2.53952l-353.67936-239.68768a35.57376 35.57376 0 0 0-20.736-6.10304 35.55328 35.55328 0 0 0-20.74624 6.10304l-353.65888 239.68768h-2.53952v1.72032l-93.06112 63.06816a35.81952 35.81952 0 0 0-9.54368 49.7664 35.7888 35.7888 0 0 0 49.75616 9.56416l52.8384-35.80928v420.48512c0 56.54528 45.84448 102.4 102.4 102.4h549.10976c56.54528 0 102.4-45.85472 102.4-102.4v-420.48512l52.8384 35.80928a35.7888 35.7888 0 0 0 49.75616-9.56416 35.81952 35.81952 0 0 0-9.53344-49.7664z m-164.73088 444.01664c0 16.93696-13.78304 30.72-30.72 30.72h-549.10976c-16.93696 0-30.72-13.78304-30.72-30.72v-469.07392l305.27488-206.87872 305.27488 206.87872v469.07392z"  /><path fill="currentColor" d="M430.09024 481.3312a51.2 51.2 0 0 0-51.2 51.2v174.08a51.2 51.2 0 0 0 51.2 51.2h174.06976a51.2 51.2 0 0 0 51.2-51.2v-174.08a51.2 51.2 0 0 0-51.2-51.2h-174.06976z m153.58976 204.8h-133.10976v-133.12h133.10976v133.12z"  /></svg>