<?xml version="1.0" standalone="no"?><!DOCTYPE svg PUBLIC "-//W3C//DTD SVG 1.1//EN" "http://www.w3.org/Graphics/SVG/1.1/DTD/svg11.dtd"><svg class="icon" width="200px" height="200.00px" viewBox="0 0 1024 1024" version="1.1" xmlns="http://www.w3.org/2000/svg"><path fill="currentColor" d="M311.07072 725.26848a35.77856 35.77856 0 0 1-0.98304 0.83968c0.60416-0.50176 0.98304-0.83968 0.98304-0.83968zM712.94976 725.26848z"  /><path fill="currentColor" d="M902.97344 768.34816l-2.11968-2.53952a139.52 139.52 0 0 0-18.23744-21.69856L695.13216 520.99072l187.48416-223.13984a137.56416 137.56416 0 0 0 18.23744-21.69856l2.11968-2.51904-0.31744-0.256c13.30176-20.64384 21.10464-44.75904 21.10464-70.656 0-75.35616-64.86016-136.43776-144.85504-136.43776H245.12512c-80.01536 0-144.87552 61.0816-144.87552 136.43776 0 25.89696 7.80288 50.0224 21.11488 70.656l-0.31744 0.256 2.11968 2.51904a137.5232 137.5232 0 0 0 18.21696 21.69856l187.50464 223.13984-187.4944 223.11936a138.83392 138.83392 0 0 0-18.21696 21.69856l-2.11968 2.53952 0.31744 0.256c-13.32224 20.62336-21.11488 44.75904-21.11488 70.656 0 75.33568 64.86016 136.43776 144.87552 136.43776H778.9056c79.99488 0 144.85504-61.10208 144.85504-136.43776 0-25.89696-7.80288-50.04288-21.10464-70.656l0.31744-0.256z m-124.08832 135.68H245.12512c-40.35584 0-73.19552-29.06112-73.19552-64.75776 0-11.1616 3.25632-21.88288 9.6768-31.81568l1.21856-1.90464c2.51904-3.62496 5.33504-6.9632 8.3968-9.90208l2.6624-2.58048 228.61824-272.0768-228.61824-272.0768-2.6624-2.58048a67.92192 67.92192 0 0 1-8.62208-10.21952l-1.00352-1.59744c-6.42048-9.94304-9.6768-20.64384-9.6768-31.7952 0-35.71712 32.83968-64.75776 73.19552-64.75776h533.76c40.35584 0 73.17504 29.04064 73.17504 64.75776 0 11.1616-3.23584 21.8624-9.65632 31.7952l-1.21856 1.90464a66.3552 66.3552 0 0 1-8.3968 9.92256l-2.6624 2.58048-228.61824 272.0768 228.61824 272.0768 2.6624 2.58048c3.14368 3.0208 6.0416 6.46144 8.62208 10.21952l1.00352 1.57696c6.42048 9.94304 9.65632 20.66432 9.65632 31.81568 0.01024 35.69664-32.80896 64.75776-73.17504 64.75776z"  /><path fill="currentColor" d="M685.58848 794.0096c0 19.80416-16.03584 35.84-35.84 35.84h-235.52a35.82976 35.82976 0 0 1-35.84-35.84c0-19.80416 16.03584-35.84 35.84-35.84h235.52c19.80416 0 35.84 16.03584 35.84 35.84z"  /></svg>