<?xml version="1.0" standalone="no"?><!DOCTYPE svg PUBLIC "-//W3C//DTD SVG 1.1//EN" "http://www.w3.org/Graphics/SVG/1.1/DTD/svg11.dtd"><svg class="icon" width="200px" height="200.00px" viewBox="0 0 1024 1024" version="1.1" xmlns="http://www.w3.org/2000/svg"><path fill="currentColor" d="M502.377992 727.654995c-62.066768 0-112.370926 50.314861-112.370926 112.381629s50.304158 112.381629 112.370926 112.38163 112.381629-50.314861 112.381629-112.38163-50.314861-112.381629-112.381629-112.381629z m0 149.842172c-20.656814 0-37.460543-16.803729-37.460543-37.460543s16.803729-37.460543 37.460543-37.460543 37.460543 16.803729 37.460543 37.460543-16.803729 37.460543-37.460543 37.460543zM274.286097 82.284759c-62.066768 0-112.381629 50.314861-112.38163 112.381629s50.314861 112.381629 112.38163 112.381629 112.381629-50.314861 112.381629-112.381629-50.314861-112.381629-112.381629-112.381629z m0 149.842172c-20.656814 0-37.460543-16.803729-37.460544-37.460543s16.803729-37.460543 37.460544-37.460543 37.460543 16.803729 37.460543 37.460543-16.803729 37.460543-37.460543 37.460543z"  /><path fill="currentColor" d="M183.331898 194.666388c0-13.154002 2.857704-25.730042 7.845308-37.460543h-89.873194c-24.895207 0-45.059682 16.77162-45.059682 37.460543s20.164475 37.460543 45.059682 37.460543h89.873194a95.310325 95.310325 0 0 1-7.845308-37.460543zM948.715011 157.205845h-588.644271c4.291908 11.730501 6.742898 24.306541 6.742898 37.460543s-2.45099 25.730042-6.742898 37.460543h588.644271c21.35251 0 38.69139-16.77162 38.69139-37.460543s-17.33888-37.460543-38.69139-37.460543zM646.279992 512.010703c0 62.066768 50.314861 112.381629 112.38163 112.381629s112.381629-50.314861 112.381629-112.381629c0-62.077471-50.314861-112.392332-112.381629-112.392332s-112.381629 50.314861-112.38163 112.392332z m74.921087 0c0-20.656814 16.803729-37.460543 37.460543-37.460543s37.460543 16.803729 37.460543 37.460543-16.803729 37.460543-37.460543 37.460543-37.460543-16.803729-37.460543-37.460543z"  /><path fill="currentColor" d="M849.61582 512.010703c0-13.164705-2.857704-25.730042-7.845308-37.460543h89.873195c24.895207 0 45.059682 16.760917 45.059682 37.460543 0 20.67822-20.164475 37.460543-45.059682 37.460543h-89.873195a95.47087 95.47087 0 0 0 7.845308-37.460543zM84.232707 474.55016h588.644271a108.667684 108.667684 0 0 0-6.742898 37.460543c0 13.154002 2.45099 25.708636 6.742898 37.460543h-588.644271c-21.35251 0-38.69139-16.782323-38.69139-37.460543 0-20.699626 17.33888-37.460543 38.69139-37.460543zM393.089533 840.036624c0-13.154002 2.408178-25.730042 6.593056-37.460543h-325.264544c-20.89228 0-37.813743 16.760917-37.813743 37.460543 0 20.67822 16.921462 37.460543 37.813743 37.460543h325.264544a110.840396 110.840396 0 0 1-6.593056-37.460543zM929.813492 802.576081h-326.463282c4.206284 11.730501 6.614462 24.306541 6.614462 37.460543s-2.418881 25.730042-6.614462 37.460543h326.463282c20.945795 0 37.952882-16.782323 37.952881-37.460543 0-20.688923-17.007087-37.460543-37.952881-37.460543z"  /></svg>