<?xml version="1.0" standalone="no"?><!DOCTYPE svg PUBLIC "-//W3C//DTD SVG 1.1//EN" "http://www.w3.org/Graphics/SVG/1.1/DTD/svg11.dtd"><svg class="icon" width="200px" height="200.00px" viewBox="0 0 1024 1024" version="1.1" xmlns="http://www.w3.org/2000/svg"><path d="M826.807701 315.83519l-0.10703 0.010703h0.21406z" fill="currentColor" /><path d="M850.932291 131.721973h-674.289776c-59.102034 0-107.030123 47.928089-107.030123 107.030123v454.878023c0 59.102034 47.928089 107.030123 107.030123 107.030123h226.40082l76.044902 76.044903a53.525765 53.525765 0 0 0 75.681 0l76.044903-76.044903h220.096745c59.102034 0 107.030123-47.928089 107.030123-107.030123v-454.878023c0.021406-59.112737-47.906683-107.030123-107.008717-107.030123z m32.109037 561.908146c0 17.702782-14.406255 32.109037-32.109037 32.109037H599.79681l-82.862721 82.852018-82.852019-82.852018H176.642515c-17.702782 0-32.109037-14.406255-32.109037-32.109037v-454.878023c0-17.702782 14.406255-32.109037 32.109037-32.109037h674.289776c17.702782 0 32.109037 14.406255 32.109037 32.109037v454.878023z" fill="currentColor" /><path d="M362.157828 484.899973m-37.460543 0a37.460543 37.460543 0 1 0 74.921086 0 37.460543 37.460543 0 1 0-74.921086 0Z" fill="currentColor" /><path d="M517.351506 484.899973m-37.460543 0a37.460543 37.460543 0 1 0 74.921086 0 37.460543 37.460543 0 1 0-74.921086 0Z" fill="currentColor" /><path d="M665.406275 484.899973m-37.460543 0a37.460543 37.460543 0 1 0 74.921087 0 37.460543 37.460543 0 1 0-74.921087 0Z" fill="currentColor" /></svg>