<?xml version="1.0" standalone="no"?><!DOCTYPE svg PUBLIC "-//W3C//DTD SVG 1.1//EN" "http://www.w3.org/Graphics/SVG/1.1/DTD/svg11.dtd"><svg class="icon" width="200px" height="200.00px" viewBox="0 0 1024 1024" version="1.1" xmlns="http://www.w3.org/2000/svg"><path fill="currentColor" d="M854.7328 135.13728c-103.96672-103.96672-272.5376-103.96672-376.51456 0-103.97696 103.97696-103.97696 272.5376 0 376.51456 103.96672 103.97696 272.5376 103.97696 376.51456 0.01024 103.96672-103.97696 103.96672-272.5376 0-376.5248z m-325.8368 325.8368c-75.85792-75.85792-75.85792-199.29088 0-275.1488 75.85792-75.84768 199.28064-75.84768 275.13856 0 75.85792 75.85792 75.85792 199.30112 0.01024 275.1488-75.85792 75.85792-199.28064 75.85792-275.1488 0z"  /><path fill="currentColor" d="M353.92512 903.86432l-10.87488-10.86464-25.344-25.344-76.032-76.032L545.792 487.51616l-50.67776-50.67776-318.59712 318.58688a51.2 51.2 0 0 0 0 72.40704l90.50112 90.51136 25.344 25.344 10.86464 10.86464a35.87072 35.87072 0 0 0 50.69824 0 35.88096 35.88096 0 0 0 0-50.688z"  /><path fill="currentColor" d="M504.60672 803.85024a33.91488 33.91488 0 0 1-47.9744 0l-140.288-140.288a33.91488 33.91488 0 0 1 0-47.9744l2.7136-2.7136a33.93536 33.93536 0 0 1 47.98464 0l140.27776 140.288a33.91488 33.91488 0 0 1 0 47.9744l-2.7136 2.7136z"  /></svg>