<?xml version="1.0" standalone="no"?><!DOCTYPE svg PUBLIC "-//W3C//DTD SVG 1.1//EN" "http://www.w3.org/Graphics/SVG/1.1/DTD/svg11.dtd"><svg class="icon" width="200px" height="200.00px" viewBox="0 0 1024 1024" version="1.1" xmlns="http://www.w3.org/2000/svg"><path fill="currentColor" d="M932.75682 345.354098l-346.520727-272.156197c-23.246943-18.248636-63.747141-19.586513-90.46186-2.98614l-398.259088 247.464347c-26.714719 16.600372-29.529611 44.856325-6.282668 63.104961l346.510024 272.145494c23.246943 18.248636 63.757844 19.607919 90.472563 3.007547l398.259088-247.475051c26.725422-16.600372 29.518908-44.856325 6.282668-63.104961z m-444.078684 246.950603c0.032109-0.042812 0.021406-0.042812-0.032109-0.042812-0.256872 0-1.808809 0.353199-3.885193 0.3532-1.166628 0-2.129899-0.10703-2.782784-0.224764l-302.402909-237.478437s355.714614-221.017204 355.757426-221.017204c0.256872 0 1.819512-0.374605 3.917302-0.374605 1.166628 0 2.108493 0.117733 2.772081 0.224763l302.402909 237.499843-355.746723 221.060016z"  /><path fill="currentColor" d="M948.511654 731.711437a37.460543 37.460543 0 1 1-74.921086 0v-353.188704a37.460543 37.460543 0 1 1 74.921086 0v353.188704zM479.002613 294.075966c-63.875577 0-115.635345 43.518448-115.635345 97.215461s51.759768 97.215461 115.635345 97.215461 115.646048-43.518448 115.646048-97.215461-51.770471-97.215461-115.646048-97.215461z m0 140.91586c-33.671677 0-62.120283-20.00393-62.120283-43.700399s28.448607-43.700399 62.120283-43.700399c33.671677 0 62.130986 20.00393 62.130987 43.700399s-28.45931 43.700399-62.130987 43.700399zM723.395196 600.299852v251.884691c-24.434977 18.815896-112.606393 49.019796-245.280933 49.019797s-220.835253-30.203901-245.27023-49.019797v-251.884691h-74.921086v264.342998c0 61.563727 143.356147 111.482576 320.191316 111.482576s320.202019-49.918849 320.202019-111.482576v-264.342998h-74.921086z"  /></svg>