<?xml version="1.0" standalone="no"?><!DOCTYPE svg PUBLIC "-//W3C//DTD SVG 1.1//EN" "http://www.w3.org/Graphics/SVG/1.1/DTD/svg11.dtd"><svg class="icon" width="200px" height="200.00px" viewBox="0 0 1024 1024" version="1.1" xmlns="http://www.w3.org/2000/svg"><path fill="currentColor" d="M472.73984 428.3904h360.6528l-202.0352-202.0352a35.82976 35.82976 0 1 1 50.67776-50.67776l275.15904 275.13856c1.7408 1.76128 3.2768 3.6352 4.57728 5.62176a33.792 33.792 0 0 1 2.63168 4.99712c0.19456 0.41984 0.48128 0.80896 0.64512 1.23904 1.49504 3.6864 2.22208 7.59808 2.43712 11.52 0.04096 0.65536 0.19456 1.30048 0.19456 1.95584 0 0.31744-0.08192 0.63488-0.09216 0.94208a35.57376 35.57376 0 0 1-10.40384 24.41216l-275.15904 275.13856a35.84 35.84 0 0 1-50.67776-50.67776l225.8944-225.8944h-384.50176c-186.32704 0-337.92 151.59296-337.92 337.92v3.40992a35.84 35.84 0 1 1-71.68 0v-3.40992c0-226.22208 183.37792-409.6 409.6-409.6z"  /></svg>