<?xml version="1.0" standalone="no"?><!DOCTYPE svg PUBLIC "-//W3C//DTD SVG 1.1//EN" "http://www.w3.org/Graphics/SVG/1.1/DTD/svg11.dtd"><svg class="icon" width="200px" height="200.00px" viewBox="0 0 1024 1024" version="1.1" xmlns="http://www.w3.org/2000/svg"><path fill="currentColor" d="M60.76416 807.24992S102.06208 960.83968 161.792 819.2c0 0 63.488-167.26016 339.968-240.64V716.8h-1.86368s1.86368 1.93536 1.86368 1.65888v-0.94208c0 32.54272 24.96512 58.68544 56.90368 58.68544 14.68416 0 27.4432-5.5808 37.64224-14.75584a0.84992 0.84992 0 0 0-0.21504 0.06144L942.56128 512h-0.04096c24.92416-20.48 42.9568-33.91488 42.9568-62.39232 0-25.55904-14.58176-44.88192-35.44064-59.02336L606.78144 143.47264c0.02048 0.01024 0.02048 0.02048 0.02048 0.04096-17.14176-13.55776-27.97568-26.5728-48.72192-26.5728-31.93856 0-57.2928 25.088-57.2928 57.63072 0 0.28672 0.9728 0.58368 0.9728 0.8704V296.96S-40.78592 424.0896 60.76416 807.24992z m92.2112-213.99552c96.60416-161.42336 361.90208-225.8944 364.47232-226.5088L573.44 353.77152V206.81728l334.55104 241.32608c-2.33472 1.9456-8.448 7.23968-8.448 7.23968L573.44 690.36032v-204.6976l-90.54208 23.56224c-216.91392 56.86272-318.9248 168.28416-361.87136 234.05568-6.05184-54.39488 4.29056-103.81312 31.9488-150.02624z"  /></svg>