<?xml version="1.0" standalone="no"?><!DOCTYPE svg PUBLIC "-//W3C//DTD SVG 1.1//EN" "http://www.w3.org/Graphics/SVG/1.1/DTD/svg11.dtd"><svg class="icon" width="200px" height="200.00px" viewBox="0 0 1024 1024" version="1.1" xmlns="http://www.w3.org/2000/svg"><path fill="currentColor" d="M512 36.272509c-229.301336 0-415.180551 185.879215-415.180551 415.191253 0 125.064699 55.366683 237.114535 142.842403 313.234359l194.441624 194.441624c43.026109 43.026109 112.788344 43.026109 155.814454 0l194.452327-194.452327c87.465017-76.119824 142.831699-188.169659 142.8317-313.223656-0.010703-229.312039-185.889918-415.191254-415.201957-415.191253z m223.16851 671.892301l-1.958652 1.701779-196.293245 196.282542a35.063068 35.063068 0 0 1-24.927316 10.328407 35.063068 35.063068 0 0 1-24.916613-10.328407L290.800845 709.877292l-1.969355-1.712482a340.248761 340.248761 0 0 1-117.090954-256.701048c0-187.623806 152.646362-340.270167 340.259464-340.270167 187.623806 0 340.270167 152.646362 340.270167 340.270167a340.248761 340.248761 0 0 1-117.101657 256.701048z"  /><path fill="currentColor" d="M512 285.513556c-79.202291 0-143.409662 64.207371-143.409662 143.409662s64.207371 143.409662 143.409662 143.409662c79.191588 0 143.409662-64.207371 143.409662-143.409662s-64.218074-143.409662-143.409662-143.409662z m0 211.908941c-37.760227 0-68.488576-30.728348-68.488576-68.488576s30.728348-68.488576 68.488576-68.488575 68.488576 30.728348 68.488576 68.488575-30.728348 68.488576-68.488576 68.488576z"  /></svg>