<?xml version="1.0" standalone="no"?><!DOCTYPE svg PUBLIC "-//W3C//DTD SVG 1.1//EN" "http://www.w3.org/Graphics/SVG/1.1/DTD/svg11.dtd"><svg class="icon" width="200px" height="200.00px" viewBox="0 0 1024 1024" version="1.1" xmlns="http://www.w3.org/2000/svg"><path fill="currentColor" d="M573.017873 603.478646v-113.676694a37.460543 37.460543 0 1 0-74.921086 0v113.676694a64.02542 64.02542 0 0 0-26.757531 52.070155c0 35.469783 28.758994 64.23948 64.218074 64.23948s64.218074-28.769697 64.218074-64.23948a64.02542 64.02542 0 0 0-26.757531-52.070155z"  /><path fill="currentColor" d="M824.549366 275.591864h-454.086001c3.328637-42.854861 22.722495-84.446767 57.967515-114.425905 70.222464-59.765621 175.968225-51.256726 235.744549 18.955035a37.460543 37.460543 0 1 0 57.047056-48.57027c-86.672994-101.849865-239.501307-114.136923-341.351172-27.453226-52.712336 44.845622-81.160942 107.436838-84.543094 171.483663h-48.762924c-88.663754 0-160.545185 71.892134-160.545185 160.545185v376.403537c0 88.653051 71.881431 160.545185 160.545185 160.545184h577.973368c88.663754 0 160.545185-71.892134 160.545184-160.545184v-376.403537c0.010703-88.642348-71.870728-160.534482-160.534481-160.534482z m85.624098 536.948722c0 47.200284-38.413111 85.624099-85.624098 85.624098h-577.973368c-47.210987 0-85.624099-38.423814-85.624099-85.624098v-376.403537c0-47.200284 38.413111-85.624099 85.624099-85.624099h577.973368c47.210987 0 85.624099 38.423814 85.624098 85.624099v376.403537z"  /></svg>