<?xml version="1.0" standalone="no"?><!DOCTYPE svg PUBLIC "-//W3C//DTD SVG 1.1//EN" "http://www.w3.org/Graphics/SVG/1.1/DTD/svg11.dtd"><svg class="icon" width="200px" height="200.00px" viewBox="0 0 1024 1024" version="1.1" xmlns="http://www.w3.org/2000/svg"><path fill="currentColor" d="M804.556139 259.077116h-56.190815v-35.662437c0-88.674457-71.892134-160.545185-160.545185-160.545185h-144.501369c-88.653051 0-160.545185 71.870728-160.545185 160.545185v35.662437h-56.190814c-88.653051 0-160.545185 71.892134-160.545185 160.545185v376.392834c0 88.663754 71.892134 160.545185 160.545185 160.545184h577.973368c88.653051 0 160.545185-71.881431 160.545184-160.545184v-376.392834c0-88.653051-71.892134-160.545185-160.545184-160.545185z m-446.861468-35.662437c0-47.22169 38.423814-85.624099 85.624099-85.624098h144.501369c47.200284 0 85.624099 38.402408 85.624099 85.624098v35.662437h-315.749567v-35.662437z m532.485566 572.600456c0 47.210987-38.423814 85.624099-85.624098 85.624098h-577.973368c-47.200284 0-85.624099-38.413111-85.624099-85.624098v-376.392834c0-47.200284 38.423814-85.624099 85.624099-85.624099h577.973368c47.200284 0 85.624099 38.423814 85.624098 85.624099v376.392834z"  /><path fill="currentColor" d="M553.035349 586.963898v-113.826536a37.460543 37.460543 0 0 0-74.931789 0v113.826536a64.057529 64.057529 0 0 0-26.757531 52.080858 64.23948 64.23948 0 0 0 128.446851 0 64.057529 64.057529 0 0 0-26.757531-52.080858z"  /></svg>