<?xml version="1.0" standalone="no"?><!DOCTYPE svg PUBLIC "-//W3C//DTD SVG 1.1//EN" "http://www.w3.org/Graphics/SVG/1.1/DTD/svg11.dtd"><svg class="icon" width="200px" height="200.00px" viewBox="0 0 1024 1024" version="1.1" xmlns="http://www.w3.org/2000/svg"><path fill="currentColor" d="M950.20032 172.98432a36.864 36.864 0 0 0-4.58752-5.62176L815.26784 37.03808a35.82976 35.82976 0 1 0-50.67776 50.67776l69.632 69.632H221.51168c-84.82816 0-153.6 68.77184-153.6 153.6V563.53792a35.84 35.84 0 1 0 71.68 0V310.94784c0-45.16864 36.75136-81.92 81.92-81.92h611.74784l-68.66944 68.66944a35.82976 35.82976 0 1 0 50.67776 50.67776l130.34496-130.32448a35.76832 35.76832 0 0 0 10.48576-25.35424c0-6.87104-1.95584-13.74208-5.89824-19.712zM73.80992 851.00544a36.864 36.864 0 0 0 4.58752 5.62176l130.34496 130.33472a35.84 35.84 0 1 0 50.67776-50.688l-69.632-69.632h612.7104c84.82816 0 153.6-68.77184 153.6-153.6V460.45184a35.84 35.84 0 1 0-71.68 0v252.59008c0 45.16864-36.75136 81.92-81.92 81.92H190.75072l68.66944-68.66944a35.82976 35.82976 0 1 0-50.67776-50.67776L78.39744 805.92896a35.76832 35.76832 0 0 0-10.48576 25.35424c0 6.88128 1.95584 13.75232 5.89824 19.72224z"  /></svg>