<?xml version="1.0" standalone="no"?><!DOCTYPE svg PUBLIC "-//W3C//DTD SVG 1.1//EN" "http://www.w3.org/Graphics/SVG/1.1/DTD/svg11.dtd"><svg class="icon" width="200px" height="200.00px" viewBox="0 0 1024 1024" version="1.1" xmlns="http://www.w3.org/2000/svg"><path fill="currentColor" d="M870.540209 151.854339H160.577294c-59.102034 0-107.030123 47.928089-107.030123 107.030123v499.466772c0 59.102034 47.928089 107.030123 107.030123 107.030124h709.962915c59.102034 0 107.030123-47.928089 107.030124-107.030124V258.884462c0-59.102034-47.928089-107.030123-107.030124-107.030123z m32.109037 606.496895c0 17.702782-14.406255 32.109037-32.109037 32.109037H160.577294c-17.702782 0-32.109037-14.406255-32.109037-32.109037V258.884462c0-17.702782 14.406255-32.109037 32.109037-32.109037h709.962915c17.702782 0 32.109037 14.406255 32.109037 32.109037v499.466772z"  /><path fill="currentColor" d="M804.374187 209.896774L540.041892 474.239773c-8.177101 8.187804-17.734891 9.407948-22.701089 9.407947s-14.523988-1.220143-22.701089-9.407947L230.307419 209.896774h-105.959822l317.312206 317.312206c41.795263 41.795263 109.566737 41.795263 151.372703 0l317.312206-317.312206h-105.970525z"  /></svg>