<?xml version="1.0" standalone="no"?><!DOCTYPE svg PUBLIC "-//W3C//DTD SVG 1.1//EN" "http://www.w3.org/Graphics/SVG/1.1/DTD/svg11.dtd"><svg class="icon" width="200px" height="200.00px" viewBox="0 0 1024 1024" version="1.1" xmlns="http://www.w3.org/2000/svg"><path fill="currentColor" d="M853.89312 377.088c0-186.112-150.87616-336.98816-336.98816-336.98816-186.12224 0-336.98816 150.87616-336.98816 336.98816 0 108.61568 51.43552 205.16864 131.2256 266.8032v338.50368a24.63744 24.63744 0 0 0 24.63744 24.63744c5.60128 0 10.7008-1.93536 14.83776-5.08928l-0.02048 0.03072 166.2976-99.584 166.2976 99.584-0.02048-0.03072c4.13696 3.15392 9.23648 5.08928 14.83776 5.08928a24.63744 24.63744 0 0 0 24.63744-24.63744V643.88096c79.80032-61.62432 131.24608-158.16704 131.24608-266.79296z m-602.30656 0c0-146.28864 119.00928-265.30816 265.30816-265.30816 146.28864 0 265.30816 119.01952 265.30816 265.30816S663.1936 642.39616 516.90496 642.39616c-146.30912 0-265.3184-119.01952-265.3184-265.30816z m399.39072 522.04544l-134.08256-80.29184-134.08256 80.29184V686.2848c41.10336 17.84832 86.41536 27.8016 134.08256 27.8016s92.9792-9.95328 134.08256-27.8016v212.84864z"  /></svg>