<?xml version="1.0" standalone="no"?><!DOCTYPE svg PUBLIC "-//W3C//DTD SVG 1.1//EN" "http://www.w3.org/Graphics/SVG/1.1/DTD/svg11.dtd"><svg class="icon" width="200px" height="200.00px" viewBox="0 0 1024 1024" version="1.1" xmlns="http://www.w3.org/2000/svg"><path fill="currentColor" d="M510.212597 246.212095c-87.668374 0-158.747079 71.078705-158.747079 158.747079s71.078705 158.768485 158.747079 158.768485c87.68978 0 158.768485-71.100111 158.768485-158.768485s-71.078705-158.747079-158.768485-158.747079z m0 242.594477c-46.215607 0-83.825992-37.610385-83.825992-83.847398 0-46.215607 37.610385-83.825992 83.825992-83.825993 46.237013 0 83.847398 37.610385 83.847398 83.825993 0 46.237013-37.610385 83.847398-83.847398 83.847398z"  /><path fill="currentColor" d="M970.356502 779.232811l-154.508685-154.508685-0.042813 0.064218a367.498631 367.498631 0 0 0 72.577127-219.82917c0-203.924494-165.329431-369.253925-369.253925-369.253925-203.9459 0-369.253925 165.329431-369.253925 369.253925a367.648473 367.648473 0 0 0 79.897987 229.258524l-144.993707 145.015113a53.493656 53.493656 0 0 0 0 75.670297l0.417417 0.438824c29.807889-11.933859 63.276209-7.363672 85.356523 14.716642s26.650501 55.527228 14.716642 85.335117l0.417418 0.438824a53.493656 53.493656 0 0 0 75.670297 0l171.537178-171.537179a53.354516 53.354516 0 0 0 11.709095-17.606455c24.081778 4.934089 48.99839 7.524218 74.525075 7.524218 31.167172 0 61.413885-3.885193 90.322721-11.163242h-0.042812a53.097644 53.097644 0 0 0 12.7901 21.234776l171.537178 171.537179a53.493656 53.493656 0 0 0 75.670297 0l0.438824-0.438824c-11.933859-29.807889-7.374375-63.254803 14.695236-85.335117 22.091017-22.069611 55.537931-26.650501 85.356523-14.716642l0.438823-0.438824a53.504359 53.504359 0 0 0 0.021406-75.659594z m-717.808223 79.459164a144.704726 144.704726 0 0 0-70.639882-70.639881l100.094571-100.115978a369.146895 369.146895 0 0 0 71.13222 46.825679l11.666284 11.68769-112.253193 112.24249z m1.88373-196.421682l0.171248 0.192654c-0.074921-0.064218-0.117733-0.128436-0.171248-0.192654z m13.293141 13.046972l0.310387 0.267575-0.310387-0.267575z m149.981312 84.682233c1.691076 0.481636 3.382152 0.984677 5.08393 1.444907-1.691076-0.46023-3.382152-0.963271-5.08393-1.444907z m-21.149153-6.710788l2.825595 0.963271c-0.941865-0.342496-1.88373-0.631478-2.825595-0.963271z m-171.751238-348.329536c0-162.300479 132.03236-294.332839 294.332838-294.332839 162.279073 0 294.332839 132.03236 294.332839 294.332839s-132.053766 294.332839-294.332839 294.332838c-162.300479 0-294.332839-132.03236-294.332838-294.332838z m396.097079 354.933294c1.712482-0.481636 3.424964-0.941865 5.137446-1.466313-1.712482 0.524448-3.424964 0.984677-5.137446 1.466313z m101.111358-46.451073z m-16.536154 10.264189c-2.782783 1.626858-5.565566 3.264419-8.380459 4.827058 2.825595-1.56264 5.597675-3.189498 8.380459-4.827058z m-15.551477 8.615924z m-15.615695 7.695466z m-15.840459 6.914146c-2.23693 0.920459-4.495265 1.798106-6.7536 2.675753 2.258336-0.877647 4.516671-1.755294 6.7536-2.675753z m-16.09733 6.143529z m189.218555 64.014717a144.651211 144.651211 0 0 0-29.015867 41.602609l-112.253193-112.231787 35.35205-35.35205a374.391371 374.391371 0 0 0 39.633254-30.985221h-0.021406l107.929177 107.929177a144.704726 144.704726 0 0 0-41.624015 29.037272z"  /></svg>