<?xml version="1.0" standalone="no"?><!DOCTYPE svg PUBLIC "-//W3C//DTD SVG 1.1//EN" "http://www.w3.org/Graphics/SVG/1.1/DTD/svg11.dtd"><svg class="icon" width="200px" height="200.00px" viewBox="0 0 1024 1024" version="1.1" xmlns="http://www.w3.org/2000/svg"><path d="M826.807701 315.83519l-0.10703 0.010703h0.21406z" fill="currentColor" /><path d="M508.435897 60.739595C286.123628 60.739595 101.357527 222.17313 62.880197 435.077451a160.395343 160.395343 0 0 0-7.481405 48.463239v329.97387c0 88.663754 71.881431 160.545185 160.545184 160.545185h301.428936c3.082468 0 6.079311-0.288981 9.118967-0.46023 241.845266-9.579196 434.981123-210.078726 434.981123-456.194494-0.010703-252.237891-202.822083-456.665426-453.037105-456.665426z m15.091247 838.003052l-6.657273 0.396011H215.943976c-47.210987 0-85.624099-38.413111-85.624098-85.624098v-329.97387c0-8.787173 1.34858-17.488722 3.992224-25.858477l1.444906-4.570187 0.845538-4.709325c32.761921-181.223404 189.132931-312.74202 371.833351-312.74202 208.483977 0 378.105316 171.248197 378.105316 381.74434 0 205.765412-159.453477 373.278257-363.014069 381.337626z" fill="currentColor" /><path d="M742.071953 428.64494a37.460543 37.460543 0 0 1-37.460543 37.460543h-353.199407a37.460543 37.460543 0 1 1 0-74.921086h353.199407a37.460543 37.460543 0 0 1 37.460543 37.460543zM528.001003 640.511069a37.460543 37.460543 0 0 1-37.44984 37.460543h-139.13916a37.460543 37.460543 0 1 1 0-74.921086h139.13916a37.460543 37.460543 0 0 1 37.44984 37.460543z" fill="currentColor" /></svg>