<?xml version="1.0" standalone="no"?><!DOCTYPE svg PUBLIC "-//W3C//DTD SVG 1.1//EN" "http://www.w3.org/Graphics/SVG/1.1/DTD/svg11.dtd"><svg class="icon" width="200px" height="200.00px" viewBox="0 0 1024 1024" version="1.1" xmlns="http://www.w3.org/2000/svg"><path fill="currentColor" d="M734.4128 38.4H296.66304c-56.55552 0-102.4 45.84448-102.4 102.4v752.64c0 56.54528 45.84448 102.4 102.4 102.4H734.4128c56.54528 0 102.4-45.85472 102.4-102.4v-752.64c0-56.55552-45.85472-102.4-102.4-102.4z m30.72 855.04c0 16.93696-13.78304 30.72-30.72 30.72H296.66304c-16.93696 0-30.72-13.78304-30.72-30.72v-752.64c0-16.93696 13.78304-30.72 30.72-30.72H734.4128c16.93696 0 30.72 13.78304 30.72 30.72v752.64z"  /><path fill="currentColor" d="M643.5328 193.28a35.84 35.84 0 0 1-35.84 35.84H423.38304a35.82976 35.82976 0 0 1-35.84-35.84c0-19.80416 16.03584-35.84 35.84-35.84h184.30976a35.84 35.84 0 0 1 35.84 35.84z"  /><path fill="currentColor" d="M515.5328 819.2m-51.2 0a51.2 51.2 0 1 0 102.4 0 51.2 51.2 0 1 0-102.4 0Z"  /></svg>