<?xml version="1.0" standalone="no"?><!DOCTYPE svg PUBLIC "-//W3C//DTD SVG 1.1//EN" "http://www.w3.org/Graphics/SVG/1.1/DTD/svg11.dtd"><svg class="icon" width="200px" height="200.00px" viewBox="0 0 1024 1024" version="1.1" xmlns="http://www.w3.org/2000/svg"><path fill="currentColor" d="M520.926312 54.885047c-257.129168 0-465.581036 208.451868-465.581035 465.581036s208.451868 465.581036 465.581035 465.581035 465.581036-208.451868 465.581036-465.581035-208.451868-465.581036-465.581036-465.581036z m0 856.240985c-215.408826 0-390.659949-175.251124-390.659949-390.659949s175.251124-390.659949 390.659949-390.65995 390.659949 175.251124 390.65995 390.65995-175.251124 390.659949-390.65995 390.659949z"  /><path fill="currentColor" d="M643.807597 584.009867c0-67.985534-55.099107-123.084642-123.084642-123.084642v0.192654a48.195664 48.195664 0 0 1-47.767544-48.120743c0-26.554174 21.609382-48.163555 48.163555-48.163555 15.433744 0 29.047975 7.427891 37.867258 18.76238l62.505592-41.67753a123.395029 123.395029 0 0 0-63.104961-46.022953v-22.048205a37.460543 37.460543 0 1 0-74.921086 0v21.973284c-49.544244 15.915379-85.420741 62.334344-85.420741 117.165876 0 67.974831 55.099107 123.084642 123.084642 123.084642v-0.181952a48.184961 48.184961 0 0 1 47.767543 48.110041 48.227773 48.227773 0 0 1-48.163555 48.174258c-15.433744 0-29.047975-7.438594-37.867258-18.773083l-62.505591 41.688233a123.437841 123.437841 0 0 0 63.10496 46.01225v65.962664a37.460543 37.460543 0 1 0 74.921086 0v-65.887743c49.544244-15.915379 85.420741-62.334344 85.420742-117.165876z"  /></svg>