<?xml version="1.0" standalone="no"?><!DOCTYPE svg PUBLIC "-//W3C//DTD SVG 1.1//EN" "http://www.w3.org/Graphics/SVG/1.1/DTD/svg11.dtd"><svg class="icon" width="200px" height="200.00px" viewBox="0 0 1024 1024" version="1.1" xmlns="http://www.w3.org/2000/svg"><path fill="currentColor" d="M316.787758 59.091331H219.411752c-88.663754 0-160.545185 71.881431-160.545184 160.545185v97.376006c0 88.663754 71.881431 160.545185 160.545184 160.545184h97.376006c88.663754 0 160.545185-71.881431 160.545185-160.545184v-97.376006c0-88.674457-71.881431-160.545185-160.545185-160.545185z m85.624099 257.910488c0 47.210987-38.413111 85.624099-85.624099 85.624098H219.411752c-47.210987 0-85.624099-38.413111-85.624098-85.624098V219.625813c0-47.210987 38.413111-85.624099 85.624098-85.624099h97.376006c47.210987 0 85.624099 38.413111 85.624099 85.624099v97.376006zM798.423312 59.091331H701.047306c-88.663754 0-160.545185 71.881431-160.545184 160.545185v97.376006c0 88.663754 71.881431 160.545185 160.545184 160.545184h97.376006c88.663754 0 160.545185-71.881431 160.545185-160.545184v-97.376006c0-88.674457-71.881431-160.545185-160.545185-160.545185z m85.624099 257.910488c0 47.210987-38.413111 85.624099-85.624099 85.624098H701.047306c-47.210987 0-85.624099-38.413111-85.624098-85.624098V219.625813c0-47.210987 38.413111-85.624099 85.624098-85.624099h97.376006c47.210987 0 85.624099 38.413111 85.624099 85.624099v97.376006zM316.787758 530.612538H219.411752c-88.663754 0-160.545185 71.881431-160.545184 160.545185v97.376006c0 88.663754 71.881431 160.545185 160.545184 160.545185h97.376006c88.663754 0 160.545185-71.881431 160.545185-160.545185v-97.376006c0-88.663754-71.881431-160.545185-160.545185-160.545185z m85.624099 257.921191c0 47.210987-38.413111 85.624099-85.624099 85.624099H219.411752c-47.210987 0-85.624099-38.413111-85.624098-85.624099v-97.376006c0-47.210987 38.413111-85.624099 85.624098-85.624098h97.376006c47.210987 0 85.624099 38.413111 85.624099 85.624098v97.376006zM968.622614 653.108514a37.460543 37.460543 0 0 1-37.460543 37.460543H577.962665a37.460543 37.460543 0 1 1 0-74.921086h353.199406a37.460543 37.460543 0 0 1 37.460543 37.460543zM968.622614 884.999979a37.460543 37.460543 0 0 1-37.460543 37.460543H577.962665a37.460543 37.460543 0 1 1 0-74.921086h353.199406a37.460543 37.460543 0 0 1 37.460543 37.460543z"  /></svg>