<?xml version="1.0" standalone="no"?><!DOCTYPE svg PUBLIC "-//W3C//DTD SVG 1.1//EN" "http://www.w3.org/Graphics/SVG/1.1/DTD/svg11.dtd"><svg class="icon" width="200px" height="200.00px" viewBox="0 0 1024 1024" version="1.1" xmlns="http://www.w3.org/2000/svg"><path fill="currentColor" d="M512.49152 63.06816c-182.85568 0-331.07968 148.23424-331.07968 331.08992V647.7824c0 182.85568 148.224 331.08992 331.07968 331.08992S843.59168 830.63808 843.59168 647.7824V394.15808c0-182.85568-148.24448-331.08992-331.10016-331.08992zM771.91168 647.7824c0 143.04256-116.3776 259.40992-259.42016 259.40992S253.09184 790.82496 253.09184 647.7824V394.15808c0-143.04256 116.35712-259.40992 259.39968-259.40992s259.42016 116.36736 259.42016 259.40992V647.7824z"  /><path fill="currentColor" d="M548.33152 405.27872a35.84 35.84 0 0 1-71.68 0v-133.12a35.84 35.84 0 1 1 71.68 0v133.12z"  /></svg>