<?xml version="1.0" standalone="no"?><!DOCTYPE svg PUBLIC "-//W3C//DTD SVG 1.1//EN" "http://www.w3.org/Graphics/SVG/1.1/DTD/svg11.dtd"><svg class="icon" width="200px" height="200.00px" viewBox="0 0 1024 1024" version="1.1" xmlns="http://www.w3.org/2000/svg"><path fill="currentColor" d="M753.117461 265.937747c-121.307942-121.297239-317.975793-121.297239-439.283734 0l-166.164266 166.174969c-121.307942 121.307942-121.307942 317.975793 0 439.283734 121.297239 121.297239 317.975793 121.297239 439.273031 0l166.174969-166.174969c121.307942-121.307942 121.307942-317.975793 0-439.283734z m-219.144177 552.478792c-91.896064 91.896064-241.438552 91.896064-333.334615 0s-91.896064-241.427849 0-333.323912l166.174969-166.174969c91.896064-91.896064 241.427849-91.896064 333.323912 0s91.896064 241.427849 0 333.323912l-166.164266 166.174969z"  /><path fill="currentColor" d="M348.746953 318.061417l363.099693 363.099693-52.979911 52.979911-363.110396-363.099693zM610.949349 472.067061a37.481949 37.481949 0 0 1-52.979911 0 37.481949 37.481949 0 0 1 0-52.979911l60.546941-60.546941a37.460543 37.460543 0 0 1 52.97991 0 37.481949 37.481949 0 0 1 0 52.979911l-60.54694 60.546941zM964.448439 131.968142a37.481949 37.481949 0 0 0-12.340573-51.524301 37.481949 37.481949 0 0 0-51.524301 12.351276c-0.78132 1.295064-1.305768 2.654347-1.915839 4.002926l-0.396012-0.235466c-51.973828 83.611932-115.646048 153.81299-185.247737 208.70874l67.407572 41.324331c68.135376-57.336037 130.244957-128.01873 181.715743-210.860046l-0.385309-0.224763c0.909756-1.166628 1.894433-2.258336 2.686456-3.542697z"  /></svg>