<?xml version="1.0" standalone="no"?><!DOCTYPE svg PUBLIC "-//W3C//DTD SVG 1.1//EN" "http://www.w3.org/Graphics/SVG/1.1/DTD/svg11.dtd"><svg class="icon" width="200px" height="200.00px" viewBox="0 0 1024 1024" version="1.1" xmlns="http://www.w3.org/2000/svg"><path fill="currentColor" d="M950.66112 401.47968l0.03072-0.256c-129.83296-45.74208-229.53984-155.71968-260.89472-291.60448h-1.65888a35.84 35.84 0 1 0-71.68 0v362.92608c-53.02272-60.5184-130.816-98.77504-217.6-98.77504-159.76448 0-289.28 129.51552-289.28 289.28S239.104 952.32 398.85824 952.32s289.28-129.51552 289.28-289.28c0-6.25664-0.26624-12.4416-0.65536-18.59584a36.2496 36.2496 0 0 0 0.65536-6.54336V286.18752c57.21088 86.26176 141.83424 151.23456 244.52096 183.73632 2.87744 1.40288 5.92896 2.4576 9.17504 3.04128l0.49152 0.16384 0.01024-0.11264c1.90464 0.3072 3.80928 0.59392 5.79584 0.59392 19.79392 0 35.84-16.19968 35.84-36.18816a35.9424 35.9424 0 0 0-33.31072-35.9424zM398.85824 880.64c-119.98208 0-217.6-97.60768-217.6-217.6s97.61792-217.6 217.6-217.6c119.99232 0 217.6 97.60768 217.6 217.6S518.85056 880.64 398.85824 880.64z"  /></svg>