<?xml version="1.0" standalone="no"?><!DOCTYPE svg PUBLIC "-//W3C//DTD SVG 1.1//EN" "http://www.w3.org/Graphics/SVG/1.1/DTD/svg11.dtd"><svg class="icon" width="200px" height="200.00px" viewBox="0 0 1024 1024" version="1.1" xmlns="http://www.w3.org/2000/svg"><path fill="currentColor" d="M903.441269 109.57744H523.505738c-59.112737 0-119.873738 47.928089-135.714196 107.030123l-104.825302 387.812948c-74.664214-49.447917-208.890691-7.310157-238.538036 74.482263-40.585823 111.942806 71.314171 157.655371 127.997324 156.082029 51.995234-1.45561 145.742919-41.731045 158.597237-117.101658l104.836005-391.205803h438.866317l-73.679536 275.003198c-74.407342-50.721575-209.939587-8.594519-239.747476 73.647428-40.585823 111.942806 71.314171 157.655371 127.997324 156.082028 52.01664-1.45561 145.807137-41.763154 158.607939-117.176578l-0.053515 0.663586 133.937496-498.300144c15.851161-59.091331-19.22261-107.01942-78.34605-107.01942z m-652.3486 609.547254c-17.23185 24.113887-59.3375 40.371762-80.754228 40.971131l-0.78132 0.010703c-17.745594 0-45.862408-10.670903-55.505822-24.413571-1.894433-2.707862-6.924849-9.889583 0.813429-31.252796 7.930932-21.876957 48.506052-46.344043 90.943496-46.344043 40.68215 0 47.22169 21.031419 49.372996 27.934862 4.944792 15.808349 1.926542 24.65974-4.088551 33.093714z m71.710182-66.091101z m445.159688 62.516295c-17.23185 24.113887-59.3375 40.371762-80.754227 40.971131l-0.78132 0.010703c-17.745594 0-45.862408-10.670903-55.505822-24.413571-1.894433-2.707862-6.924849-9.889583 0.813429-31.252796 7.920229-21.876957 48.506052-46.344043 90.943495-46.344043 40.68215 0 47.22169 21.031419 49.372996 27.934862 4.944792 15.808349 1.926542 24.65974-4.088551 33.093714zM455.948325 251.756256l4.227689-15.765538c7.085394-26.468549 37.867258-51.502895 63.340427-51.502895h379.935531c5.340803 0 7.352969 1.20944 7.363673 1.220144-0.224763 0.128436 0.56726 4.22769-1.391392 11.484332l-14.609612 54.553254H455.948325z"  /></svg>