<?xml version="1.0" standalone="no"?><!DOCTYPE svg PUBLIC "-//W3C//DTD SVG 1.1//EN" "http://www.w3.org/Graphics/SVG/1.1/DTD/svg11.dtd"><svg class="icon" width="200px" height="200.00px" viewBox="0 0 1024 1024" version="1.1" xmlns="http://www.w3.org/2000/svg"><path fill="currentColor" d="M724.850806 595.815289h-14.256413v-131.989547c0-70.789723-48.580973-130.073709-114.179735-146.781111v-24.477789a37.460543 37.460543 0 1 0-74.921086 0v24.477789c-65.577356 16.707402-114.158329 75.991387-114.158329 146.781111v131.989547h-14.277819a37.460543 37.460543 0 1 0 0 74.921087h113.280682c4.259799 25.291218 26.126053 44.610155 52.616009 44.610155 26.511361 0 48.35621-19.318937 52.616009-44.610155h113.280682a37.460543 37.460543 0 0 0 0-74.921087z m-89.177499 0h-153.416978v-131.989547c0-42.298305 34.410185-76.708489 76.697786-76.70849 42.309008 0 76.719192 34.410185 76.719192 76.70849v131.989547z"  /><path fill="currentColor" d="M872.434643 190.513619a44.203441 44.203441 0 0 0-5.201664-6.400401 42.052135 42.052135 0 0 0-6.400402-5.201664c-83.761774-80.882664-197.673934-130.715889-323.284487-130.71589-257.118465 0-465.581036 208.462571-465.581035 465.591739 0 125.589146 49.833225 239.501307 130.673077 323.241675 1.530531 2.258336 3.221607 4.409641 5.22307 6.421807s4.184878 3.724648 6.421808 5.22307c83.761774 80.861258 197.673934 130.694483 323.26308 130.694484 257.139871 0 465.581036-208.462571 465.581036-465.581036 0-125.621256-49.843928-239.533416-130.694483-323.273784z m-334.886553 713.933733c-94.240023 0-180.805987-33.553944-248.3634-89.32734l78.538704-78.538705a122.142777 122.142777 0 0 1-55.313168-50.646654l-76.194744 76.194745c-55.773397-67.557414-89.327341-154.101971-89.327341-248.341995 0-215.408826 175.261827-390.670652 390.659949-390.670652 94.240023 0 180.805987 33.553944 248.363401 89.32734l-77.843008 77.843009c1.605452 2.408178 2.964734 4.976901 4.473859 7.46a151.693794 151.693794 0 0 1 39.676066 54.339193l86.672994-86.683697c55.773397 67.557414 89.327341 154.123377 89.327341 248.374104-0.010703 215.408826-175.251124 390.670652-390.670653 390.670652z"  /></svg>