<?xml version="1.0" standalone="no"?><!DOCTYPE svg PUBLIC "-//W3C//DTD SVG 1.1//EN" "http://www.w3.org/Graphics/SVG/1.1/DTD/svg11.dtd"><svg class="icon" width="200px" height="200.00px" viewBox="0 0 1024 1024" version="1.1" xmlns="http://www.w3.org/2000/svg"><path fill="currentColor" d="M971.65312 881.94048l-252.38528-252.37504a367.0016 367.0016 0 0 0 79.4624-228.49536c0-203.59168-165.03808-368.64-368.64-368.64-203.59168 0-368.65024 165.04832-368.65024 368.64 0 203.60192 165.05856 368.65024 368.65024 368.65024 91.4432 0 175.04256-33.37216 239.47264-88.49408l251.41248 251.41248a35.86048 35.86048 0 0 0 50.688 0 35.88096 35.88096 0 0 0-0.01024-50.69824z m-838.54336-480.88064c0-163.7376 133.2224-296.96 296.97024-296.96 163.7376 0 296.96 133.2224 296.96 296.96 0 163.74784-133.2224 296.97024-296.96 296.97024-163.74784 0-296.97024-133.2224-296.97024-296.97024z"  /><path fill="currentColor" d="M609.28 401.05984a35.84 35.84 0 0 1-35.84 35.84h-286.72a35.84 35.84 0 1 1 0-71.68h286.72a35.84 35.84 0 0 1 35.84 35.84z"  /></svg>