<?xml version="1.0" standalone="no"?><!DOCTYPE svg PUBLIC "-//W3C//DTD SVG 1.1//EN" "http://www.w3.org/Graphics/SVG/1.1/DTD/svg11.dtd"><svg class="icon" width="200px" height="200.00px" viewBox="0 0 1024 1024" version="1.1" xmlns="http://www.w3.org/2000/svg"><path fill="currentColor" d="M235.52 71.68v163.84H71.68v71.68h184.32a51.2 51.2 0 0 0 51.2-51.2V71.68h-71.68zM235.52 962.56V798.72H71.68v-71.68h184.32a51.2 51.2 0 0 1 51.2 51.2v184.32h-71.68zM798.72 962.56V798.72h163.84v-71.68H778.24a51.2 51.2 0 0 0-51.2 51.2v184.32h71.68zM798.72 71.68v163.84h163.84v71.68H778.24a51.2 51.2 0 0 1-51.2-51.2V71.68h71.68z"  /></svg>