<?xml version="1.0" standalone="no"?><!DOCTYPE svg PUBLIC "-//W3C//DTD SVG 1.1//EN" "http://www.w3.org/Graphics/SVG/1.1/DTD/svg11.dtd"><svg class="icon" width="200px" height="200.00px" viewBox="0 0 1024 1024" version="1.1" xmlns="http://www.w3.org/2000/svg"><path fill="currentColor" d="M915.4048 497.12128l-32.41984-235.52c-23.87968-107.52-117.76-124.57984-117.76-124.57984h-409.6c-92.16 0-85.34016 69.95968-85.34016 69.95968v366.94016c0 83.64032 122.88 64.86016 122.88 64.86016 105.82016 34.11968 90.46016 155.29984 90.46016 155.29984 0 42.65984 29.02016 116.03968 136.54016 116.03968s122.88-112.61952 122.88-112.61952l5.12-128c197.95968 0 167.23968-172.38016 167.23968-172.38016z m-85.38112 75.6224c-17.8176 20.71552-54.36416 25.07776-81.85856 25.07776h-68.88448l-7.70048 192.60416c-2.07872 11.0592-12.02176 48.03584-51.41504 48.03584-54.62016 0-63.78496-27.04384-64.75776-41.48224 5.91872-64.27648-15.84128-186.29632-140.21632-226.41664l-16.11776-4.99712-16.30208 2.304c-0.08192 0-7.55712 1.04448-17.68448 1.04448-10.5984 0-18.19648-1.09568-23.12192-2.26304V209.79712a71.38304 71.38304 0 0 1 13.66016-1.09568H756.4288c11.52 3.86048 44.50304 18.82112 56.00256 65.90464l32.02048 232.8576 0.256 1.40288c0.0512 0.36864 5.44768 40.43776-14.68416 63.87712zM188.80512 172.86144a35.84 35.84 0 0 0-35.84-35.84 35.82976 35.82976 0 0 0-35.84 35.84v371.2a35.84 35.84 0 1 0 71.68 0v-371.2z"  /></svg>