<?xml version="1.0" standalone="no"?><!DOCTYPE svg PUBLIC "-//W3C//DTD SVG 1.1//EN" "http://www.w3.org/Graphics/SVG/1.1/DTD/svg11.dtd"><svg class="icon" width="200px" height="200.00px" viewBox="0 0 1024 1024" version="1.1" xmlns="http://www.w3.org/2000/svg"><path fill="currentColor" d="M148.224 98.00704l250.17344 250.18368V147.98848a35.84 35.84 0 1 1 71.68 0v286.69952l-0.01024 0.06144a32.91136 32.91136 0 0 1-1.09568 8.27392 37.20192 37.20192 0 0 1-0.90112 3.04128 35.45088 35.45088 0 0 1-4.12672 8.68352c-0.62464 0.90112-1.40288 1.67936-2.07872 2.51904-0.63488 0.77824-1.24928 1.57696-1.92512 2.32448-0.14336 0.14336-0.23552 0.31744-0.37888 0.4608-0.12288 0.12288-0.256 0.2048-0.37888 0.31744-0.768 0.69632-1.59744 1.32096-2.39616 1.97632-0.84992 0.69632-1.61792 1.46432-2.51904 2.07872l-0.18432 0.1024c-2.6624 1.78176-5.51936 3.0208-8.45824 4.02432a36.864 36.864 0 0 1-3.14368 0.9216c-0.75776 0.18432-1.51552 0.37888-2.29376 0.52224-1.9456 0.33792-3.93216 0.5632-5.96992 0.5632h-286.73024a35.84 35.84 0 1 1 0-71.68h200.21248l-250.18368-250.1632a35.87072 35.87072 0 0 1 0-50.69824 35.87072 35.87072 0 0 1 50.70848-0.01024zM902.98368 936.13056l-250.18368-250.17344v200.192a35.84 35.84 0 1 1-71.68 0v-286.69952l0.01024-0.06144a32.91136 32.91136 0 0 1 1.09568-8.26368c0.256-1.03424 0.5632-2.048 0.90112-3.05152 0.99328-2.95936 2.2528-5.8368 4.0448-8.50944l0.08192-0.17408c0.62464-0.90112 1.40288-1.66912 2.07872-2.51904 0.63488-0.77824 1.24928-1.56672 1.92512-2.32448 0.14336-0.14336 0.23552-0.31744 0.37888-0.4608 0.12288-0.12288 0.256-0.2048 0.37888-0.31744 0.768-0.69632 1.59744-1.32096 2.39616-1.97632 0.84992-0.68608 1.61792-1.46432 2.51904-2.07872l0.18432-0.09216c2.6624-1.77152 5.51936-3.03104 8.45824-4.02432 1.03424-0.34816 2.07872-0.6656 3.14368-0.93184 0.75776-0.18432 1.51552-0.37888 2.29376-0.50176 1.9456-0.33792 3.93216-0.58368 5.96992-0.58368h286.72a35.84 35.84 0 1 1 0 71.68h-200.20224l250.18368 250.17344a35.84 35.84 0 1 1-50.69824 50.69824z"  /></svg>