<?xml version="1.0" standalone="no"?><!DOCTYPE svg PUBLIC "-//W3C//DTD SVG 1.1//EN" "http://www.w3.org/Graphics/SVG/1.1/DTD/svg11.dtd"><svg class="icon" width="200px" height="200.00px" viewBox="0 0 1024 1024" version="1.1" xmlns="http://www.w3.org/2000/svg"><path fill="currentColor" d="M269.64992 305.62304a35.84 35.84 0 0 1-35.84 35.84h-153.6a35.84 35.84 0 0 1-35.84-35.84c0-19.80416 16.03584-35.84 35.84-35.84h153.6c19.80416 0 35.84 16.03584 35.84 35.84zM269.64992 519.17824a35.84 35.84 0 0 1-35.84 35.85024h-153.6a35.84 35.84 0 0 1-35.84-35.85024c0-19.80416 16.03584-35.84 35.84-35.84h153.6a35.84 35.84 0 0 1 35.84 35.84zM269.64992 732.7744a35.84 35.84 0 0 1-35.84 35.84h-153.6a35.84 35.84 0 0 1-35.84-35.84c0-19.80416 16.03584-35.84 35.84-35.84h153.6c19.80416 0 35.84 16.03584 35.84 35.84z"  /><path fill="currentColor" d="M910.85824 399.7184h-6.31808V222.22848c0-84.82816-68.77184-153.6-153.6-153.6H283.31008c-84.82816 0-153.6 68.77184-153.6 153.6v593.92c0 84.82816 68.77184 153.6 153.6 153.6h467.63008c84.82816 0 153.6-68.77184 153.6-153.6V638.65856h6.31808a81.92 81.92 0 0 0 81.92-81.92v-75.10016a81.92 81.92 0 0 0-81.92-81.92z m-77.99808 416.43008c0 45.16864-36.75136 81.92-81.92 81.92H283.31008c-45.16864 0-81.92-36.75136-81.92-81.92v-593.92c0-45.16864 36.75136-81.92 81.92-81.92h467.63008c45.16864 0 81.92 36.75136 81.92 81.92v177.48992H719.7184a81.92 81.92 0 0 0-81.92 81.92v75.10016a81.92 81.92 0 0 0 81.92 81.92h113.14176v177.48992z m88.23808-259.40992c0 5.64224-4.58752 10.24-10.24 10.24H719.7184c-5.65248 0-10.24-4.59776-10.24-10.24v-75.10016c0-5.64224 4.58752-10.24 10.24-10.24h191.13984c5.65248 0 10.24 4.59776 10.24 10.24v75.10016z"  /></svg>