<?xml version="1.0" standalone="no"?><!DOCTYPE svg PUBLIC "-//W3C//DTD SVG 1.1//EN" "http://www.w3.org/Graphics/SVG/1.1/DTD/svg11.dtd"><svg class="icon" width="200px" height="200.00px" viewBox="0 0 1024 1024" version="1.1" xmlns="http://www.w3.org/2000/svg"><path fill="currentColor" d="M939.232142 750.142024h-80.047829v-278.053557c0-179.575141-136.003177-327.351632-310.61212-346.049794v-18.077388a37.460543 37.460543 0 1 0-74.921086 0v18.077388c-174.608943 18.698163-310.61212 166.474654-310.61212 346.049794v278.053557h-80.04783a37.460543 37.460543 0 1 0 0 74.921086h856.251688a37.460543 37.460543 0 1 0-0.010703-74.921086z m-701.282772 0v-278.053557c0-150.612789 122.528085-273.151577 273.151577-273.151577 150.612789 0 273.151577 122.538788 273.151577 273.151577v278.053557h-546.303154zM644.899304 927.940464a37.460543 37.460543 0 0 1-37.460543 37.460544h-192.654222a37.460543 37.460543 0 1 1 0-74.921087h192.654222a37.460543 37.460543 0 0 1 37.460543 37.460543z"  /></svg>