<?xml version="1.0" standalone="no"?><!DOCTYPE svg PUBLIC "-//W3C//DTD SVG 1.1//EN" "http://www.w3.org/Graphics/SVG/1.1/DTD/svg11.dtd"><svg class="icon" width="200px" height="200.00px" viewBox="0 0 1024 1024" version="1.1" xmlns="http://www.w3.org/2000/svg"><path d="M826.807701 315.83519l-0.10703 0.010703h0.21406z" fill="currentColor" /><path d="M933.291971 746.567218h-49.91885V411.231139c0-202.961222-164.537408-367.498631-367.498631-367.498631S148.37586 208.269917 148.37586 411.231139v335.336079H98.45701a37.460543 37.460543 0 1 0 0 74.921086H317.911575c17.563643 93.426594 99.45239 164.141397 197.962915 164.141397 98.510525 0 180.38857-70.714802 197.962916-164.141397H933.291971c20.699626 0 37.460543-16.760917 37.460543-37.460543s-16.760917-37.460543-37.460543-37.460543z m-417.417481 164.141397c-56.811589 0-105.017957-37.599682-121.008257-89.220311h241.995109c-15.979597 51.620628-64.164559 89.220311-120.986852 89.220311z m201.569831-164.141397H223.296946V411.231139c0-161.326505 131.25104-292.577545 292.577544-292.577545s292.577545 131.25104 292.577545 292.577545v335.336079h-91.007714z" fill="currentColor" /></svg>