<?xml version="1.0" standalone="no"?><!DOCTYPE svg PUBLIC "-//W3C//DTD SVG 1.1//EN" "http://www.w3.org/Graphics/SVG/1.1/DTD/svg11.dtd"><svg class="icon" width="200px" height="200.00px" viewBox="0 0 1024 1024" version="1.1" xmlns="http://www.w3.org/2000/svg"><path fill="currentColor" d="M64.218074 560.795033v404.038715"  /><path fill="currentColor" d="M844.200096 165.489976h-674.289776c-59.112737 0-107.030123 47.928089-107.030123 107.030124v625.419821s37.460543 82.948345 133.787654 37.460543l160.416749-100.972218h487.115496c59.102034 0 107.030123-47.928089 107.030123-107.030123v-454.878023c0-59.112737-47.928089-107.030123-107.030123-107.030124z m32.109037 561.908147c0 17.702782-14.406255 32.109037-32.109037 32.109037H335.475218L161.091038 869.266551c-9.761147 4.174175-15.786943 4.837762-18.644647 4.837762a10.360516 10.360516 0 0 1-4.645107-1.113114V272.5201c0-17.702782 14.406255-32.109037 32.109036-32.109037h674.289776c17.702782 0 32.109037 14.406255 32.109037 32.109037v454.878023z"  /><path fill="currentColor" d="M347.8479 453.786316a37.460543 37.460543 0 0 1 0-74.921086h353.199406a37.460543 37.460543 0 1 1 0 74.921086h-353.199406zM658.235257 579.11859a37.460543 37.460543 0 0 1-37.460543 37.460543H428.120493a37.460543 37.460543 0 1 1 0-74.921086h192.654221a37.460543 37.460543 0 0 1 37.460543 37.460543z"  /></svg>