<?xml version="1.0" standalone="no"?><!DOCTYPE svg PUBLIC "-//W3C//DTD SVG 1.1//EN" "http://www.w3.org/Graphics/SVG/1.1/DTD/svg11.dtd"><svg class="icon" width="200px" height="200.00px" viewBox="0 0 1024 1024" version="1.1" xmlns="http://www.w3.org/2000/svg"><path fill="currentColor" d="M557.669754 421.687982a37.460543 37.460543 0 1 1-74.921087 0v-299.684345a37.460543 37.460543 0 1 1 74.921087 0v299.684345z"  /><path fill="currentColor" d="M815.601647 233.957146c-16.182955-4.024333-52.369839-7.128206-55.473713 44.781404-0.117733 1.926542-0.267575 3.617618-0.438823 5.190961 58.609695 61.713569 94.700253 144.993708 94.700253 236.60079 0 189.678784-154.316032 343.994816-343.994816 343.994816s-343.994816-154.316032-343.994816-343.994816c0-94.186508 38.081318-179.617953 99.612936-241.802454-3.87449-64.742521-59.176955-43.967975-62.923009-42.490959-69.162866 74.696323-111.600309 174.480507-111.60031 284.304116 0 231.356314 187.548885 418.915902 418.915902 418.915902s418.915902-187.548885 418.915902-418.915902c-0.010703-110.947426-43.293685-211.662771-113.719506-286.583858z"  /></svg>