<?xml version="1.0" standalone="no"?><!DOCTYPE svg PUBLIC "-//W3C//DTD SVG 1.1//EN" "http://www.w3.org/Graphics/SVG/1.1/DTD/svg11.dtd"><svg class="icon" width="200px" height="200.00px" viewBox="0 0 1024 1024" version="1.1" xmlns="http://www.w3.org/2000/svg"><path fill="currentColor" d="M900.26666667 622.93333333H789.33333333v-83.2c0-30.61333333-24.85333333-55.46666667-55.46666666-55.46666666H539.73333333v-83.2h83.2c30.61333333 0 55.46666667-24.85333333 55.46666667-55.46666667V123.73333333c0-30.61333333-24.85333333-55.46666667-55.46666667-55.46666666H401.06666667c-30.61333333 0-55.46666667 24.85333333-55.46666667 55.46666666v221.86666667c0 30.61333333 24.85333333 55.46666667 55.46666667 55.46666667h83.2v83.2H290.13333333c-30.61333333 0-55.46666667 24.85333333-55.46666666 55.46666666v83.2H123.73333333c-30.61333333 0-55.46666667 24.85333333-55.46666666 55.46666667v221.86666667c0 30.61333333 24.85333333 55.46666667 55.46666666 55.46666666h221.86666667c30.61333333 0 55.46666667-24.85333333 55.46666667-55.46666666V678.4c0-30.61333333-24.85333333-55.46666667-55.46666667-55.46666667h-55.46666667v-83.2h443.73333334v83.2h-55.46666667c-30.61333333 0-55.46666667 24.85333333-55.46666667 55.46666667v221.86666667c0 30.61333333 24.85333333 55.46666667 55.46666667 55.46666666h221.86666667c30.61333333 0 55.46666667-24.85333333 55.46666666-55.46666666V678.4c0-30.61333333-24.85333333-55.46666667-55.46666666-55.46666667zM401.06666667 345.6V123.73333333h221.86666666v221.86666667H401.06666667z m-55.46666667 332.8v221.86666667H123.73333333V678.4h221.86666667z m554.66666667 221.86666667H678.4V678.4h221.86666667v221.86666667z"  /></svg>