<?xml version="1.0" standalone="no"?><!DOCTYPE svg PUBLIC "-//W3C//DTD SVG 1.1//EN" "http://www.w3.org/Graphics/SVG/1.1/DTD/svg11.dtd"><svg class="icon" width="200px" height="200.00px" viewBox="0 0 1024 1024" version="1.1" xmlns="http://www.w3.org/2000/svg"><path fill="currentColor" d="M517.12 817.48992m-51.2 0a51.2 51.2 0 1 0 102.4 0 51.2 51.2 0 1 0-102.4 0Z"  /><path fill="currentColor" d="M614.4 199.68a35.84 35.84 0 0 1-35.84 35.84h-133.12a35.84 35.84 0 1 1 0-71.68h133.12a35.84 35.84 0 0 1 35.84 35.84z"  /><path fill="currentColor" d="M696.32 51.2H327.68c-56.55552 0-102.4 45.84448-102.4 102.4v716.8c0 56.54528 45.84448 102.4 102.4 102.4h368.64c56.54528 0 102.4-45.85472 102.4-102.4V153.6c0-56.55552-45.85472-102.4-102.4-102.4z m30.72 819.2c0 16.93696-13.78304 30.72-30.72 30.72H327.68c-16.93696 0-30.72-13.78304-30.72-30.72V153.6c0-16.93696 13.78304-30.72 30.72-30.72h368.64c16.93696 0 30.72 13.78304 30.72 30.72v716.8z"  /></svg>