<?xml version="1.0" standalone="no"?><!DOCTYPE svg PUBLIC "-//W3C//DTD SVG 1.1//EN" "http://www.w3.org/Graphics/SVG/1.1/DTD/svg11.dtd"><svg class="icon" width="200px" height="200.00px" viewBox="0 0 1024 1024" version="1.1" xmlns="http://www.w3.org/2000/svg"><path fill="currentColor" d="M228.352 535.04c-17.92 17.408-46.592 17.408-64.512 0-17.408-16.896-17.92-44.544-1.024-61.952l1.024-1.024 310.784-304.128c2.56-2.048 4.608-4.096 7.68-6.144l2.56-2.56c17.92-17.408 46.592-17.408 64.512 0L860.16 463.36c17.408 16.896 17.92 44.544 1.024 61.952l-1.024 1.024c-17.92 17.408-46.592 17.408-64.512 0l-279.04-272.896-288.256 281.6z m0 329.216c-17.92 17.408-46.592 17.408-64.512 0-17.408-16.896-17.92-44.544-1.024-61.952l1.024-1.024 310.784-304.128c2.56-2.048 4.608-4.096 7.68-6.144l2.56-2.56c17.92-17.408 46.592-17.408 64.512 0l310.784 304.128c17.408 16.896 17.92 44.544 1.024 61.952l-1.024 1.024c-17.92 17.408-46.592 17.408-64.512 0l-279.04-272.896-288.256 281.6z"  /></svg>