<?xml version="1.0" standalone="no"?><!DOCTYPE svg PUBLIC "-//W3C//DTD SVG 1.1//EN" "http://www.w3.org/Graphics/SVG/1.1/DTD/svg11.dtd"><svg class="icon" width="200px" height="200.00px" viewBox="0 0 1024 1024" version="1.1" xmlns="http://www.w3.org/2000/svg"><path fill="currentColor" d="M795.69 488.704a46.421 46.421 0 0 1 64.726 0 43.883 43.883 0 0 1 0 63.253L549.397 855.893a52.48 52.48 0 0 1-7.53 5.952l-2.432 2.432a46.421 46.421 0 0 1-64.704 0L163.712 560.235a43.883 43.883 0 0 1 0-63.254 46.421 46.421 0 0 1 64.704 0L507.669 769.92z m0-329.13a46.421 46.421 0 0 1 64.726 0 43.883 43.883 0 0 1 0 63.253L549.397 526.784a52.48 52.48 0 0 1-7.53 5.973l-2.432 2.411a46.421 46.421 0 0 1-64.704 0L163.712 231.211a43.883 43.883 0 0 1 0-63.232 46.421 46.421 0 0 1 64.704 0l279.253 273.066z"  /></svg>