<?xml version="1.0" standalone="no"?><!DOCTYPE svg PUBLIC "-//W3C//DTD SVG 1.1//EN" "http://www.w3.org/Graphics/SVG/1.1/DTD/svg11.dtd"><svg class="icon" width="200px" height="200.00px" viewBox="0 0 1024 1024" version="1.1" xmlns="http://www.w3.org/2000/svg"><path fill="currentColor" d="M512.342496 50.582436c-257.129168 0-465.581036 208.441165-465.581035 465.570333s208.451868 465.581036 465.581035 465.581035 465.581036-208.451868 465.581036-465.581035-208.441165-465.570333-465.581036-465.570333z m0 856.230282c-215.408826 0-390.659949-175.251124-390.659949-390.659949s175.251124-390.649246 390.659949-390.649247 390.659949 175.240421 390.65995 390.649247-175.251124 390.659949-390.65995 390.659949z"  /><path fill="currentColor" d="M715.474967 499.691536l-301.707214-189.314882-0.042812 0.064218c0.085624 0.053515 0.149842 0.128436 0.224763 0.181951a16.910759 16.910759 0 0 0-8.862094-2.55802c-9.55779 0-17.263959 7.877417-17.478019 17.638565-0.021406-0.128436-0.042812-0.246169-0.042812-0.374606V706.398813h0.042812c0 0.171248-0.042812 0.331793-0.042812 0.503041a17.33888 17.33888 0 0 0 17.349583 17.349583c3.424964 0 6.710789-1.027489 9.55779-2.718565h0.021406l0.085624-0.064218c0.21406-0.128436 0.438824-0.246169 0.652884-0.396011l300.101762-187.891382a18.023873 18.023873 0 0 0 11.0134-16.760917 18.066685 18.066685 0 0 0-10.874261-16.728808z m-252.987102 103.401802v-173.699187l138.550494 86.940569-138.550494 86.758618z"  /></svg>