<?xml version="1.0" standalone="no"?><!DOCTYPE svg PUBLIC "-//W3C//DTD SVG 1.1//EN" "http://www.w3.org/Graphics/SVG/1.1/DTD/svg11.dtd"><svg class="icon" width="200px" height="200.00px" viewBox="0 0 1024 1024" version="1.1" xmlns="http://www.w3.org/2000/svg"><path fill="currentColor" d="M918.40512 499.2c-2.11968-47.5648-40.0384-85.77024-88.1152-85.77024a89.27232 89.27232 0 0 0-40.30464 9.65632c-8.89856-44.56448-48.19968-78.14144-95.37536-78.14144-16.68096 0-32.3584 4.20864-46.08 11.60192v-3.39968a89.6 89.6 0 0 0-89.6-89.6 89.05728 89.05728 0 0 0-39.66976 9.34912v-49.99168a89.6 89.6 0 0 0-179.2 0v259.00032h-0.02048v127.88736l-53.0432-53.0432c-37.65248-37.66272-98.48832-37.85728-135.89504-0.44032-37.39648 37.39648-37.20192 98.24256 0.44032 135.8848l236.48256 236.50304c37.57056 44.6976 93.83936 73.17504 156.80512 73.17504h168.97024c113.11104 0 204.8-91.6992 204.8-204.8v-297.8816h-0.19456z m-50.9952 297.8816c0 84.69504-68.90496 153.6-153.6 153.6H544.83968a153.38496 153.38496 0 0 1-117.61664-54.91712l-1.42336-1.69984-238.04928-238.05952a45.19936 45.19936 0 0 1-13.3632-32 43.97056 43.97056 0 0 1 12.92288-31.47776 44.032 44.032 0 0 1 31.34464-12.94336 45.1584 45.1584 0 0 1 32.14336 13.38368l140.45184 140.43136v-149.7088h0.02048v-360.76544a38.44096 38.44096 0 0 1 38.4-38.4 38.4512 38.4512 0 0 1 38.4 38.4V475.53536c0 14.49984 11.73504 26.23488 26.23488 26.23488s26.23488-11.73504 26.23488-26.23488v-122.368a38.44096 38.44096 0 0 1 38.4-38.4 38.4512 38.4512 0 0 1 38.4 38.4v18.61632c-0.06144 0.69632-0.21504 1.37216-0.21504 2.07872v153.61024a25.6 25.6 0 1 0 51.2 0v-66.67264h0.21504v-18.55488c0-25.40544 20.67456-46.08 46.08-46.08 24.69888 0 44.75904 19.57888 45.86496 44.00128v151.32672a25.6 25.6 0 1 0 51.2 0v-76.8h0.21504v-11.65312a38.4512 38.4512 0 0 1 38.4-38.4c21.15584 0 37.0688 17.7152 37.0688 38.89152l0.0512 80.15872v213.39136z"  /><path fill="currentColor" d="M302.72512 274.05312a142.42816 142.42816 0 0 1-17.92-69.25312c0-79.0528 64.3072-143.36 143.36-143.36s143.36 64.3072 143.36 143.36c0 11.9296-1.61792 23.4496-4.38272 34.52928l46.03904 25.47712c6.144-18.92352 9.54368-39.05536 9.54368-60.0064 0-107.44832-87.11168-194.56-194.56-194.56s-194.56 87.11168-194.56 194.56c0 59.61728 26.89024 112.90624 69.12 148.60288V274.05312z"  /></svg>