<?xml version="1.0" standalone="no"?><!DOCTYPE svg PUBLIC "-//W3C//DTD SVG 1.1//EN" "http://www.w3.org/Graphics/SVG/1.1/DTD/svg11.dtd"><svg class="icon" width="200px" height="200.00px" viewBox="0 0 1024 1024" version="1.1" xmlns="http://www.w3.org/2000/svg"><path fill="currentColor" d="M874.57792 291.84H771.50208V124.50816a51.2 51.2 0 0 0-51.2-51.2h-399.36a51.2 51.2 0 0 0-51.2 51.2V291.84H166.66624c-56.55552 0-102.4 45.84448-102.4 102.4V706.56c0 56.54528 45.84448 102.4 102.4 102.4h103.0656v-71.68H166.66624c-16.93696 0-30.72-13.78304-30.72-30.72V394.24c0-16.93696 13.78304-30.72 30.72-30.72h707.91168c16.93696 0 30.72 13.78304 30.72 30.72V706.56c0 16.93696-13.78304 30.72-30.72 30.72H771.50208v-70.4a51.2 51.2 0 0 0-51.2-51.2h-399.36a51.2 51.2 0 0 0-51.2 51.2v240.64a51.2 51.2 0 0 0 51.2 51.2h399.36a51.2 51.2 0 0 0 51.2-51.2V808.96h103.07584c56.54528 0 102.4-45.85472 102.4-102.4V394.24c0-56.55552-45.84448-102.4-102.4-102.4z m-533.15584 0V144.98816h358.4V291.84h-358.4z m358.4 595.2h-358.4v-199.68h358.4v199.68z"  /><path fill="currentColor" d="M296.45824 494.9504m-35.84 0a35.84 35.84 0 1 0 71.68 0 35.84 35.84 0 1 0-71.68 0Z"  /><path fill="currentColor" d="M403.97824 494.9504m-35.84 0a35.84 35.84 0 1 0 71.68 0 35.84 35.84 0 1 0-71.68 0Z"  /></svg>