<?xml version="1.0" standalone="no"?><!DOCTYPE svg PUBLIC "-//W3C//DTD SVG 1.1//EN" "http://www.w3.org/Graphics/SVG/1.1/DTD/svg11.dtd"><svg class="icon" width="200px" height="200.00px" viewBox="0 0 1024 1024" version="1.1" xmlns="http://www.w3.org/2000/svg"><path fill="currentColor" d="M781.66016 286.27968V168.23296C781.66016 106.42432 734.27968 56.32 675.84 56.32s-105.80992 50.10432-105.80992 111.91296v15.4112a399.65696 399.65696 0 0 0-59.37152-4.44416c-219.136 0-396.8 177.664-396.8 396.8 0 219.14624 177.664 396.8 396.8 396.8 219.14624 0 396.8-177.65376 396.8-396.8 0-114.33984-48.41472-217.30304-125.7984-289.72032zM641.71008 168.23296c0-22.19008 15.3088-40.23296 34.12992-40.23296s34.14016 18.04288 34.14016 40.23296v64.70656a394.57792 394.57792 0 0 0-68.27008-31.47776v-33.2288zM510.65856 901.12c-179.27168 0-325.12-145.84832-325.12-325.12S331.38688 250.88 510.65856 250.88c20.2752 0 40.11008 1.95584 59.37152 5.5296v208.32256a121.38496 121.38496 0 0 0-50.41152-10.96704c-67.52256 0-122.24512 54.72256-122.24512 122.24512 0 67.51232 54.72256 122.24512 122.24512 122.24512 67.19488 0 121.67168-54.2208 122.19392-121.28256h0.04096l-0.02048-0.38912c0-0.19456 0.03072-0.37888 0.03072-0.57344 0-1.03424-0.13312-2.01728-0.1536-3.04128V278.55872c114.16576 50.50368 194.06848 164.78208 194.06848 297.44128 0 179.27168-145.84832 325.12-325.12 325.12z m59.52512-325.12c0 27.88352-22.6816 50.56512-50.56512 50.56512s-50.56512-22.6816-50.56512-50.56512 22.6816-50.56512 50.56512-50.56512 50.56512 22.6816 50.56512 50.56512z"  /></svg>