<?xml version="1.0" standalone="no"?><!DOCTYPE svg PUBLIC "-//W3C//DTD SVG 1.1//EN" "http://www.w3.org/Graphics/SVG/1.1/DTD/svg11.dtd"><svg class="icon" width="200px" height="200.00px" viewBox="0 0 1024 1024" version="1.1" xmlns="http://www.w3.org/2000/svg"><path fill="currentColor" d="M942.539373 335.924744a37.460543 37.460543 0 0 0-51.920312 10.510359l-26.768234 40.361059c-54.799423-166.560278-211.523632-286.872839-396.439576-286.872839-230.532182 0-417.41748 186.885298-417.41748 417.41748s186.885298 417.41748 417.41748 417.41748c162.642975 0 303.462508-93.084098 372.347095-228.830403l-0.224763-0.128436c3.33934-5.715409 5.383615-12.308464 5.383615-19.447373 0-21.052825-16.718105-38.12413-37.353513-38.12413-13.817589 0-25.751448 7.770387-32.216067 19.158392l-0.10703-0.064218c-55.709179 113.880051-172.757322 192.515082-307.84004 192.515082-188.854652 0-342.496394-153.641742-342.496394-342.496394s153.641742-342.496394 342.496394-342.496394c176.107365 0 321.550599 133.627109 340.377197 304.811088l0.010703 0.010703a37.278592 37.278592 0 0 0 37.546167 40.874804l0.13914 0.010703a37.867258 37.867258 0 0 0 34.602838-22.690386l72.962435-110.026967a37.428434 37.428434 0 0 0-10.499655-51.90961z"  /></svg>