<?xml version="1.0" standalone="no"?><!DOCTYPE svg PUBLIC "-//W3C//DTD SVG 1.1//EN" "http://www.w3.org/Graphics/SVG/1.1/DTD/svg11.dtd"><svg class="icon" width="200px" height="200.00px" viewBox="0 0 1024 1024" version="1.1" xmlns="http://www.w3.org/2000/svg"><path fill="currentColor" d="M927.897652 113.740912l-20.817359-20.817359c-75.231474-75.231474-197.213705-75.231474-272.445178 0l-88.931329 88.931329c-44.738591 44.738591-62.655434 105.938416-54.167946 164.077179l0.149843 0.149842c1.027489 7.920229 4.431047 15.594289 10.510358 21.695006a37.460543 37.460543 0 0 0 52.969208 0 37.385622 37.385622 0 0 0 10.114346-34.260342l0.085624-0.085624c-4.580889-35.030959 6.443213-71.720886 33.297072-98.585447l88.931329-88.931329c45.90522-45.90522 120.601543-45.926626 166.506763 0l20.817358 20.795953c45.883814 45.90522 45.90522 120.601543 0 166.506762l-88.931329 88.93133c-26.864561 26.864561-63.554487 37.877961-98.585446 33.318477l-0.10703 0.10703a37.332107 37.332107 0 0 0-34.217531 10.114347 37.44984 37.44984 0 0 0 0 52.969208 37.139453 37.139453 0 0 0 21.695006 10.510358l0.128436 0.10703c58.117357 8.508895 119.317181-9.429354 164.055773-54.146539l88.931329-88.952736c75.25288-75.220771 75.25288-197.203002 0.010703-272.434475zM532.453457 671.742459l-0.107031-0.128436a37.203671 37.203671 0 0 0-10.510358-21.695006 37.44984 37.44984 0 0 0-52.969208 0 37.299998 37.299998 0 0 0-10.114346 34.21753l-0.128436 0.10703c4.580889 35.009553-6.443213 71.720886-33.297072 98.585447l-88.931329 88.931329c-45.90522 45.90522-120.601543 45.883814-166.506763 0l-20.795952-20.817359c-45.90522-45.90522-45.90522-120.601543 0-166.506763l88.931329-88.931329c26.864561-26.864561 63.554487-37.877961 98.585446-33.297071l0.085624-0.085624a37.417731 37.417731 0 0 0 34.260343-63.083555 37.139453 37.139453 0 0 0-21.716412-10.510358l-0.128436-0.149842c-58.138763-8.487489-119.338587 9.429354-164.055773 54.167945L96.123754 631.477726c-75.231474 75.231474-75.231474 197.213705 0 272.445179l20.795953 20.817359c75.231474 75.231474 197.213705 75.231474 272.466584 0l88.931329-88.931329c44.706482-44.749294 62.644731-105.959822 54.135837-164.066476z"  /><path fill="currentColor" d="M376.467755 697.344064l325.435792-325.435792a37.471246 37.471246 0 0 0-52.990613-52.969208l-325.414387 325.435792a37.44984 37.44984 0 1 0 52.969208 52.969208z"  /></svg>