<?xml version="1.0" standalone="no"?><!DOCTYPE svg PUBLIC "-//W3C//DTD SVG 1.1//EN" "http://www.w3.org/Graphics/SVG/1.1/DTD/svg11.dtd"><svg class="icon" width="200px" height="200.00px" viewBox="0 0 1024 1024" version="1.1" xmlns="http://www.w3.org/2000/svg"><path fill="currentColor" d="M931.96288 80.46592c-79.98464-79.99488-209.65376-79.99488-289.62816-0.01024l-207.5648 207.57504c-78.67392 78.67392-79.77984 205.30176-3.69664 285.5424 0.60416 0.70656 1.08544 1.49504 1.76128 2.17088 0.22528 0.22528 0.50176 0.36864 0.72704 0.59392 0.41984 0.43008 0.768 0.90112 1.19808 1.3312h0.01024l0.18432-0.19456a35.7376 35.7376 0 0 0 48.56832-1.73056 35.69664 35.69664 0 0 0 1.73056-48.55808l0.2048-0.2048c-51.89632-51.89632-51.89632-136.35584 0-188.2624l207.57504-207.57504c51.89632-51.90656 136.3456-51.90656 188.2624-0.01024 51.89632 51.9168 51.89632 136.36608 0 188.28288l-176.80384 176.78336 0.11264 0.11264c-12.98432 14.04928-12.73856 35.92192 0.91136 49.57184s35.51232 13.88544 49.5616 0.91136l0.11264 0.11264 176.7936-176.80384c79.96416-79.98464 79.96416-209.65376-0.02048-289.6384z"  /><path fill="currentColor" d="M591.16544 425.13408c-0.22528-0.22528-0.50176-0.37888-0.72704-0.60416-0.41984-0.43008-0.768-0.90112-1.19808-1.3312l-0.01024-0.01024-0.19456 0.2048a35.70688 35.70688 0 0 0-48.55808 1.7408c-13.33248 13.32224-13.81376 34.46784-1.7408 48.55808l-0.19456 0.19456c51.89632 51.90656 51.89632 136.3456 0 188.27264l-207.5648 207.5648c-51.90656 51.89632-136.3456 51.89632-188.2624 0s-51.90656-136.35584-0.01024-188.2624l176.80384-176.80384-0.1024-0.1024a35.77856 35.77856 0 0 0-0.9216-49.58208 35.7888 35.7888 0 0 0-49.57184-0.90112l-0.1024-0.1024-176.7936 176.78336c-79.99488 79.99488-79.98464 209.664 0 289.6384 79.98464 79.98464 209.64352 79.98464 289.6384 0l207.5648-207.5648c78.66368-78.66368 79.77984-205.28128 3.70688-285.53216-0.59392-0.69632-1.08544-1.4848-1.76128-2.16064z"  /></svg>