<?xml version="1.0" standalone="no"?><!DOCTYPE svg PUBLIC "-//W3C//DTD SVG 1.1//EN" "http://www.w3.org/Graphics/SVG/1.1/DTD/svg11.dtd"><svg class="icon" width="200px" height="200.00px" viewBox="0 0 1024 1024" version="1.1" xmlns="http://www.w3.org/2000/svg"><path fill="currentColor" d="M945.075987 220.160963L629.123064 65.299078v252.088049h0.139139l-102.57767 90.493969c-19.843385 8.326944-30.385852-0.88835-30.685536-1.166628l-101.250497-89.327341h0.074921V65.320484L78.902607 220.171666v424.567093l163.734682 80.251186v164.119991a53.515062 53.515062 0 0 0 53.515062 53.515061h431.695298c29.572423 0 53.515062-23.942639 53.515062-53.515061V725.011351l163.734682-80.240483L945.075987 220.160963zM706.441625 678.292702v189.411209H317.558375V678.292702l-163.734682-80.261889V266.890315l45.316554-22.219454 4.495265 3.970818v-6.164935l116.25612-56.993541v56.993541h-0.363902v108.442921L446.422644 462.89458c8.722955 7.684763 30.696239 23.386082 64.517758 23.386081 14.952108 0 30.011247-3.12528 44.738591-9.31162l11.345193-4.762841 139.663608-123.213078v-106.527081h-2.643644v-57.014947l116.309635 57.014947h2.215523v4.281205l2.322554-2.054979 45.263039 22.176642 0.021406 331.172607-163.734682 80.251186z"  /><path fill="currentColor" d="M672.545185 576.068232a37.460543 37.460543 0 0 1-37.460543 37.460543h-246.169284a37.460543 37.460543 0 1 1 0-74.921086h246.169284a37.460543 37.460543 0 0 1 37.460543 37.460543z"  /></svg>