<?xml version="1.0" standalone="no"?><!DOCTYPE svg PUBLIC "-//W3C//DTD SVG 1.1//EN" "http://www.w3.org/Graphics/SVG/1.1/DTD/svg11.dtd"><svg class="icon" width="200px" height="200.00px" viewBox="0 0 1024 1024" version="1.1" xmlns="http://www.w3.org/2000/svg"><path fill="currentColor" d="M983.04 419.84c0-56.54528-45.85472-102.4-102.4-102.4H143.36C86.80448 317.44 40.96 363.29472 40.96 419.84v460.8c0 56.54528 45.84448 102.4 102.4 102.4h737.28c56.54528 0 102.4-45.85472 102.4-102.4V419.84z m-71.68 460.8a30.72 30.72 0 0 1-30.72 30.72H143.36a30.72 30.72 0 0 1-30.72-30.72V419.84a30.72 30.72 0 0 1 30.72-30.72h737.28a30.72 30.72 0 0 1 30.72 30.72v460.8z"  /><path fill="currentColor" d="M293.59104 532.48s-0.0512-0.5632-0.0512-1.69984c0-223.87712 107.06944-412.17024 233.80992-412.17024 126.74048 0 233.80992 187.86304 233.80992 411.74016 0 1.13664-0.0512 2.12992-0.0512 2.12992h71.68s0.0512-0.5632 0.0512-1.69984c0-267.70432-136.76544-483.85024-305.48992-483.85024S221.87008 262.656 221.87008 530.35008c0 1.14688 0.0512 2.12992 0.0512 2.12992h71.66976z"  /><path fill="currentColor" d="M256 530.76992m-51.2 0a51.2 51.2 0 1 0 102.4 0 51.2 51.2 0 1 0-102.4 0Z"  /><path fill="currentColor" d="M798.72 530.76992m-51.2 0a51.2 51.2 0 1 0 102.4 0 51.2 51.2 0 1 0-102.4 0Z"  /></svg>