<?xml version="1.0" standalone="no"?><!DOCTYPE svg PUBLIC "-//W3C//DTD SVG 1.1//EN" "http://www.w3.org/Graphics/SVG/1.1/DTD/svg11.dtd"><svg class="icon" width="200px" height="200.00px" viewBox="0 0 1024 1024" version="1.1" xmlns="http://www.w3.org/2000/svg"><path fill="currentColor" d="M131.968142 161.733219a33.842925 33.842925 0 0 1 33.800113-33.800113h207.103288v-74.921086h-207.103288c-60.033196 0-108.721199 48.666597-108.721199 108.721199v224.303029h74.921086v-224.303029zM861.806551 53.01202h-207.081882v74.921086h207.081882a33.821519 33.821519 0 0 1 33.800113 33.800113v224.303029h74.921086v-224.303029c0-60.054602-48.688003-108.721199-108.721199-108.721199zM895.606664 857.771516a33.821519 33.821519 0 0 1-33.800113 33.800113h-207.081882v74.921086h207.081882c60.033196 0 108.721199-48.688003 108.721199-108.721199v-189.871439h-74.921086v189.871439zM131.968142 857.771516v-189.871439h-74.921086v189.871439c0 60.033196 48.688003 108.721199 108.721199 108.721199h207.103288v-74.921086h-207.103288a33.842925 33.842925 0 0 1-33.800113-33.800113zM299.727157 509.752367a37.460543 37.460543 0 0 0 37.460543 37.460544h353.199406a37.460543 37.460543 0 1 0 0-74.921087h-353.199406a37.471246 37.471246 0 0 0-37.460543 37.460543z"  /></svg>