<?xml version="1.0" standalone="no"?><!DOCTYPE svg PUBLIC "-//W3C//DTD SVG 1.1//EN" "http://www.w3.org/Graphics/SVG/1.1/DTD/svg11.dtd"><svg class="icon" width="200px" height="200.00px" viewBox="0 0 1024 1024" version="1.1" xmlns="http://www.w3.org/2000/svg"><path fill="currentColor" d="M821.89312 595.52768c-72.3456 0-134.47168 43.3152-162.1504 105.39008l-98.5088-168.97024 235.30496-403.59936a35.84 35.84 0 0 0-61.93152-36.096l-214.85568 368.5376-0.86016 1.49504-139.14112 238.63296c-27.67872-62.06464-89.81504-105.39008-162.1504-105.39008-98.07872 0-177.59232 79.5136-177.59232 177.59232s79.5136 177.59232 177.59232 177.59232c75.4176 0 139.70432-47.104 165.44768-113.42848 0.26624-0.43008 0.63488-0.768 0.89088-1.21856l135.80288-232.93952 135.81312 232.93952c0.256 0.45056 0.6144 0.79872 0.89088 1.2288 25.7536 66.32448 90.03008 113.41824 165.44768 113.41824 98.07872 0 177.59232-79.5136 177.59232-177.59232s-79.5136-177.59232-177.59232-177.59232zM217.6 879.03232c-58.39872 0-105.91232-47.5136-105.91232-105.91232s47.5136-105.91232 105.91232-105.91232 105.91232 47.5136 105.91232 105.91232-47.5136 105.91232-105.91232 105.91232z m604.29312 0c-58.39872 0-105.91232-47.5136-105.91232-105.91232s47.5136-105.91232 105.91232-105.91232 105.91232 47.5136 105.91232 105.91232-47.5136 105.91232-105.91232 105.91232z"  /><path fill="currentColor" d="M429.52704 448.36864l0.41984-0.68608a35.75808 35.75808 0 0 0 45.5168 8.28416 35.84 35.84 0 0 0 13.06624-48.96768L447.488 336.09728c-0.68608-1.19808-1.56672-2.21184-2.37568-3.28704L304.88576 92.25216a35.85024 35.85024 0 0 0-61.93152 36.096l186.5728 320.02048z"  /></svg>