<?xml version="1.0" standalone="no"?><!DOCTYPE svg PUBLIC "-//W3C//DTD SVG 1.1//EN" "http://www.w3.org/Graphics/SVG/1.1/DTD/svg11.dtd"><svg class="icon" width="200px" height="200.00px" viewBox="0 0 1024 1024" version="1.1" xmlns="http://www.w3.org/2000/svg"><path fill="currentColor" d="M926.96649 155.236491H412.119489c-59.102034 0-117.283609 20.078851-67.79288 107.030123l196.229028 284.004431 0.88835 0.513745V809.447415l209.607793 106.580597c34.78479 15.615695 53.515062-6.550244 53.515062-36.111964v-331.793381l197.995024-285.856053c30.77116-46.611619-16.482639-107.030123-75.595376-107.030123z m-197.320735 369.467985v296.377114l-113.280682-57.603613V525.624935l-23.77139-35.833686-179.39319-259.633672h513.765997c2.09779 0 4.067145 0.556557 5.758221 1.348579L729.645755 524.704476zM286.830027 192.697034c0 20.688923-15.572883 37.460543-34.78479 37.460543H74.075548c-19.211907 0-34.78479-16.77162-34.78479-37.460543s15.572883-37.460543 34.78479-37.460543h177.969689c19.211907 0 34.78479 16.77162 34.78479 37.460543zM286.830027 493.708552c0 20.699626-15.572883 37.460543-34.78479 37.460543H74.075548c-19.211907 0-34.78479-16.760917-34.78479-37.460543 0-20.67822 15.572883-37.460543 34.78479-37.460543h177.969689c19.211907 0 34.78479 16.782323 34.78479 37.460543zM387.138658 794.730773c0 20.688923-15.572883 37.460543-34.78479 37.460543h-278.27832c-19.211907 0-34.78479-16.77162-34.78479-37.460543 0-20.699626 15.572883-37.460543 34.78479-37.460543h278.27832c19.211907 0 34.78479 16.760917 34.78479 37.460543z"  /></svg>