<?xml version="1.0" standalone="no"?><!DOCTYPE svg PUBLIC "-//W3C//DTD SVG 1.1//EN" "http://www.w3.org/Graphics/SVG/1.1/DTD/svg11.dtd"><svg class="icon" width="200px" height="200.00px" viewBox="0 0 1024 1024" version="1.1" xmlns="http://www.w3.org/2000/svg"><path fill="currentColor" d="M398.86916 752.539499h74.921086V411.87332L239.993645 174.576834h517.083931L556.588749 415.490938v337.037858h74.921086V442.590965l267.575308-321.529193a21.406025 21.406025 0 0 0-21.406024-21.406024H103.498129a21.406025 21.406025 0 0 0-21.406025 21.406024l316.777056 321.529193v309.948534z"  /><path fill="currentColor" d="M631.274369 876.287727a37.460543 37.460543 0 1 1-74.921086 0v-246.169283a37.460543 37.460543 0 1 1 74.921086 0v246.169283zM485.649184 749.435625a37.44984 37.44984 0 1 1-52.969208 52.969208l-22.701089-22.701089a37.44984 37.44984 0 1 1 52.969208-52.969208l22.701089 22.701089z"  /></svg>