<?xml version="1.0" standalone="no"?><!DOCTYPE svg PUBLIC "-//W3C//DTD SVG 1.1//EN" "http://www.w3.org/Graphics/SVG/1.1/DTD/svg11.dtd"><svg class="icon" width="200px" height="200.00px" viewBox="0 0 1024 1024" version="1.1" xmlns="http://www.w3.org/2000/svg"><path fill="currentColor" d="M949.549846 893.466062l-188.180362-188.180363a390.777683 390.777683 0 0 0 86.961975-246.254907c0-216.735999-175.70065-392.436649-392.43665-392.436649-216.735999 0-392.447352 175.70065-392.447352 392.436649s175.70065 392.436649 392.447352 392.43665c96.46625 0 184.744696-34.870414 253.08343-92.623869l187.591696 187.591697a37.44984 37.44984 0 1 0 52.979911-52.969208z m-811.1706-434.43527c0-175.069172 142.446391-317.515563 317.526266-317.515563 175.069172 0 317.515563 142.446391 317.515564 317.515563s-142.446391 317.515563-317.515564 317.515563c-175.090578 0-317.526266-142.446391-317.526266-317.515563z"  /></svg>