<?xml version="1.0" standalone="no"?><!DOCTYPE svg PUBLIC "-//W3C//DTD SVG 1.1//EN" "http://www.w3.org/Graphics/SVG/1.1/DTD/svg11.dtd"><svg class="icon" width="200px" height="200.00px" viewBox="0 0 1024 1024" version="1.1" xmlns="http://www.w3.org/2000/svg"><path fill="currentColor" d="M886.894412 78.517298L85.955892 546.078391C68.11397 612.297928 121.629032 620.774714 121.629032 620.774714s112.510065 28.041892 245.248824 60.964358l0.074921-0.128436 18.066685 4.720029a37.481949 37.481949 0 0 0 45.723269-26.778937 37.353513 37.353513 0 0 0-22.326484-44.053599l0.353199-0.56726-12.180028-3.018249-127.258816-33.232853a37.246483 37.246483 0 0 0-10.703012-1.027489l-54.831533-13.624935 656.437152-383.210653-79.148776 525.528608c-32.772624-7.738278-94.400569-22.786713-166.870665-40.628635l-33.307775-8.701549L780.891778 457.040032a37.460543 37.460543 0 1 0-52.979911-52.979911L481.592742 650.389949a37.225077 37.225077 0 0 0-14.395552 29.304848v246.15858c0 2.461693 0.256872 4.923386 0.738508 7.35297 0.224763 1.145222 0.652884 2.204821 0.984677 3.317933 0.363902 1.230846 0.652884 2.472396 1.13452 3.681837 0.545854 1.305768 1.284361 2.493802 1.958651 3.724648 0.503042 0.909756 0.899053 1.851621 1.477016 2.729268 2.750674 4.12066 6.293371 7.652654 10.414031 10.403328 0.738508 0.503042 1.551937 0.824132 2.322553 1.262955 1.34858 0.770617 2.686456 1.573343 4.142066 2.172712 0.99538 0.406714 2.022869 0.631478 3.039656 0.952568 1.316471 0.406714 2.590129 0.899053 3.949411 1.166628 1.862324 0.363902 3.756757 0.481636 5.640488 0.56726 0.556557 0.021406 1.081004 0.171248 1.648264 0.171248 0.503042 0 0.973974-0.128436 1.466312-0.149842 1.958651-0.085624 3.917303-0.21406 5.843845-0.599369 1.20944-0.224763 2.322554-0.67429 3.489182-1.027489 1.177331-0.353199 2.376069-0.631478 3.510588-1.10241 1.284361-0.535151 2.45099-1.262955 3.671133-1.937245 0.931162-0.503042 1.905136-0.909756 2.793486-1.509125 2.054978-1.380689 3.981521-2.932625 5.726112-4.687919l136.227941-136.217238a37.514058 37.514058 0 0 0 0-52.979911 37.503355 37.503355 0 0 0-52.990614-0.010703l-72.266739 72.266739V724.337061l5.3301 1.391392-0.56726 0.56726 47.778247 11.773313 81.995777 21.416728c3.253716 0.845538 6.486025 1.091707 9.69693 1.070301 49.554947 12.083701 86.084328 20.860171 99.174112 23.696469 62.741058 13.624935 65.684387-40.371762 65.684386-40.371762l94.550411-627.892218c-7.128206-60.664674-58.866568-37.471246-58.866568-37.471246z"  /></svg>