<?xml version="1.0" standalone="no"?><!DOCTYPE svg PUBLIC "-//W3C//DTD SVG 1.1//EN" "http://www.w3.org/Graphics/SVG/1.1/DTD/svg11.dtd"><svg class="icon" width="200px" height="200.00px" viewBox="0 0 1024 1024" version="1.1" xmlns="http://www.w3.org/2000/svg"><path fill="currentColor" d="M798.67904 626.29888c-55.552 0-105.14432 25.41568-137.8304 65.24928l-246.46656-135.10656c2.85696-12.65664 4.49536-25.79456 4.49536-39.3216 0-7.64928-0.63488-15.13472-1.57696-22.528l245.63712-134.656c32.68608 38.44096 81.32608 62.89408 135.74144 62.89408 98.43712 0 178.23744-79.80032 178.23744-178.23744s-79.80032-178.23744-178.23744-178.23744-178.23744 79.80032-178.23744 178.23744c0 18.29888 2.77504 35.95264 7.89504 52.57216l-234.8032 128.7168c-31.11936-52.03968-87.8592-86.9888-152.90368-86.9888-98.43712 0-178.23744 79.80032-178.23744 178.23744s79.80032 178.23744 178.23744 178.23744c59.2384 0 111.57504-29.02016 143.98464-73.48224l242.93376 133.16096a178.21696 178.21696 0 0 0-7.10656 49.50016c0 98.43712 79.80032 178.23744 178.23744 178.23744s178.23744-79.80032 178.23744-178.23744-79.79008-178.24768-178.23744-178.24768z m0-488.28416c58.75712 0 106.55744 47.81056 106.55744 106.55744 0 58.75712-47.80032 106.55744-106.55744 106.55744a106.5472 106.5472 0 0 1-88.4224-47.14496c-0.7168-3.09248-1.71008-6.144-3.30752-9.0624a35.3792 35.3792 0 0 0-5.82656-7.63904 105.84064 105.84064 0 0 1-9.00096-42.71104c0-58.74688 47.80032-106.55744 106.55744-106.55744z m-558.03904 485.66272c-58.75712 0-106.55744-47.80032-106.55744-106.55744 0-58.74688 47.80032-106.55744 106.55744-106.55744s106.55744 47.81056 106.55744 106.55744c0 58.75712-47.80032 106.55744-106.55744 106.55744z m558.03904 287.42656c-58.75712 0-106.55744-47.80032-106.55744-106.55744S739.92192 697.98912 798.67904 697.98912s106.55744 47.80032 106.55744 106.55744-47.80032 106.55744-106.55744 106.55744z"  /></svg>