<?xml version="1.0" standalone="no"?><!DOCTYPE svg PUBLIC "-//W3C//DTD SVG 1.1//EN" "http://www.w3.org/Graphics/SVG/1.1/DTD/svg11.dtd"><svg class="icon" width="200px" height="200.00px" viewBox="0 0 1024 1024" version="1.1" xmlns="http://www.w3.org/2000/svg"><path fill="currentColor" d="M879.466522 513.958651v323.584172c0 17.702782-14.406255 32.109037-32.109037 32.109036H190.898928c-17.702782 0-32.109037-14.406255-32.109037-32.109036V190.353074c0-17.702782 14.406255-32.109037 32.109037-32.109037h328.229278v-74.921086H190.898928c-59.102034 0-107.030123 47.928089-107.030124 107.030123v647.189749c0 59.102034 47.928089 107.030123 107.030124 107.030123H847.357485c59.102034 0 107.030123-47.928089 107.030123-107.030123V513.958651h-74.921086zM64.218074 560.795033v404.038715"  /><path fill="currentColor" d="M614.802433 482.352656a37.481949 37.481949 0 0 1-52.979911 0 37.481949 37.481949 0 0 1 0-52.979911L887.247612 103.947656a37.481949 37.481949 0 0 1 52.979911 0 37.481949 37.481949 0 0 1 0 52.979911L614.802433 482.352656z"  /><path fill="currentColor" d="M954.387608 130.448314a37.460543 37.460543 0 0 1-37.460543 37.460543h-192.654222a37.460543 37.460543 0 1 1 0-74.921086h192.654222a37.460543 37.460543 0 0 1 37.460543 37.460543z"  /><path fill="currentColor" d="M916.927065 360.563079a37.460543 37.460543 0 0 1-37.460543-37.460543v-192.654222a37.460543 37.460543 0 1 1 74.921086 0v192.654222a37.460543 37.460543 0 0 1-37.460543 37.460543z"  /></svg>