<?xml version="1.0" standalone="no"?><!DOCTYPE svg PUBLIC "-//W3C//DTD SVG 1.1//EN" "http://www.w3.org/Graphics/SVG/1.1/DTD/svg11.dtd"><svg class="icon" width="200px" height="200.00px" viewBox="0 0 1024 1024" version="1.1" xmlns="http://www.w3.org/2000/svg"><path fill="currentColor" d="M884.96787 201.612643c0-115.057382-141.814913-125.760395-141.814913-125.760395h-444.442586s-141.814913 10.703012-141.814914 125.760395-34.78479 623.450467-34.78479 623.450467 2.675753 155.568284 219.411753 155.568284h358.818488c216.735999 0 219.411752-155.568284 219.411752-155.568284s-34.78479-508.393085-34.78479-623.450467z m-184.626962 704.097665H341.511717c-130.437611 0-143.142087-66.808203-144.372933-79.855175 3.617618-53.076238 34.667057-512.353199 34.667057-624.24249 0-40.68215 58.545477-49.480026 70.436524-50.839309h437.271568c13.00416 1.509125 70.522148 10.488952 70.522148 50.839309 0 111.215001 30.674833 565.589983 34.592136 623.225704-2.547317 22.272969-21.095637 80.871961-144.287309 80.871961z"  /><path fill="currentColor" d="M713.409286 289.120472c0.021406-1.123816 0.171248-2.226227 0.171248-3.350043h-0.503042c-2.483099-18.280745-18.002467-32.419424-36.957501-32.419425s-34.474403 14.138679-36.957502 32.419425h-0.503041c0 64.91377-52.819366 117.733135-117.733136 117.733135s-117.733135-52.819366-117.733135-117.733135h-0.503042c-2.483099-18.280745-18.002467-32.419424-36.957501-32.419425s-34.474403 14.138679-36.957502 32.419425h-0.503041c0 1.123816 0.149842 2.226227 0.171248 3.350043-0.021406 0.577963-0.171248 1.113113-0.171248 1.680373 0 1.733888 0.278278 3.382152 0.513744 5.062524 5.276585 101.678617 89.14539 182.561281 192.140477 182.561281s186.863892-80.882664 192.140477-182.561281c0.224763-1.66967 0.513745-3.328637 0.513745-5.062524 0-0.577963-0.149842-1.113113-0.171248-1.680373z"  /></svg>