<?xml version="1.0" standalone="no"?><!DOCTYPE svg PUBLIC "-//W3C//DTD SVG 1.1//EN" "http://www.w3.org/Graphics/SVG/1.1/DTD/svg11.dtd"><svg class="icon" width="200px" height="200.00px" viewBox="0 0 1024 1024" version="1.1" xmlns="http://www.w3.org/2000/svg"><path fill="currentColor" d="M898.64632 328.250685a53.515062 53.515062 0 0 0-53.515062-53.515062H721.91818c-10.33911-107.832849-101.132763-192.193992-211.684177-192.193992s-201.355771 84.361143-211.684178 192.193992H175.336748a53.515062 53.515062 0 0 0-53.515062 53.515062l-53.515061 581.098647a53.515062 53.515062 0 0 0 53.515061 53.515062l388.412317-5.89736 388.412317 5.89736a53.515062 53.515062 0 0 0 53.515061-53.515062l-53.515061-581.098647z m-388.412317-170.787968c68.991617 0 126.135 51.02126 136.099505 117.272906H374.123795c9.975207-66.262349 67.129293-117.272906 136.110208-117.272906z m0 724.583231l-364.683739 5.522754 49.533541-537.911993h630.278989l49.544244 537.911993-364.673035-5.522754z"  /></svg>