<?xml version="1.0" standalone="no"?><!DOCTYPE svg PUBLIC "-//W3C//DTD SVG 1.1//EN" "http://www.w3.org/Graphics/SVG/1.1/DTD/svg11.dtd"><svg class="icon" width="200px" height="200.00px" viewBox="0 0 1024 1024" version="1.1" xmlns="http://www.w3.org/2000/svg"><path fill="currentColor" d="M368.408387 742.114765c-56.158706 0-101.678617 45.519911-101.678617 101.678617s45.519911 101.678617 101.678617 101.678617 101.678617-45.519911 101.678617-101.678617-45.519911-101.678617-101.678617-101.678617z m0 128.436147c-14.748751 0-26.757531-11.998077-26.757531-26.75753s12.00878-26.757531 26.757531-26.757531 26.757531 11.998077 26.757531 26.757531-12.00878 26.757531-26.757531 26.75753zM785.825867 720.70874c-56.158706 0-101.678617 45.519911-101.678617 101.678617s45.519911 101.678617 101.678617 101.678617 101.678617-45.519911 101.678617-101.678617-45.519911-101.678617-101.678617-101.678617z m0 128.436148c-14.759454 0-26.757531-11.998077-26.757531-26.757531s11.998077-26.757531 26.757531-26.757531 26.757531 11.998077 26.757531 26.757531-11.998077 26.757531-26.757531 26.757531zM962.265025 195.255054h-631.477726v0.909756a37.428434 37.428434 0 0 0-8.02726-0.909756h-76.00209l-11.33449-58.48126c0-0.128436 0.032109-0.246169 0.032109-0.385308a37.460543 37.460543 0 0 0-37.460543-37.460543h-139.13916a37.460543 37.460543 0 1 0 0 74.921086h107.436837l87.518532 451.549386s18.109497 69.879967 119.788114 69.879968h476.284048a37.460543 37.460543 0 1 0 0-74.921086h-476.284048c-33.061605 0-45.434287-11.741205-47.071848-13.528608l-14.117274-72.833999h58.513369c1.145222 0 2.226227-0.235466 3.350043-0.331793 151.618872 0.288981 404.991283 0.652884 462.230992-0.267575 82.948345-1.337877 88.299852-50.400485 88.299852-50.400485l73.58321-217.849113c25.419654-64.870958-36.122667-69.89067-36.122667-69.89067zM854.763969 456.248009c-3.66043 0.984677-9.846771 2.087087-19.468779 2.247632-24.060372 0.385308-86.469636 0.588666-185.493906 0.588666-110.026967 0-240.068566-0.246169-319.013985-0.42812v0.42812h-32.890357l-36.615005-188.908167h61.478102c2.761377 0 5.43713-0.342496 8.02726-0.909756v0.909756H917.612058l-62.848089 186.071869z"  /></svg>