<?xml version="1.0" standalone="no"?><!DOCTYPE svg PUBLIC "-//W3C//DTD SVG 1.1//EN" "http://www.w3.org/Graphics/SVG/1.1/DTD/svg11.dtd"><svg class="icon" width="200px" height="200.00px" viewBox="0 0 1024 1024" version="1.1" xmlns="http://www.w3.org/2000/svg"><path fill="currentColor" d="M512 67.8912c-246.00576 0-445.44 199.43424-445.44 445.44 0 4.03456 0.14336 8.02816 0.26624 12.02176-0.06144 0.90112-0.26624 1.77152-0.26624 2.68288v20.08064c0 12.9536 6.57408 24.36096 16.55808 31.09888a36.25984 36.25984 0 0 0 20.57216 6.37952h232.84736a35.77856 35.77856 0 0 0 34.65216-20.77696l49.39776-107.75552 36.28032 217.98912c3.01056 18.1248 19.16928 30.59712 37.07904 29.72672a35.70688 35.70688 0 0 0 31.9488-14.82752l66.48832-93.39904h163.072a35.84 35.84 0 0 0 0-71.69024h-184.32a35.7376 35.7376 0 0 0-34.3552 26.19392l-22.58944 31.75424-42.04544-252.69248a36.2496 36.2496 0 0 0-1.8944-7.03488c-0.24576-0.65536-0.62464-1.23904-0.90112-1.87392-0.6656-1.49504-1.3312-2.99008-2.2016-4.38272-0.38912-0.62464-0.88064-1.15712-1.31072-1.75104-0.93184-1.31072-1.85344-2.6112-2.9696-3.79904-0.36864-0.39936-0.8192-0.69632-1.20832-1.0752a37.0688 37.0688 0 0 0-4.0448-3.52256c-0.19456-0.14336-0.43008-0.22528-0.62464-0.36864a35.67616 35.67616 0 0 0-5.29408-3.10272 35.67616 35.67616 0 0 0-27.71968-0.86016c-0.48128 0.18432-0.89088 0.45056-1.36192 0.65536-1.65888 0.7168-3.30752 1.47456-4.84352 2.43712-0.64512 0.4096-1.18784 0.91136-1.80224 1.35168-1.26976 0.91136-2.54976 1.80224-3.69664 2.88768-0.58368 0.55296-1.05472 1.19808-1.59744 1.78176-1.03424 1.09568-2.08896 2.17088-2.97984 3.42016-0.8704 1.21856-1.54624 2.54976-2.26304 3.87072-0.39936 0.7168-0.89088 1.34144-1.23904 2.0992L316.22144 512.7168h-177.9712C138.58816 306.91328 306.11456 139.5712 512 139.5712c206.09024 0 373.76 167.66976 373.76 373.76S718.09024 887.0912 512 887.0912c-107.10016 0-203.75552-45.35296-271.96416-117.77024l-0.22528 0.17408a35.71712 35.71712 0 0 0-29.184-15.14496 35.84 35.84 0 0 0-35.84 35.84c0 8.42752 3.03104 16.06656 7.89504 22.19008l-0.39936 0.29696C263.9872 907.78624 376.7808 958.7712 512 958.7712c246.00576 0 445.44-199.43424 445.44-445.44S758.00576 67.8912 512 67.8912z"  /></svg>