<?xml version="1.0" standalone="no"?><!DOCTYPE svg PUBLIC "-//W3C//DTD SVG 1.1//EN" "http://www.w3.org/Graphics/SVG/1.1/DTD/svg11.dtd"><svg class="icon" width="200px" height="200.00px" viewBox="0 0 1024 1024" version="1.1" xmlns="http://www.w3.org/2000/svg"><path fill="currentColor" d="M507.09504 66.56c-246.00576 0-445.44 199.43424-445.44 445.44s199.43424 445.44 445.44 445.44 445.44-199.43424 445.44-445.44-199.43424-445.44-445.44-445.44z m0 819.2c-206.09024 0-373.76-167.66976-373.76-373.76s167.66976-373.76 373.76-373.76 373.76 167.66976 373.76 373.76-167.68 373.76-373.76 373.76z"  /><path fill="currentColor" d="M363.7248 327.9872a90.7264 90.7264 0 1 0 0 181.4528 90.7264 90.7264 0 0 0 0-181.4528z m0 130.2528a39.56736 39.56736 0 0 1-39.5264-39.51616 39.56736 39.56736 0 0 1 39.5264-39.5264 39.55712 39.55712 0 0 1 39.51616 39.5264 39.55712 39.55712 0 0 1-39.51616 39.51616zM660.69504 327.9872a90.7264 90.7264 0 1 0 0 181.44256 90.7264 90.7264 0 0 0 0-181.44256z m0 130.2528a39.56736 39.56736 0 0 1-39.51616-39.51616 39.56736 39.56736 0 0 1 39.51616-39.5264 39.55712 39.55712 0 0 1 39.51616 39.5264 39.54688 39.54688 0 0 1-39.51616 39.51616zM711.89504 625.5616c0-19.79392-16.04608-35.45088-35.84-35.45088-9.45152 0-17.98144 3.93216-24.39168 9.91232l-0.0512 0.04096c-0.04096 0.07168-0.08192 0.18432-0.12288 0.23552-3.87072 3.65568-6.89152 8.192-8.82688 13.25056-31.56992 43.008-84.11136 69.95968-138.97728 69.95968-57.11872 0-105.22624-30.9248-135.81312-77.18912-0.02048-0.02048-0.03072-1.00352-0.0512-1.024-0.04096-0.06144-0.08192-1.13664-0.12288-1.13664h-0.02048c-6.46144-10.24-17.27488-14.63296-29.55264-14.63296-19.79392 0-35.84 16.52736-35.84 36.33152 0 8.7552 3.2768 16.93696 8.50944 23.17312l-0.12288 0.21504c43.71456 63.11936 112.71168 105.10336 193.00352 105.10336C586.61888 754.35008 662.272 716.8 705.536 645.12h-0.02048c4.00384 0 6.37952-12.00128 6.37952-19.5584z"  /></svg>