<?xml version="1.0" standalone="no"?><!DOCTYPE svg PUBLIC "-//W3C//DTD SVG 1.1//EN" "http://www.w3.org/Graphics/SVG/1.1/DTD/svg11.dtd"><svg class="icon" width="200px" height="200.00px" viewBox="0 0 1024 1024" version="1.1" xmlns="http://www.w3.org/2000/svg"><path fill="currentColor" d="M513.71008 68.25984c-246.00576 0-445.44 199.43424-445.44 445.44s199.43424 445.45024 445.44 445.45024 445.44-199.44448 445.44-445.45024-199.43424-445.44-445.44-445.44z m-35.84 169.97376a35.84 35.84 0 1 1 71.68 0v337.92a35.84 35.84 0 1 1-71.68 0v-337.92z m35.84 586.77248c-42.42432 0-76.8-34.37568-76.8-76.8s34.37568-76.8 76.8-76.8 76.8 34.37568 76.8 76.8-34.37568 76.8-76.8 76.8z"  /></svg>