<?xml version="1.0" standalone="no"?><!DOCTYPE svg PUBLIC "-//W3C//DTD SVG 1.1//EN" "http://www.w3.org/Graphics/SVG/1.1/DTD/svg11.dtd"><svg class="icon" width="200px" height="200.00px" viewBox="0 0 1024 1024" version="1.1" xmlns="http://www.w3.org/2000/svg"><path fill="currentColor" d="M522.24 66.56C276.23424 66.56 76.8 265.984 76.8 512c0 245.99552 199.43424 445.44 445.44 445.44S967.68 757.99552 967.68 512C967.68 265.984 768.24576 66.56 522.24 66.56z m194.56 481.28H558.08V706.56c0 19.80416-16.03584 35.84-35.84 35.84s-35.84-16.03584-35.84-35.84V547.84H327.68c-19.80416 0-35.84-16.03584-35.84-35.84s16.03584-35.84 35.84-35.84h158.72V317.44a35.84 35.84 0 1 1 71.68 0v158.72H716.8c19.80416 0 35.84 16.03584 35.84 35.84s-16.03584 35.84-35.84 35.84z"  /></svg>