<?xml version="1.0" standalone="no"?><!DOCTYPE svg PUBLIC "-//W3C//DTD SVG 1.1//EN" "http://www.w3.org/Graphics/SVG/1.1/DTD/svg11.dtd"><svg class="icon" width="200px" height="200.00px" viewBox="0 0 1024 1024" version="1.1" xmlns="http://www.w3.org/2000/svg"><path fill="currentColor" d="M512 967.45472c246.00576 0 445.44-199.44448 445.44-445.44S758.00576 76.57472 512 76.57472 66.54976 276.00896 66.54976 522.01472s199.44448 445.44 445.45024 445.44zM320.11264 579.93216L486.62528 413.3888c1.76128-1.7408 3.6352-3.2768 5.62176-4.57728a35.67616 35.67616 0 0 1 11.60192-4.88448c0.44032-0.1024 0.86016-0.27648 1.28-0.37888 1.40288-0.256 2.816-0.29696 4.21888-0.39936 0.88064-0.06144 1.76128-0.256 2.65216-0.256 0.83968 0 1.67936 0.2048 2.53952 0.256 1.44384 0.1024 2.87744 0.14336 4.3008 0.39936 0.21504 0.04096 0.44032 0.16384 0.65536 0.2048a35.64544 35.64544 0 0 1 17.83808 9.63584l166.54336 166.54336a35.82976 35.82976 0 1 1-50.67776 50.67776L512 489.41056 370.7904 630.60992a35.82976 35.82976 0 1 1-50.67776-50.67776z"  /></svg>