<?xml version="1.0" standalone="no"?><!DOCTYPE svg PUBLIC "-//W3C//DTD SVG 1.1//EN" "http://www.w3.org/Graphics/SVG/1.1/DTD/svg11.dtd"><svg class="icon" width="200px" height="200.00px" viewBox="0 0 1024 1024" version="1.1" xmlns="http://www.w3.org/2000/svg"><path fill="currentColor" d="M517.4784 65.61792c-246.00576 0-445.44 199.43424-445.44 445.44s199.43424 445.44 445.44 445.44 445.44-199.43424 445.44-445.44c0-246.016-199.424-445.44-445.44-445.44zM662.30272 655.872a35.84 35.84 0 0 1-50.688 0l-94.12608-94.12608-94.12608 94.12608a35.84 35.84 0 0 1-50.688-50.67776l94.12608-94.12608-94.12608-94.12608a35.84 35.84 0 0 1 50.688-50.688l94.12608 94.12608 94.12608-94.12608a35.84 35.84 0 0 1 50.688 50.688l-94.12608 94.12608 94.12608 94.12608a35.84 35.84 0 0 1 0 50.67776z"  /></svg>