<?xml version="1.0" standalone="no"?><!DOCTYPE svg PUBLIC "-//W3C//DTD SVG 1.1//EN" "http://www.w3.org/Graphics/SVG/1.1/DTD/svg11.dtd"><svg class="icon" width="200px" height="200.00px" viewBox="0 0 1024 1024" version="1.1" xmlns="http://www.w3.org/2000/svg"><path fill="currentColor" d="M855.04 68.27008h-686.08c-56.55552 0-102.4 45.85472-102.4 102.4v686.08c0 56.55552 45.84448 102.4 102.4 102.4h686.08c56.55552 0 102.4-45.84448 102.4-102.4v-686.08c0-56.55552-45.84448-102.4-102.4-102.4zM656.82432 658.52416a35.84 35.84 0 0 1-50.688 0L512 564.3776l-94.13632 94.13632a35.82976 35.82976 0 1 1-50.67776-50.67776l94.11584-94.13632-94.11584-94.13632a35.82976 35.82976 0 1 1 50.67776-50.67776L512 463.02208l94.12608-94.13632a35.84 35.84 0 0 1 50.688 50.67776l-94.12608 94.13632 94.12608 94.13632a35.84 35.84 0 0 1 0.01024 50.688z"  /></svg>