<?xml version="1.0" standalone="no"?><!DOCTYPE svg PUBLIC "-//W3C//DTD SVG 1.1//EN" "http://www.w3.org/Graphics/SVG/1.1/DTD/svg11.dtd"><svg class="icon" width="200px" height="200.00px" viewBox="0 0 1024 1024" version="1.1" xmlns="http://www.w3.org/2000/svg"><path fill="currentColor" d="M856.75008 66.56h-686.08c-56.54528 0-102.4 45.85472-102.4 102.4v686.08c0 56.55552 45.85472 102.4 102.4 102.4h686.08c56.55552 0 102.4-45.84448 102.4-102.4v-686.08c0-56.54528-45.84448-102.4-102.4-102.4z m-378.88 169.97376a35.84 35.84 0 1 1 71.68 0v337.92a35.84 35.84 0 1 1-71.68 0v-337.92z m35.84 586.78272c-42.42432 0-76.8-34.37568-76.8-76.8s34.37568-76.8 76.8-76.8 76.8 34.37568 76.8 76.8-34.37568 76.8-76.8 76.8z"  /></svg>