<?xml version="1.0" standalone="no"?><!DOCTYPE svg PUBLIC "-//W3C//DTD SVG 1.1//EN" "http://www.w3.org/Graphics/SVG/1.1/DTD/svg11.dtd"><svg class="icon" width="200px" height="200.00px" viewBox="0 0 1024 1024" version="1.1" xmlns="http://www.w3.org/2000/svg"><path fill="currentColor" d="M600.75008 864.98304v22.48704zM1001.0112 346.4192c0-150.2208-121.78432-271.99488-271.99488-271.99488-87.6544 0-165.56032 41.50272-215.296 105.87136C463.96416 115.9168 386.05824 74.42432 298.41408 74.42432 148.19328 74.42432 26.4192 196.20864 26.4192 346.4192a270.96064 270.96064 0 0 0 71.4752 183.73632l-0.03072 0.01024 3.66592 3.79904c1.71008 1.80224 3.40992 3.62496 5.1712 5.36576l388.66944 403.23072s7.0656 10.0864 16.64 11.25376v0.21504c0.29696 0 0.5632-0.09216 0.84992-0.11264 0.28672 0.02048 0.5632 0.11264 0.84992 0.11264v-0.21504c9.5744-1.15712 16.64-11.25376 16.64-11.25376l397.02528-410.05056-0.07168-0.03072c45.68064-48.64 73.70752-114.06336 73.70752-186.0608z"  /></svg>