<?xml version="1.0" standalone="no"?><!DOCTYPE svg PUBLIC "-//W3C//DTD SVG 1.1//EN" "http://www.w3.org/Graphics/SVG/1.1/DTD/svg11.dtd"><svg class="icon" width="200px" height="200.00px" viewBox="0 0 1024 1024" version="1.1" xmlns="http://www.w3.org/2000/svg"><path fill="currentColor" d="M856.75008 68.27008H170.68032c-56.55552 0-102.4 45.85472-102.4 102.4v686.08c0 56.54528 45.84448 102.4 102.4 102.4h686.06976c56.55552 0 102.4-45.85472 102.4-102.4v-686.08c0-56.54528-45.84448-102.4-102.4-102.4zM745.41056 401.48992L470.28224 676.62848a35.85024 35.85024 0 0 1-50.69824 0L282.01984 539.07456a35.84 35.84 0 1 1 50.67776-50.69824l112.22016 112.24064 249.81504-249.81504a35.84 35.84 0 1 1 50.67776 50.688z"  /></svg>