<?xml version="1.0" standalone="no"?><!DOCTYPE svg PUBLIC "-//W3C//DTD SVG 1.1//EN" "http://www.w3.org/Graphics/SVG/1.1/DTD/svg11.dtd"><svg class="icon" width="200px" height="200.00px" viewBox="0 0 1024 1024" version="1.1" xmlns="http://www.w3.org/2000/svg"><path fill="currentColor" d="M774.5024 978.76992c-10.35264 0-22.40512-3.44064-32.74752-8.62208l-223.9488-111.95392-225.67936 111.95392c-22.38464 12.06272-51.6608 10.3424-72.33536-5.16096-20.6848-15.52384-32.73728-43.07968-27.55584-68.9152l46.49984-241.16224L61.29664 489.5232c-18.95424-18.95424-25.84576-48.24064-18.95424-72.3456 8.61184-25.83552 29.27616-44.78976 56.85248-48.2304l246.35392-44.8 110.25408-223.9488c12.05248-24.1152 36.16768-39.61856 62.01344-39.61856s51.68128 15.50336 62.02368 39.61856l110.25408 223.9488 246.35392 43.07968c25.83552 3.44064 48.24064 22.38464 55.12192 48.22016 8.63232 25.83552 1.73056 53.41184-17.23392 72.35584L796.89728 654.90944l44.77952 241.16224c5.1712 27.57632-6.88128 53.4016-27.55584 68.9152-10.3424 8.6016-24.1152 13.78304-39.61856 13.78304z m0 0"  /></svg>