<?xml version="1.0" standalone="no"?><!DOCTYPE svg PUBLIC "-//W3C//DTD SVG 1.1//EN" "http://www.w3.org/Graphics/SVG/1.1/DTD/svg11.dtd"><svg class="icon" width="200px" height="200.00px" viewBox="0 0 1024 1024" version="1.1" xmlns="http://www.w3.org/2000/svg"><path fill="currentColor" d="M957.44 521.99424c0-246.00576-199.44448-445.44-445.44-445.44S66.56 275.98848 66.56 521.99424s199.44448 445.44 445.44 445.44S957.44 768 957.44 521.99424zM569.91744 713.8816L403.38432 547.35872a36.3008 36.3008 0 0 1-4.57728-5.62176 35.67616 35.67616 0 0 1-4.88448-11.60192c-0.1024-0.44032-0.27648-0.86016-0.37888-1.28-0.256-1.40288-0.29696-2.816-0.39936-4.21888-0.06144-0.88064-0.256-1.76128-0.256-2.64192 0-0.83968 0.2048-1.67936 0.256-2.53952 0.1024-1.44384 0.14336-2.87744 0.39936-4.3008 0.04096-0.21504 0.16384-0.44032 0.2048-0.65536a35.64544 35.64544 0 0 1 9.63584-17.83808l166.54336-166.54336a35.82976 35.82976 0 1 1 50.67776 50.67776l-141.2096 141.19936 141.19936 141.2096a35.82976 35.82976 0 1 1-50.67776 50.67776z"  /></svg>