<?xml version="1.0" standalone="no"?><!DOCTYPE svg PUBLIC "-//W3C//DTD SVG 1.1//EN" "http://www.w3.org/Graphics/SVG/1.1/DTD/svg11.dtd"><svg class="icon" width="200px" height="200.00px" viewBox="0 0 1024 1024" version="1.1" xmlns="http://www.w3.org/2000/svg"><path fill="currentColor" d="M512 76.55424c-246.00576 0-445.44 199.44448-445.44 445.45024 0 245.99552 199.43424 445.44 445.44 445.44S957.44 768 957.44 522.00448C957.44 275.98848 758.00576 76.55424 512 76.55424z m191.88736 387.51232L537.36448 630.60992c-1.76128 1.75104-3.6352 3.2768-5.62176 4.58752a35.87072 35.87072 0 0 1-11.60192 4.87424c-0.44032 0.1024-0.86016 0.28672-1.28 0.37888-1.40288 0.26624-2.816 0.29696-4.21888 0.4096-0.88064 0.06144-1.76128 0.24576-2.64192 0.24576-0.83968 0-1.67936-0.19456-2.53952-0.24576-1.44384-0.1024-2.87744-0.14336-4.3008-0.4096-0.21504-0.04096-0.44032-0.1536-0.65536-0.2048a35.62496 35.62496 0 0 1-12.21632-5.04832 36.864 36.864 0 0 1-5.62176-4.58752L320.12288 464.06656a35.82976 35.82976 0 1 1 50.67776-50.67776L512 554.58816 653.19936 413.3888a35.84 35.84 0 0 1 50.688 50.67776z"  /></svg>