<?xml version="1.0" standalone="no"?><!DOCTYPE svg PUBLIC "-//W3C//DTD SVG 1.1//EN" "http://www.w3.org/Graphics/SVG/1.1/DTD/svg11.dtd"><svg class="icon" width="200px" height="200.00px" viewBox="0 0 1024 1024" version="1.1" xmlns="http://www.w3.org/2000/svg"><path fill="currentColor" d="M856.25856 68.27008H170.16832c-56.54528 0-102.4 45.84448-102.4 102.4v686.08c0 56.53504 45.85472 102.4 102.4 102.4h686.09024c56.54528 0 102.4-45.86496 102.4-102.4v-686.08c0-56.55552-45.84448-102.4-102.4-102.4z m-148.48 481.26976h-158.72v158.72c0 19.80416-16.03584 35.84-35.84 35.84s-35.84-16.03584-35.84-35.84v-158.72h-158.72a35.84 35.84 0 1 1 0-71.68h158.72v-158.72c0-19.80416 16.03584-35.84 35.84-35.84s35.84 16.03584 35.84 35.84v158.72h158.72c19.80416 0 35.84 16.03584 35.84 35.84s-16.03584 35.84-35.84 35.84z"  /></svg>