<?xml version="1.0" standalone="no"?><!DOCTYPE svg PUBLIC "-//W3C//DTD SVG 1.1//EN" "http://www.w3.org/Graphics/SVG/1.1/DTD/svg11.dtd"><svg class="icon" width="200px" height="200.00px" viewBox="0 0 1024 1024" version="1.1" xmlns="http://www.w3.org/2000/svg"><path fill="currentColor" d="M517.98016 66.56c-246.00576 0-445.44 199.43424-445.44 445.44 0 246.016 199.43424 445.44 445.44 445.44s445.44-199.424 445.44-445.44c0-246.00576-199.43424-445.44-445.44-445.44z m0 819.2c-206.09024 0-373.76-167.66976-373.76-373.76s167.66976-373.76 373.76-373.76 373.76 167.66976 373.76 373.76-167.66976 373.76-373.76 373.76z"  /><path fill="currentColor" d="M386.14016 588.8a35.84 35.84 0 1 1-71.68 0v-153.6a35.84 35.84 0 1 1 71.68 0v153.6zM721.50016 588.8a35.84 35.84 0 1 1-71.68 0v-153.6a35.84 35.84 0 1 1 71.68 0v153.6zM553.82016 640a35.84 35.84 0 1 1-71.68 0v-256a35.84 35.84 0 1 1 71.68 0v256z"  /></svg>