<?xml version="1.0" standalone="no"?><!DOCTYPE svg PUBLIC "-//W3C//DTD SVG 1.1//EN" "http://www.w3.org/Graphics/SVG/1.1/DTD/svg11.dtd"><svg class="icon" width="200px" height="200.00px" viewBox="0 0 1024 1024" version="1.1" xmlns="http://www.w3.org/2000/svg"><path fill="currentColor" d="M856.75008 68.27008H170.69056c-56.54528 0-102.4 45.84448-102.4 102.4v686.06976c0 56.55552 45.85472 102.4 102.4 102.4h686.05952c56.55552 0 102.4-45.84448 102.4-102.4V170.67008c0-56.55552-45.84448-102.4-102.4-102.4z m30.72 788.46976c0 16.93696-13.78304 30.72-30.72 30.72H170.69056c-16.93696 0-30.72-13.78304-30.72-30.72V170.67008c0-16.93696 13.78304-30.72 30.72-30.72h686.05952c16.93696 0 30.72 13.78304 30.72 30.72v686.06976z"  /></svg>