<?xml version="1.0" standalone="no"?><!DOCTYPE svg PUBLIC "-//W3C//DTD SVG 1.1//EN" "http://www.w3.org/Graphics/SVG/1.1/DTD/svg11.dtd"><svg class="icon" width="200px" height="200.00px" viewBox="0 0 1024 1024" version="1.1" xmlns="http://www.w3.org/2000/svg"><path fill="currentColor" d="M859.15648 67.66592H173.09696c-56.54528 0-102.4 45.84448-102.4 102.4v686.08c0 56.55552 45.85472 102.4 102.4 102.4h686.05952c56.55552 0 102.4-45.84448 102.4-102.4v-686.08c0-56.55552-45.83424-102.4-102.4-102.4z m30.72 788.46976c0 16.93696-13.78304 30.72-30.72 30.72H173.09696c-16.93696 0-30.72-13.78304-30.72-30.72v-686.08c0-16.93696 13.78304-30.72 30.72-30.72h686.05952c16.93696 0 30.72 13.78304 30.72 30.72v686.08z"  /><path fill="currentColor" d="M747.8272 350.18752a35.82976 35.82976 0 0 0-50.67776 0L447.34464 600.00256l-112.2304-112.24064a35.84 35.84 0 0 0-50.67776 50.69824l137.5744 137.56416a35.84 35.84 0 0 0 50.688 0l275.13856-275.1488a35.84 35.84 0 0 0-0.01024-50.688z"  /></svg>