<?xml version="1.0" standalone="no"?><!DOCTYPE svg PUBLIC "-//W3C//DTD SVG 1.1//EN" "http://www.w3.org/Graphics/SVG/1.1/DTD/svg11.dtd"><svg class="icon" width="200px" height="200.00px" viewBox="0 0 1024 1024" version="1.1" xmlns="http://www.w3.org/2000/svg"><path fill="currentColor" d="M855.90016 68.27008h-686.08c-56.55552 0-102.4 45.84448-102.4 102.4v686.06976c0 56.55552 45.84448 102.4 102.4 102.4h686.08c56.55552 0 102.4-45.84448 102.4-102.4V170.67008c0-56.55552-45.84448-102.4-102.4-102.4z m30.72 788.46976c0 16.93696-13.78304 30.72-30.72 30.72h-686.08c-16.93696 0-30.72-13.78304-30.72-30.72V170.67008c0-16.93696 13.78304-30.72 30.72-30.72h686.08c16.93696 0 30.72 13.78304 30.72 30.72v686.06976z"  /><path fill="currentColor" d="M512.86016 748.21632m-76.8 0a76.8 76.8 0 1 0 153.6 0 76.8 76.8 0 1 0-153.6 0Z"  /><path fill="currentColor" d="M548.70016 576.16384a35.84 35.84 0 0 1-35.84 35.84 35.82976 35.82976 0 0 1-35.84-35.84v-337.92a35.84 35.84 0 1 1 71.68 0v337.92z"  /></svg>