<?xml version="1.0" standalone="no"?><!DOCTYPE svg PUBLIC "-//W3C//DTD SVG 1.1//EN" "http://www.w3.org/Graphics/SVG/1.1/DTD/svg11.dtd"><svg class="icon" width="200px" height="200.00px" viewBox="0 0 1024 1024" version="1.1" xmlns="http://www.w3.org/2000/svg"><path fill="currentColor" d="M711.793131 488.367749h-165.896691v-165.896691c0-20.699626-16.760917-37.460543-37.460543-37.460543s-37.460543 16.760917-37.460543 37.460543v165.896691h-165.896691a37.44984 37.44984 0 1 0 0 74.910383h165.896691v165.896691c0 20.699626 16.760917 37.460543 37.460543 37.460543s37.460543-16.760917 37.460543-37.460543v-165.896691h165.896691a37.44984 37.44984 0 1 0 0-74.910383z"  /><path fill="currentColor" d="M866.986809 60.247256h-717.101825c-59.112737 0-107.030123 47.917386-107.030123 107.030123v717.091122c0 59.112737 47.917386 107.030123 107.030123 107.030123h717.101825c59.091331 0 107.030123-47.917386 107.030123-107.030123v-717.091122c0-59.12344-47.928089-107.030123-107.030123-107.030123z m32.109037 824.121245c0 17.702782-14.406255 32.109037-32.109037 32.109037h-717.101825c-17.702782 0-32.109037-14.406255-32.109037-32.109037v-717.091122c0-17.702782 14.406255-32.109037 32.109037-32.109037h717.101825c17.702782 0 32.109037 14.406255 32.109037 32.109037v717.091122z"  /></svg>