<?xml version="1.0" standalone="no"?><!DOCTYPE svg PUBLIC "-//W3C//DTD SVG 1.1//EN" "http://www.w3.org/Graphics/SVG/1.1/DTD/svg11.dtd"><svg class="icon" width="200px" height="200.00px" viewBox="0 0 1024 1024" version="1.1" xmlns="http://www.w3.org/2000/svg"><path fill="currentColor" d="M868.774212 53.33311h-717.101825c-59.112737 0-107.030123 47.917386-107.030123 107.030123v717.091122c0 59.112737 47.917386 107.030123 107.030123 107.030124h717.101825c59.091331 0 107.030123-47.917386 107.030124-107.030124v-717.091122c0-59.112737-47.938792-107.030123-107.030124-107.030123z m32.109037 824.121245c0 17.702782-14.406255 32.109037-32.109037 32.109037h-717.101825c-17.702782 0-32.109037-14.406255-32.109036-32.109037v-717.091122c0-17.702782 14.406255-32.109037 32.109036-32.109036h717.101825c17.702782 0 32.109037 14.406255 32.109037 32.109036v717.091122z"  /><path fill="currentColor" d="M751.05178 518.903443a37.460543 37.460543 0 0 1-37.460543 37.460543h-406.725171a37.460543 37.460543 0 1 1 0-74.921086h406.725171a37.460543 37.460543 0 0 1 37.460543 37.460543z"  /></svg>