<?xml version="1.0" standalone="no"?><!DOCTYPE svg PUBLIC "-//W3C//DTD SVG 1.1//EN" "http://www.w3.org/Graphics/SVG/1.1/DTD/svg11.dtd"><svg class="icon" width="200px" height="200.00px" viewBox="0 0 1024 1024" version="1.1" xmlns="http://www.w3.org/2000/svg"><path fill="currentColor" d="M766.667475 80.422435H264.075423c-59.102034 0-107.030123 47.928089-107.030123 107.030123v658.235257c0 59.102034 47.928089 107.030123 107.030123 107.030123h502.592052c59.102034 0 107.030123-47.928089 107.030123-107.030123v-658.235257c0-59.112737-47.928089-107.030123-107.030123-107.030123z m32.109037 765.26538c0 17.702782-14.406255 32.109037-32.109037 32.109037H264.075423c-17.702782 0-32.109037-14.406255-32.109037-32.109037v-658.235257c0-17.702782 14.406255-32.109037 32.109037-32.109037h502.592052c17.702782 0 32.109037 14.406255 32.109037 32.109037v658.235257z"  /><path fill="currentColor" d="M813.386124 355.992893c-59.369609 77.596839-157.601856 128.468257-268.602797 128.468256h-41.388549c-122.68863 0-229.804377-62.141689-286.05941-153.855802v117.6047c73.01595 68.638418 174.191525 111.172189 286.05941 111.172189H544.783327c103.209148 0 197.320735-36.229697 268.602797-95.727743V355.992893z"  /><path fill="currentColor" d="M515.371449 211.0527c-60.11882 0-108.849635 48.730815-108.849635 108.849635s48.730815 108.849635 108.849635 108.849635 108.849635-48.730815 108.849635-108.849635-48.720112-108.849635-108.849635-108.849635z m0 142.778184c-18.708866 0-33.928549-15.219684-33.928549-33.928549s15.219684-33.928549 33.928549-33.928549 33.928549 15.219684 33.928549 33.928549-15.219684 33.928549-33.928549 33.928549z"  /></svg>