<?xml version="1.0" standalone="no"?><!DOCTYPE svg PUBLIC "-//W3C//DTD SVG 1.1//EN" "http://www.w3.org/Graphics/SVG/1.1/DTD/svg11.dtd"><svg class="icon" width="200px" height="200.00px" viewBox="0 0 1024 1024" version="1.1" xmlns="http://www.w3.org/2000/svg"><path fill="currentColor" d="M916.81792 716.96384c-134.28736-108.05248-172.05248-54.02624-232.88832 6.81984-44.58496 42.47552-150.528-46.6944-244.41856-140.58496-94.40256-93.87008-181.47328-199.82336-138.98752-244.40832 61.35808-60.83584 115.39456-98.62144 6.81984-232.35584-110.66368-131.6352-181.48352-30.4128-240.22016 30.42304-68.17792 68.17792-4.7104 322.048 247.04 573.2864 251.76064 249.1392 506.14272 314.68544 574.32064 246.50752 58.74688-58.75712 162.60096-131.64544 28.33408-239.68768z m-59.2384 169.85088c-6.67648 6.35904-13.18912 12.57472-19.27168 18.62656-2.47808 1.4848-11.86816 4.82304-30.17728 4.82304-94.49472 0-268.27776-77.63968-443.5456-251.0848-237.44512-236.96384-268.71808-440.19712-246.15936-472.34048 5.89824-6.03136 11.6224-12.19584 17.47968-18.50368 18.95424-20.43904 50.66752-54.62016 66.70336-54.62016 7.90528 0 25.58976 10.05568 49.48992 38.36928 47.44192 58.5728 46.04928 79.36 45.74208 81.55136-1.26976 8.77568-20.8896 27.94496-36.6592 43.33568-3.65568 3.56352-12.544 12.35968-12.544 12.35968-100.36224 105.3184 62.208 266.97728 140.3392 344.6784 122.34752 122.34752 199.46496 172.31872 266.04544 172.31872 30.19776 0 57.2928-10.60864 78.34624-30.6688 0 0 8.7552-8.78592 12.41088-12.50304 17.6128-17.90976 35.81952-36.42368 44.87168-36.42368 5.632 0 28.12928 3.31776 81.24416 46.04928 37.12 29.88032 38.8096 45.64992 38.89152 47.34976 0.63488 15.4624-33.06496 47.53408-53.20704 66.68288zM982.44608 500.43904l0.01024-0.37888c0-213.05344-172.6976-385.76128-385.75104-385.76128-25.91744 0-51.23072 2.60096-75.71456 7.4752l0.18432 0.89088a35.72736 35.72736 0 0 0-33.06496 35.56352 35.84 35.84 0 0 0 35.84 35.84c4.02432 0 7.82336-0.80896 11.42784-2.02752a313.67168 313.67168 0 0 1 61.32736-6.06208c173.17888 0 314.07104 140.9024 314.07104 314.08128l-0.01024 0.29696h0.06144c0 0.18432-0.0512 0.33792-0.0512 0.52224a35.84 35.84 0 1 0 71.68 0c0-0.1536-0.04096-0.28672-0.04096-0.44032h0.03072z"  /><path fill="currentColor" d="M808.37632 500.06016c0-116.71552-94.94528-211.68128-211.67104-211.68128-14.22336 0-28.09856 1.46432-41.54368 4.13696l0.31744 1.60768a35.74784 35.74784 0 0 0 12.24704 69.38624c4.43392 0 8.63232-0.91136 12.55424-2.37568 5.38624-0.63488 10.8544-1.0752 16.42496-1.0752 74.5984 0 135.5776 58.69568 139.60192 132.32128-0.58368 2.56-0.95232 5.20192-0.95232 7.936a35.84 35.84 0 1 0 71.68 0l-0.01024-0.06144h1.34144l0.01024-0.19456z"  /></svg>