<?xml version="1.0" standalone="no"?><!DOCTYPE svg PUBLIC "-//W3C//DTD SVG 1.1//EN" "http://www.w3.org/Graphics/SVG/1.1/DTD/svg11.dtd"><svg class="icon" width="200px" height="200.00px" viewBox="0 0 1024 1024" version="1.1" xmlns="http://www.w3.org/2000/svg"><path d="M826.807701 315.83519l-0.10703 0.010703h0.21406z" fill="currentColor" /><path d="M512.010703 43.732508c-258.62759 0-468.278195 209.661308-468.278195 468.267492 0 258.616887 209.650605 468.278195 468.278195 468.278195C770.616887 980.278195 980.278195 770.616887 980.278195 512 980.278195 253.393817 770.616887 43.732508 512.010703 43.732508z m0 861.624601c-216.907248 0-393.357109-176.460564-393.357109-393.357109s176.449861-393.346406 393.357109-393.346406c216.896545 0 393.346406 176.449861 393.346406 393.346406S728.907248 905.357109 512.010703 905.357109z" fill="currentColor" /><path d="M510.212597 558.761461a37.460543 37.460543 0 0 1-37.460543-37.460543v-246.169283a37.460543 37.460543 0 1 1 74.921086 0v246.169283a37.460543 37.460543 0 0 1-37.460543 37.460543z" fill="currentColor" /><path d="M710.765642 731.144177a37.460543 37.460543 0 0 1-52.969208 0L483.722641 557.081088a37.44984 37.44984 0 1 1 52.969208-52.969208l174.073793 174.073792a37.460543 37.460543 0 0 1 0 52.958505z" fill="currentColor" /></svg>