<?xml version="1.0" standalone="no"?><!DOCTYPE svg PUBLIC "-//W3C//DTD SVG 1.1//EN" "http://www.w3.org/Graphics/SVG/1.1/DTD/svg11.dtd"><svg class="icon" width="200px" height="200.00px" viewBox="0 0 1024 1024" version="1.1" xmlns="http://www.w3.org/2000/svg"><path fill="currentColor" d="M101.293309 901.182934a37.460543 37.460543 0 0 0 37.460543 37.460543h738.507849a37.460543 37.460543 0 1 0 0-74.921086h-738.507849a37.460543 37.460543 0 0 0-37.460543 37.460543zM253.629283 406.200723a37.460543 37.460543 0 0 0 52.979911 0l185.79359-185.814996v539.292681a37.460543 37.460543 0 1 0 74.921087 0v-539.292681l185.79359 185.814996a37.460543 37.460543 0 0 0 52.979911-52.990614l-249.754792-249.744089a37.267889 37.267889 0 0 0-25.194891-10.852854c-0.438824-0.010703-0.856241-0.128436-1.295064-0.128437-0.470933 0-0.941865 0.128436-1.412798 0.13914a37.214374 37.214374 0 0 0-25.077158 10.842151l-249.754792 249.744089a37.503355 37.503355 0 0 0 0.021406 52.990614z"  /></svg>