<?xml version="1.0" standalone="no"?><!DOCTYPE svg PUBLIC "-//W3C//DTD SVG 1.1//EN" "http://www.w3.org/Graphics/SVG/1.1/DTD/svg11.dtd"><svg class="icon" width="200px" height="200.00px" viewBox="0 0 1024 1024" version="1.1" xmlns="http://www.w3.org/2000/svg"><path fill="currentColor" d="M919.613521 142.853105c-166.92418-0.246169-323.61628-90.697326-377.645087-124.797123 0.032109 0.021406 0.053515 0.064218 0.096328 0.085624a36.390242 36.390242 0 0 0-42.020027 1.337876c-55.120513 34.634948-212.090892 123.127454-377.805631 123.373623 0 0-34.78479-2.376069-34.78479 64.517759v379.956937s74.921086 334.469135 433.471998 409.390221c358.550912-74.921086 433.471999-409.390221 433.471999-409.390221v-379.956937c0-66.893827-34.78479-64.517758-34.78479-64.517759z m-40.136296 435.077451c-12.319167 44.438907-89.177499 277.775279-358.550913 342.025461-268.955996-64.153856-345.985576-296.85875-358.550912-342.078976v-361.611974c153.085185-11.163242 291.346698-81.696093 359.74965-122.463867 78.367456 46.9006 210.892155 111.846479 357.352175 122.47457v361.654786z"  /><path fill="currentColor" d="M740.402283 353.049564a37.460543 37.460543 0 0 0-52.969208 0l-223.254134 223.264837-109.759391-109.737985a37.460543 37.460543 0 1 0-52.969208 52.979911l136.227941 136.22794a37.332107 37.332107 0 0 0 26.500658 10.970588c9.579196 0 19.169095-3.66043 26.489955-10.970588l249.74409-249.744089a37.481949 37.481949 0 0 0-0.010703-52.990614z"  /></svg>