<?xml version="1.0" standalone="no"?><!DOCTYPE svg PUBLIC "-//W3C//DTD SVG 1.1//EN" "http://www.w3.org/Graphics/SVG/1.1/DTD/svg11.dtd"><svg class="icon" width="200px" height="200.00px" viewBox="0 0 1024 1024" version="1.1" xmlns="http://www.w3.org/2000/svg"><path fill="currentColor" d="M516.142066 62.46278c-110.091185 0-199.343604 89.25242-199.343605 199.343604v198.016431c0 110.091185 89.25242 199.343604 199.343605 199.343604s199.343604-89.25242 199.343604-199.343604v-198.016431c0-110.091185-89.25242-199.343604-199.343604-199.343604z m124.422518 397.360035c0 68.606309-55.816209 124.422518-124.422518 124.422518s-124.422518-55.816209-124.422518-124.422518v-198.016431c0-68.606309 55.816209-124.422518 124.422518-124.422518s124.422518 55.816209 124.422518 124.422518v198.016431z"  /><path fill="currentColor" d="M818.502164 467.614608c0-15.198277-16.750214-27.528148-37.428434-27.528148s-37.428434 12.32987-37.428435 27.528148c0 0.545854 0.181951 1.048895 0.224764 1.56264h-0.278279v2.675753c0 125.407195-102.031816 227.439012-227.439011 227.439011s-227.439012-102.031816-227.439012-227.439011v-2.675753h-0.278278c0.042812-0.524448 0.224763-1.027489 0.224763-1.56264 0-15.198277-16.750214-27.528148-37.428434-27.528148s-37.428434 12.32987-37.428434 27.528148c0 0.545854 0.181951 1.048895 0.224763 1.56264h-0.224763v2.675753c0 166.988398 135.3717 302.360098 302.360098 302.360098s302.360098-135.3717 302.360098-302.360098v-2.675753h-0.224764c0.021406-0.513745 0.203357-1.016786 0.203358-1.56264zM754.765725 924.065974a37.460543 37.460543 0 0 1-37.460543 37.460543h-402.326233a37.460543 37.460543 0 1 1 0-74.921086h402.326233a37.460543 37.460543 0 0 1 37.460543 37.460543z"  /><path fill="currentColor" d="M478.681523 718.032987h74.921086v230.114765h-74.921086z"  /></svg>