<?xml version="1.0" standalone="no"?><!DOCTYPE svg PUBLIC "-//W3C//DTD SVG 1.1//EN" "http://www.w3.org/Graphics/SVG/1.1/DTD/svg11.dtd"><svg class="icon" width="200px" height="200.00px" viewBox="0 0 1024 1024" version="1.1" xmlns="http://www.w3.org/2000/svg"><path fill="currentColor" d="M64.218074 560.795033v404.038715M843.804085 85.656208H171.248197c-59.102034 0-107.030123 47.928089-107.030123 107.030123V831.302966c0 59.102034 47.928089 107.030123 107.030123 107.030123h672.555888c59.102034 0 107.030123-47.928089 107.030123-107.030123V192.686331c0-59.112737-47.928089-107.030123-107.030123-107.030123z m32.109037 745.646758c0 17.702782-14.406255 32.109037-32.109037 32.109037H171.248197c-17.702782 0-32.109037-14.406255-32.109037-32.109037V192.686331c0-17.702782 14.406255-32.109037 32.109037-32.109037h672.555888c17.702782 0 32.109037 14.406255 32.109037 32.109037V831.302966z"  /><path fill="currentColor" d="M875.913122 625.013107H670.479503c-62.312938 0-113.013107-50.700169-113.013107-113.02381s50.689466-113.013107 113.013107-113.013107h205.433619v-74.921086H670.479503c-103.78711 0-187.934193 84.13638-187.934193 187.934193s84.13638 187.944896 187.934193 187.944896h205.433619v-74.921086z"  /><path fill="currentColor" d="M716.69511 512m-37.460543 0a37.460543 37.460543 0 1 0 74.921087 0 37.460543 37.460543 0 1 0-74.921087 0Z"  /></svg>