<?xml version="1.0" standalone="no"?><!DOCTYPE svg PUBLIC "-//W3C//DTD SVG 1.1//EN" "http://www.w3.org/Graphics/SVG/1.1/DTD/svg11.dtd"><svg class="icon" width="200px" height="200.00px" viewBox="0 0 1024 1024" version="1.1" xmlns="http://www.w3.org/2000/svg"><path fill="currentColor" d="M832.84992 291.67616h-1.69984v-88.576a81.92 81.92 0 0 0-81.92-81.92l-591.86176 92.16c-58.38848 11.93984-81.92 46.90944-81.92 92.16v59.71968h0.43008a84.1728 84.1728 0 0 0-0.43008 8.37632v460.8a81.92 81.92 0 0 0 81.92 81.92h675.4816a81.92 81.92 0 0 0 81.92-81.92v-460.8a81.92 81.92 0 0 0-81.92-81.92z m-662.6304-7.79264l581.89824-90.61376c4.23936 1.24928 7.35232 5.18144 7.35232 9.8304v88.576H157.36832c-2.33472 0-4.62848 0.16384-6.92224 0.3584 2.99008-3.21536 8.68352-5.77536 19.77344-8.15104z m672.8704 387.13344H688.24064c-36.94592 0-67.01056-30.06464-67.01056-67.01056s30.06464-67.0208 67.01056-67.0208h154.84928v134.03136zM688.24064 465.3056c-76.58496 0-138.69056 62.08512-138.69056 138.7008 0 76.58496 62.09536 138.69056 138.69056 138.69056h154.84928v91.6992a10.24 10.24 0 0 1-10.24 10.24H157.36832a10.24 10.24 0 0 1-10.24-10.24v-460.8c0-5.64224 4.58752-10.24 10.24-10.24h602.10176v1.86368h71.68v-1.86368h1.69984c5.65248 0 10.24 4.59776 10.24 10.24v91.70944H688.24064z"  /><path fill="currentColor" d="M709.96992 603.99616m-35.84 0a35.84 35.84 0 1 0 71.68 0 35.84 35.84 0 1 0-71.68 0Z"  /></svg>