<?xml version="1.0" standalone="no"?><!DOCTYPE svg PUBLIC "-//W3C//DTD SVG 1.1//EN" "http://www.w3.org/Graphics/SVG/1.1/DTD/svg11.dtd"><svg class="icon" width="200px" height="200.00px" viewBox="0 0 1024 1024" version="1.1" xmlns="http://www.w3.org/2000/svg"><path fill="currentColor" d="M353.28 514.37568m-35.84 0a35.84 35.84 0 1 0 71.68 0 35.84 35.84 0 1 0-71.68 0Z"  /><path fill="currentColor" d="M867.84 125.696H158.72c-56.54528 0-102.4 45.84448-102.4 102.4V800.6656c0 56.54528 45.85472 102.4 102.4 102.4h709.12c56.54528 0 102.4-45.85472 102.4-102.4V228.096c0-56.55552-45.85472-102.4-102.4-102.4zM128 442.69568h229.90848c39.51616 0 71.68 32.16384 71.68 71.68 0 39.53664-32.16384 71.69024-71.68 71.69024H128V442.69568zM898.56 800.6656c0 16.93696-13.78304 30.72-30.72 30.72H158.72c-16.93696 0-30.72-13.78304-30.72-30.72V657.74592h229.90848c79.16544 0 143.36-64.18432 143.36-143.37024 0-79.16544-64.19456-143.36-143.36-143.36H128V228.096c0-16.93696 13.78304-30.72 30.72-30.72h709.12c16.93696 0 30.72 13.78304 30.72 30.72V800.6656z"  /></svg>