<?xml version="1.0" standalone="no"?><!DOCTYPE svg PUBLIC "-//W3C//DTD SVG 1.1//EN" "http://www.w3.org/Graphics/SVG/1.1/DTD/svg11.dtd"><svg class="icon" width="200px" height="200.00px" viewBox="0 0 1024 1024" version="1.1" xmlns="http://www.w3.org/2000/svg"><path fill="currentColor" d="M223.3344 502.54848l19.98848-31.75424a329.0112 329.0112 0 0 0-19.98848 31.75424zM788.43904 473.57952l15.616 24.80128a333.16864 333.16864 0 0 0-15.616-24.80128z"  /><path fill="currentColor" d="M781.81376 461.7728L537.9072 74.37312l0.01024 0.02048a25.89696 25.89696 0 0 0-22.1184-12.47232 25.9072 25.9072 0 0 0-22.016 12.30848L257.792 449.06496c-43.30496 54.31296-69.20192 122.624-69.20192 196.90496 0 176.73216 146.13504 320 326.4 320 180.25472 0 326.4-143.26784 326.4-320 0-68.59776-22.08768-132.10624-59.57632-184.19712zM514.99008 894.28992c-140.45184 0-254.72-111.40096-254.72-248.32 0-55.64416 18.52416-108.26752 53.5552-152.20736l2.48832-3.1232 199.4752-316.85632 206.5408 328.05888 1.30048 1.80224c30.14656 41.89184 46.08 91.10528 46.08 142.32576 0 136.91904-114.26816 248.32-254.72 248.32z"  /></svg>